Jonova-Italic.ufo
<glyph name="sign:quotedbl" format="2">
  <advance width="736"/>
  <unicode hex="0022"/>
  <guideline x="0" y="860" angle="0"/>
  <guideline x="0" y="963" angle="0"/>
  <guideline x="240" y="0" angle="90"/>
  <guideline x="158" y="0" angle="90"/>
  <outline>
    <contour>
      <point x="323" y="901" type="line" name="hr00"/>
      <point x="357" y="1434" type="line"/>
      <point x="393" y="1464" type="line"/>
      <point x="535" y="1464" type="line"/>
      <point x="559" y="1434" type="line"/>
      <point x="405" y="901" type="line"/>
    </contour>
    <contour>
      <point x="647" y="901" type="line"/>
      <point x="681" y="1434" type="line"/>
      <point x="717" y="1464" type="line"/>
      <point x="859" y="1464" type="line"/>
      <point x="883" y="1434" type="line"/>
      <point x="729" y="901" type="line"/>
    </contour>
  </outline>
</glyph>
<glyph name="sign:numbersign" format="2">
  <advance width="1120"/>
  <unicode hex="0023"/>
  <guideline x="-33" y="0" angle="70"/>
  <guideline x="191" y="0" angle="70"/>
  <guideline x="293" y="0" angle="70"/>
  <guideline x="565" y="0" angle="70"/>
  <guideline x="666" y="0" angle="70"/>
  <guideline x="890" y="0" angle="70"/>
  <outline>
    <contour>
      <point x="331" y="1004" type="line" name="hr00"/>
      <point x="555" y="1004" type="line"/>
      <point x="724" y="1464" type="line"/>
      <point x="819" y="1446" type="line"/>
      <point x="657" y="1004" type="line"/>
      <point x="929" y="1004" type="line"/>
      <point x="1098" y="1464" type="line"/>
      <point x="1193" y="1446" type="line"/>
      <point x="1031" y="1004" type="line"/>
      <point x="1255" y="1004" type="line"/>
      <point x="1219" y="902" type="line"/>
      <point x="995" y="902" type="line"/>
      <point x="860" y="533" type="line"/>
      <point x="1084" y="533" type="line"/>
      <point x="1047" y="431" type="line"/>
      <point x="823" y="431" type="line"/>
      <point x="656" y="-30" type="line"/>
      <point x="560" y="-13" type="line"/>
      <point x="721" y="431" type="line"/>
      <point x="449" y="431" type="line"/>
      <point x="282" y="-30" type="line"/>
      <point x="186" y="-13" type="line"/>
      <point x="348" y="431" type="line"/>
      <point x="124" y="431" type="line"/>
      <point x="161" y="533" type="line"/>
      <point x="384" y="533" type="line"/>
      <point x="519" y="902" type="line"/>
      <point x="295" y="902" type="line"/>
    </contour>
    <contour>
      <point x="621" y="902" type="line"/>
      <point x="486" y="533" type="line"/>
      <point x="758" y="533" type="line"/>
      <point x="893" y="902" type="line"/>
    </contour>
  </outline>
</glyph>
<glyph name="sign:quotesingle" format="2">
  <advance width="576"/>
  <unicode hex="0027"/>
  <guideline x="1823" y="0" angle="135"/>
  <outline>
    <contour>
      <point x="405" y="901" type="line" name="hr00"/>
      <point x="439" y="1434" type="line"/>
      <point x="475" y="1464" type="line"/>
      <point x="617" y="1464" type="line"/>
      <point x="641" y="1434" type="line"/>
      <point x="487" y="901" type="line"/>
    </contour>
  </outline>
</glyph>
<glyph name="sign:parenright" format="2">
  <advance width="736"/>
  <unicode hex="0029"/>
  <outline>
    <contour>
      <point x="378" y="1570" type="line" name="hr00"/>
      <point x="552" y="1442"/>
      <point x="732" y="1084"/>
      <point x="732" y="846" type="qcurve"/>
      <point x="732" y="651"/>
      <point x="635" y="284"/>
      <point x="454" y="-36"/>
      <point x="195" y="-296"/>
      <point x="34" y="-384" type="qcurve"/>
      <point x="34" y="-278" type="line"/>
      <point x="157" y="-195"/>
      <point x="358" y="47"/>
      <point x="500" y="336"/>
      <point x="577" y="660"/>
      <point x="577" y="826" type="qcurve"/>
      <point x="577" y="1018"/>
      <point x="459" y="1349"/>
      <point x="340" y="1464" type="qcurve"/>
    </contour>
  </outline>
</glyph>
<glyph name="plus" format="2">
  <advance width="1152"/>
  <unicode hex="002B"/>
  <outline>
    <contour>
      <point x="164" y="426" type="line" name="hr00"/>
      <point x="185" y="548" type="line"/>
      <point x="611" y="548" type="line"/>
      <point x="686" y="974" type="line"/>
      <point x="808" y="974" type="line"/>
      <point x="733" y="548" type="line"/>
      <point x="1159" y="548" type="line"/>
      <point x="1138" y="426" type="line"/>
      <point x="712" y="426" type="line"/>
      <point x="637" y="0" type="line"/>
      <point x="515" y="0" type="line"/>
      <point x="590" y="426" type="line"/>
    </contour>
  </outline>
</glyph>
<glyph name="sign:comma" format="2">
  <advance width="576"/>
  <unicode hex="002C"/>
  <guideline x="-274" y="0" angle="135"/>
  <guideline x="130" y="0" angle="45"/>
  <outline>
    <contour>
      <point x="209" y="79" type="line" name="hr00"/>
      <point x="346" y="216" type="line"/>
      <point x="367" y="216" type="line"/>
      <point x="391" y="187"/>
      <point x="425" y="72"/>
      <point x="425" y="6" type="qcurve"/>
      <point x="425" y="-64"/>
      <point x="376" y="-184"/>
      <point x="293" y="-284"/>
      <point x="184" y="-367"/>
      <point x="124" y="-400" type="qcurve"/>
      <point x="51" y="-327" type="line"/>
      <point x="83" y="-303"/>
      <point x="151" y="-245"/>
      <point x="207" y="-176"/>
      <point x="243" y="-97"/>
      <point x="243" y="-52" type="qcurve"/>
      <point x="243" y="-20"/>
      <point x="223" y="41"/>
      <point x="209" y="59" type="qcurve"/>
    </contour>
  </outline>
</glyph>
<glyph name="hyphen" format="2">
  <advance width="736"/>
  <unicode hex="002D"/>
  <outline>
    <contour>
      <point x="264" y="548" type="line" name="hr00"/>
      <point x="836" y="548" type="line"/>
      <point x="814" y="426" type="line"/>
      <point x="242" y="426" type="line"/>
    </contour>
  </outline>
</glyph>
<glyph name="sign:period" format="2">
  <advance width="576"/>
  <unicode hex="002E"/>
  <outline>
    <contour>
      <point x="198" y="93" type="qcurve" name="hr00"/>
      <point x="198" y="118"/>
      <point x="217" y="163"/>
      <point x="251" y="197"/>
      <point x="295" y="216"/>
      <point x="321" y="216" type="qcurve"/>
      <point x="346" y="216"/>
      <point x="391" y="197"/>
      <point x="424" y="163"/>
      <point x="444" y="118"/>
      <point x="444" y="93" type="qcurve"/>
      <point x="444" y="68"/>
      <point x="424" y="23"/>
      <point x="391" y="-10"/>
      <point x="346" y="-30"/>
      <point x="321" y="-30" type="qcurve"/>
      <point x="295" y="-30"/>
      <point x="251" y="-10"/>
      <point x="217" y="23"/>
      <point x="198" y="68"/>
    </contour>
  </outline>
</glyph>
<glyph name="digit:zero" format="2">
  <advance width="1120"/>
  <unicode hex="0030"/>
  <guideline x="0" y="881" angle="0"/>
  <guideline x="0" y="573" angle="0"/>
  <guideline x="513" y="0" angle="90"/>
  <outline>
    <contour>
      <point x="818" y="1464" type="qcurve" name="at01"/>
      <point x="904" y="1464"/>
      <point x="1044" y="1403"/>
      <point x="1143" y="1280"/>
      <point x="1196" y="1095"/>
      <point x="1196" y="971" type="qcurve" name="dh02"/>
      <point x="1196" y="839"/>
      <point x="1151" y="588"/>
      <point x="1068" y="366"/>
      <point x="952" y="180"/>
      <point x="809" y="45"/>
      <point x="644" y="-30"/>
      <point x="554" y="-30" type="qcurve" name="ab01"/>
      <point x="467" y="-30"/>
      <point x="328" y="31"/>
      <point x="229" y="154"/>
      <point x="176" y="339"/>
      <point x="176" y="462" type="qcurve" name="dh03"/>
      <point x="176" y="593"/>
      <point x="221" y="844"/>
      <point x="303" y="1067"/>
      <point x="420" y="1254"/>
      <point x="562" y="1389"/>
      <point x="728" y="1464"/>
    </contour>
    <contour>
      <point x="800" y="1362" type="qcurve" name="sv01"/>
      <point x="734" y="1362"/>
      <point x="616" y="1282"/>
      <point x="516" y="1146"/>
      <point x="435" y="964"/>
      <point x="378" y="759"/>
      <point x="348" y="542"/>
      <point x="348" y="440" type="qcurve" name="dh04"/>
      <point x="348" y="254"/>
      <point x="463" y="72"/>
      <point x="572" y="72" type="qcurve" name="sv02"/>
      <point x="637" y="72"/>
      <point x="755" y="152"/>
      <point x="855" y="288"/>
      <point x="936" y="470"/>
      <point x="993" y="675"/>
      <point x="1024" y="891"/>
      <point x="1024" y="993" type="qcurve" name="dh01"/>
      <point x="1024" y="1178"/>
      <point x="908" y="1362"/>
    </contour>
  </outline>
</glyph>
<glyph name="digit:one" format="2">
  <advance width="1120"/>
  <unicode hex="0031"/>
  <guideline x="527" y="0" angle="80"/>
  <guideline x="466" y="0" angle="90"/>
  <outline>
    <contour>
      <point x="946" y="1464" type="line" name="at01"/>
      <point x="688" y="0" type="line" name="dh02"/>
      <point x="526" y="0" type="line" name="dh01"/>
      <point x="750" y="1265" type="line" name="iv01"/>
      <point x="740" y="1265" type="line"/>
      <point x="466" y="1206" type="line" name="sh01"/>
      <point x="466" y="1309" type="line" name="sv01"/>
      <point x="916" y="1464" type="line"/>
    </contour>
  </outline>
</glyph>
<glyph name="two" format="2">
  <advance width="1120"/>
  <unicode hex="0032"/>
  <guideline x="0" y="1759" angle="315"/>
  <guideline x="107" y="0" angle="79.91"/>
  <guideline x="-351" y="0" angle="90"/>
  <guideline x="983" y="0" angle="80"/>
  <guideline x="1009" y="0" angle="90"/>
  <outline>
    <contour>
      <point x="450" y="1309" type="line" name="hr00"/>
      <point x="482" y="1337"/>
      <point x="569" y="1393"/>
      <point x="671" y="1437"/>
      <point x="784" y="1464"/>
      <point x="843" y="1464" type="qcurve" name="at01"/>
      <point x="913" y="1464"/>
      <point x="1033" y="1428"/>
      <point x="1121" y="1355"/>
      <point x="1171" y="1245"/>
      <point x="1171" y="1171" type="qcurve" name="dh02"/>
      <point x="1171" y="1090"/>
      <point x="1121" y="940"/>
      <point x="1027" y="791"/>
      <point x="891" y="634"/>
      <point x="720" y="458"/>
      <point x="515" y="254"/>
      <point x="399" y="132" type="qcurve"/>
      <point x="397" y="122" type="line" name="sv01"/>
      <point x="1008" y="142" type="line" name="sv02"/>
      <point x="983" y="0" type="line" name="ab01"/>
      <point x="153" y="0" type="line"/>
      <point x="156" y="20" type="line"/>
      <point x="309" y="190"/>
      <point x="555" y="451"/>
      <point x="744" y="655"/>
      <point x="880" y="815"/>
      <point x="968" y="955"/>
      <point x="1009" y="1087"/>
      <point x="1009" y="1161" type="qcurve" name="dh01"/>
      <point x="1009" y="1206"/>
      <point x="984" y="1280"/>
      <point x="937" y="1333"/>
      <point x="868" y="1362"/>
      <point x="825" y="1362" type="qcurve" name="sv03"/>
      <point x="753" y="1362"/>
      <point x="622" y="1279"/>
      <point x="552" y="1207" type="qcurve" name="iv01"/>
    </contour>
  </outline>
</glyph>
<glyph name="digit:three" format="2">
  <advance width="1120"/>
  <unicode hex="0033"/>
  <guideline x="0" y="261" angle="0"/>
  <guideline x="0" y="1729" angle="315"/>
  <guideline x="0" y="-27" angle="45"/>
  <guideline x="99" y="0" angle="90"/>
  <guideline x="390" y="0" angle="80"/>
  <outline>
    <contour>
      <point x="420" y="1309" type="line" name="hr00"/>
      <point x="443" y="1330"/>
      <point x="519" y="1384"/>
      <point x="616" y="1431"/>
      <point x="733" y="1464"/>
      <point x="798" y="1464" type="qcurve" name="at01"/>
      <point x="867" y="1464"/>
      <point x="977" y="1423" name="hr01"/>
      <point x="1055" y="1352"/>
      <point x="1096" y="1255"/>
      <point x="1096" y="1199" type="qcurve" name="sh01"/>
      <point x="1096" y="1152"/>
      <point x="1068" y="1065"/>
      <point x="1022" y="990"/>
      <point x="961" y="927"/>
      <point x="897" y="880" name="hr02"/>
      <point x="833" y="850"/>
      <point x="806" y="845" type="qcurve"/>
      <point x="805" y="835" type="line"/>
      <point x="825" y="830"/>
      <point x="880" y="808"/>
      <point x="939" y="772"/>
      <point x="996" y="720"/>
      <point x="1040" y="648"/>
      <point x="1068" y="556"/>
      <point x="1068" y="499" type="qcurve" name="dh02"/>
      <point x="1068" y="390"/>
      <point x="987" y="198"/>
      <point x="840" y="54"/>
      <point x="633" y="-30"/>
      <point x="507" y="-30" type="qcurve" name="ab01"/>
      <point x="438" y="-30"/>
      <point x="328" y="-5"/>
      <point x="241" y="38"/>
      <point x="176" y="94"/>
      <point x="152" y="125" type="qcurve"/>
      <point x="254" y="227" type="line" name="iv01"/>
      <point x="270" y="195"/>
      <point x="323" y="139"/>
      <point x="394" y="97"/>
      <point x="478" y="72"/>
      <point x="525" y="72" type="qcurve" name="sv01"/>
      <point x="598" y="72"/>
      <point x="732" y="142"/>
      <point x="835" y="259"/>
      <point x="896" y="411"/>
      <point x="896" y="493" type="qcurve" name="dh01"/>
      <point x="896" y="554"/>
      <point x="859" y="659"/>
      <point x="785" y="734"/>
      <point x="675" y="777"/>
      <point x="602" y="777" type="qcurve" name="dv01"/>
      <point x="530" y="777" type="line"/>
      <point x="548" y="879" type="line"/>
      <point x="630" y="879" type="line" name="dv02"/>
      <point x="681" y="879"/>
      <point x="788" y="927"/>
      <point x="877" y="1011"/>
      <point x="934" y="1126"/>
      <point x="934" y="1194" type="qcurve" name="ih01"/>
      <point x="934" y="1230"/>
      <point x="914" y="1291"/>
      <point x="875" y="1336"/>
      <point x="817" y="1362"/>
      <point x="779" y="1362" type="qcurve" name="sv02"/>
      <point x="737" y="1362"/>
      <point x="664" y="1334"/>
      <point x="600" y="1290"/>
      <point x="546" y="1235"/>
      <point x="522" y="1207" type="qcurve" name="iv02"/>
    </contour>
  </outline>
</glyph>
<glyph name="four" format="2">
  <advance width="1120"/>
  <unicode hex="0034"/>
  <guideline x="0" y="1558" angle="350"/>
  <guideline x="0" y="470" angle="2.04"/>
  <guideline x="956" y="0" angle="90"/>
  <guideline x="1092" y="0" angle="100"/>
  <guideline x="1008" y="0" angle="80"/>
  <outline>
    <contour>
      <point x="934" y="1434" type="line" name="dh06"/>
      <point x="964" y="1434" type="line"/>
      <point x="1092" y="1410" type="line" name="dh05"/>
      <point x="357" y="481" type="line" name="dh04"/>
      <point x="769" y="496" type="line" name="sv01"/>
      <point x="799" y="667" type="line" name="sh01"/>
      <point x="938" y="707" type="line"/>
      <point x="968" y="707" type="line" name="sh02"/>
      <point x="932" y="502" type="line" name="sv02"/>
      <point x="1098" y="508" type="line"/>
      <point x="1072" y="365" type="line"/>
      <point x="908" y="365" type="line" name="sv03"/>
      <point x="844" y="0" type="line" name="dh02"/>
      <point x="682" y="0" type="line" name="dh01"/>
      <point x="746" y="365" type="line"/>
      <point x="148" y="365" type="line" name="dh03"/>
      <point x="151" y="385" type="line"/>
    </contour>
  </outline>
</glyph>
<glyph name="five" format="2">
  <advance width="1120"/>
  <unicode hex="0035"/>
  <guideline x="0" y="1159" angle="315"/>
  <guideline x="0" y="-19" angle="45"/>
  <guideline x="889" y="0" angle="90"/>
  <guideline x="897" y="0" angle="80"/>
  <outline>
    <contour>
      <point x="319" y="777" type="line" name="dh03"/>
      <point x="434" y="1434" type="line" name="sh01"/>
      <point x="1149" y="1434" type="line"/>
      <point x="1127" y="1309" type="line"/>
      <point x="578" y="1332" type="line" name="sh02"/>
      <point x="501" y="893" type="line" name="dh04"/>
      <point x="511" y="893" type="line"/>
      <point x="547" y="910"/>
      <point x="649" y="931"/>
      <point x="700" y="931" type="qcurve" name="dv02"/>
      <point x="783" y="931"/>
      <point x="919" y="875"/>
      <point x="1016" y="774"/>
      <point x="1069" y="633"/>
      <point x="1069" y="548" type="qcurve" name="dh02"/>
      <point x="1069" y="435"/>
      <point x="987" y="227"/>
      <point x="835" y="66"/>
      <point x="622" y="-30"/>
      <point x="490" y="-30" type="qcurve" name="ab01"/>
      <point x="426" y="-30"/>
      <point x="317" y="-2"/>
      <point x="229" y="42"/>
      <point x="164" y="97"/>
      <point x="144" y="125" type="qcurve" name="ah01"/>
      <point x="246" y="227" type="line" name="sv01"/>
      <point x="259" y="200"/>
      <point x="310" y="145"/>
      <point x="379" y="100"/>
      <point x="462" y="72"/>
      <point x="507" y="72" type="qcurve" name="sv02"/>
      <point x="584" y="72"/>
      <point x="725" y="147"/>
      <point x="833" y="275"/>
      <point x="897" y="444"/>
      <point x="897" y="538" type="qcurve" name="dh01"/>
      <point x="897" y="611"/>
      <point x="856" y="720"/>
      <point x="791" y="793"/>
      <point x="711" y="829"/>
      <point x="672" y="829" type="qcurve" name="dv01"/>
      <point x="611" y="829"/>
      <point x="523" y="803"/>
      <point x="481" y="777" type="qcurve"/>
    </contour>
  </outline>
</glyph>
<glyph name="digit:six" format="2">
  <advance width="1120"/>
  <unicode hex="0036"/>
  <guideline x="0" y="2095" angle="0"/>
  <guideline x="0" y="1286" angle="3"/>
  <guideline x="2429" y="0" angle="90"/>
  <guideline x="565" y="0" angle="90"/>
  <guideline x="1085" y="0" angle="100"/>
  <guideline x="830" y="0" angle="80"/>
  <outline>
    <contour>
      <point x="1070" y="1362" type="line" name="sv01"/>
      <point x="935" y="1362"/>
      <point x="708" y="1261"/>
      <point x="533" y="1077"/>
      <point x="414" y="819"/>
      <point x="386" y="661" type="qcurve" name="sh01"/>
      <point x="396" y="661" type="line"/>
      <point x="431" y="709"/>
      <point x="514" y="780"/>
      <point x="602" y="827"/>
      <point x="692" y="849"/>
      <point x="734" y="849" type="qcurve" name="dv02"/>
      <point x="818" y="849"/>
      <point x="950" y="799"/>
      <point x="1043" y="709"/>
      <point x="1092" y="582"/>
      <point x="1092" y="504" type="qcurve" name="dh02"/>
      <point x="1092" y="387"/>
      <point x="1004" y="191"/>
      <point x="859" y="49"/>
      <point x="675" y="-30"/>
      <point x="579" y="-30" type="qcurve" name="ab01"/>
      <point x="504" y="-30"/>
      <point x="366" y="28"/>
      <point x="261" y="144"/>
      <point x="199" y="319"/>
      <point x="199" y="437" type="qcurve" name="dh04"/>
      <point x="199" y="556"/>
      <point x="245" y="800"/>
      <point x="340" y="1028"/>
      <point x="485" y="1229"/>
      <point x="683" y="1378"/>
      <point x="934" y="1464"/>
      <point x="1088" y="1464" type="qcurve" name="at01"/>
    </contour>
    <contour>
      <point x="716" y="747" type="qcurve" name="dv01"/>
      <point x="658" y="747"/>
      <point x="561" y="712"/>
      <point x="485" y="651"/>
      <point x="428" y="570"/>
      <point x="390" y="478"/>
      <point x="371" y="381"/>
      <point x="371" y="335" type="qcurve" name="dh03"/>
      <point x="371" y="276"/>
      <point x="399" y="179"/>
      <point x="456" y="110"/>
      <point x="540" y="72"/>
      <point x="597" y="72" type="qcurve" name="sv02"/>
      <point x="672" y="72"/>
      <point x="791" y="145"/>
      <point x="875" y="267"/>
      <point x="920" y="424"/>
      <point x="920" y="507" type="qcurve" name="dh01"/>
      <point x="920" y="560"/>
      <point x="895" y="648"/>
      <point x="845" y="712"/>
      <point x="768" y="747"/>
    </contour>
  </outline>
</glyph>
<glyph name="digit:seven" format="2">
  <advance width="1120"/>
  <unicode hex="0037"/>
  <guideline x="0" y="806" angle="3"/>
  <guideline x="213" y="0" angle="65"/>
  <guideline x="145" y="0" angle="80"/>
  <guideline x="420" y="0" angle="100"/>
  <outline>
    <contour>
      <point x="399" y="1434" type="line" name="at01"/>
      <point x="1240" y="1434" type="line"/>
      <point x="1237" y="1414" type="line"/>
      <point x="419" y="-30" type="line" name="dh01"/>
      <point x="257" y="0" type="line" name="dh02"/>
      <point x="1039" y="1302" type="line"/>
      <point x="1041" y="1312" type="line"/>
      <point x="373" y="1292" type="line" name="sv01"/>
    </contour>
  </outline>
</glyph>
<glyph name="digit:eight" format="2">
  <advance width="1120"/>
  <unicode hex="0038"/>
  <guideline x="0" y="1261" angle="325"/>
  <guideline x="0" y="1142" angle="325"/>
  <guideline x="0" y="477" angle="35"/>
  <guideline x="0" y="356" angle="35"/>
  <guideline x="0" y="1129" angle="0"/>
  <guideline x="559" y="0" angle="90"/>
  <outline>
    <contour>
      <point x="817" y="1464" type="qcurve" name="at01"/>
      <point x="886" y="1464"/>
      <point x="996" y="1417"/>
      <point x="1073" y="1339"/>
      <point x="1113" y="1238"/>
      <point x="1113" y="1183" type="qcurve" name="sh01"/>
      <point x="1113" y="1073" name="hr00"/>
      <point x="999" y="892"/>
      <point x="901" y="834" type="qcurve"/>
      <point x="899" y="824" type="line" name="sh02"/>
      <point x="952" y="796"/>
      <point x="1026" y="728"/>
      <point x="1071" y="650"/>
      <point x="1091" y="561"/>
      <point x="1091" y="513" type="qcurve" name="dh04"/>
      <point x="1091" y="447"/>
      <point x="1058" y="316" name="hr01"/>
      <point x="994" y="195"/>
      <point x="902" y="91"/>
      <point x="782" y="14" name="hr02"/>
      <point x="637" y="-30"/>
      <point x="553" y="-30" type="qcurve" name="ab01"/>
      <point x="458" y="-30"/>
      <point x="316" y="30"/>
      <point x="222" y="131"/>
      <point x="175" y="262"/>
      <point x="175" y="333" type="qcurve" name="dh01"/>
      <point x="175" y="488"/>
      <point x="341" y="743"/>
      <point x="507" y="824" type="qcurve"/>
      <point x="509" y="834" type="line" name="ih03"/>
      <point x="452" y="874"/>
      <point x="400" y="985"/>
      <point x="400" y="1054" type="qcurve" name="ih02"/>
      <point x="400" y="1129"/>
      <point x="462" y="1275"/>
      <point x="572" y="1392"/>
      <point x="725" y="1464"/>
    </contour>
    <contour>
      <point x="799" y="1362" type="qcurve" name="sv01"/>
      <point x="748" y="1362"/>
      <point x="661" y="1307"/>
      <point x="598" y="1220"/>
      <point x="562" y="1110"/>
      <point x="562" y="1055" type="qcurve" name="sh03"/>
      <point x="562" y="1016"/>
      <point x="581" y="948"/>
      <point x="619" y="898"/>
      <point x="675" y="869"/>
      <point x="712" y="869" type="qcurve" name="sv02"/>
      <point x="763" y="869"/>
      <point x="850" y="923"/>
      <point x="915" y="1009"/>
      <point x="951" y="1118"/>
      <point x="951" y="1173" type="qcurve" name="ih01"/>
      <point x="951" y="1212"/>
      <point x="931" y="1281"/>
      <point x="892" y="1332"/>
      <point x="835" y="1362"/>
    </contour>
    <contour>
      <point x="694" y="767" type="qcurve" name="iv01"/>
      <point x="622" y="767"/>
      <point x="496" y="693"/>
      <point x="402" y="574"/>
      <point x="347" y="422"/>
      <point x="347" y="344" type="qcurve" name="dh02"/>
      <point x="347" y="287"/>
      <point x="377" y="188"/>
      <point x="435" y="114"/>
      <point x="518" y="72"/>
      <point x="571" y="72" type="qcurve" name="sv03"/>
      <point x="642" y="72"/>
      <point x="769" y="147"/>
      <point x="864" y="268"/>
      <point x="919" y="421"/>
      <point x="919" y="499" type="qcurve" name="dh03"/>
      <point x="919" y="556"/>
      <point x="889" y="654"/>
      <point x="831" y="726"/>
      <point x="748" y="767"/>
    </contour>
  </outline>
</glyph>
<glyph name="digit:nine" format="2">
  <advance width="1120"/>
  <unicode hex="0039"/>
  <guideline x="0" y="187" angle="25"/>
  <guideline x="197" y="0" angle="80"/>
  <outline>
    <contour>
      <point x="210" y="72" type="line" name="sv01"/>
      <point x="358" y="72"/>
      <point x="614" y="170"/>
      <point x="817" y="353"/>
      <point x="957" y="612"/>
      <point x="990" y="773" type="qcurve" name="sh01"/>
      <point x="980" y="773" type="line"/>
      <point x="946" y="722"/>
      <point x="858" y="650"/>
      <point x="763" y="605"/>
      <point x="671" y="585"/>
      <point x="632" y="585" type="qcurve" name="iv01"/>
      <point x="548" y="585"/>
      <point x="415" y="634"/>
      <point x="322" y="724"/>
      <point x="273" y="851"/>
      <point x="273" y="928" type="qcurve" name="dh01"/>
      <point x="273" y="1046"/>
      <point x="356" y="1243"/>
      <point x="498" y="1385"/>
      <point x="689" y="1464"/>
      <point x="797" y="1464" type="qcurve" name="at01"/>
      <point x="872" y="1464"/>
      <point x="1009" y="1409"/>
      <point x="1114" y="1295"/>
      <point x="1177" y="1121"/>
      <point x="1177" y="1002" type="qcurve" name="dh03"/>
      <point x="1177" y="876"/>
      <point x="1121" y="625"/>
      <point x="1011" y="395"/>
      <point x="848" y="198"/>
      <point x="634" y="53"/>
      <point x="368" y="-30"/>
      <point x="192" y="-30" type="qcurve" name="ab01"/>
    </contour>
    <contour>
      <point x="650" y="687" type="qcurve" name="sv02"/>
      <point x="739" y="687"/>
      <point x="872" y="765"/>
      <point x="961" y="886"/>
      <point x="1005" y="1034"/>
      <point x="1005" y="1105" type="qcurve" name="dh04"/>
      <point x="1005" y="1226"/>
      <point x="891" y="1362"/>
      <point x="779" y="1362" type="qcurve" name="sv03"/>
      <point x="711" y="1362"/>
      <point x="590" y="1289"/>
      <point x="498" y="1168"/>
      <point x="445" y="1011"/>
      <point x="445" y="927" type="qcurve" name="dh02"/>
      <point x="445" y="874"/>
      <point x="470" y="786"/>
      <point x="521" y="722"/>
      <point x="598" y="687"/>
    </contour>
  </outline>
</glyph>
<glyph name="sign:semicolon" format="2">
  <advance width="576"/>
  <unicode hex="003B"/>
  <guideline x="-232" y="0" angle="135"/>
  <outline>
    <contour>
      <point x="207" y="79" type="line" name="hr00"/>
      <point x="344" y="216" type="line"/>
      <point x="365" y="216" type="line"/>
      <point x="389" y="186"/>
      <point x="423" y="73"/>
      <point x="423" y="6" type="qcurve" name="dh02"/>
      <point x="423" y="-64" name="hr01"/>
      <point x="374" y="-184"/>
      <point x="291" y="-284"/>
      <point x="182" y="-367"/>
      <point x="122" y="-400" type="qcurve" name="av01"/>
      <point x="49" y="-327" type="line" name="sh01"/>
      <point x="81" y="-303"/>
      <point x="149" y="-245"/>
      <point x="205" y="-176"/>
      <point x="241" y="-97"/>
      <point x="241" y="-52" type="qcurve" name="dh01"/>
      <point x="241" y="-20"/>
      <point x="217" y="41"/>
      <point x="203" y="59" type="qcurve"/>
    </contour>
    <contour>
      <point x="349" y="881" type="qcurve" name="ih01"/>
      <point x="349" y="906"/>
      <point x="368" y="951"/>
      <point x="402" y="984"/>
      <point x="446" y="1004"/>
      <point x="472" y="1004" type="qcurve" name="at01"/>
      <point x="497" y="1004"/>
      <point x="542" y="984"/>
      <point x="575" y="951"/>
      <point x="595" y="906"/>
      <point x="595" y="881" type="qcurve" name="sh02"/>
      <point x="595" y="855"/>
      <point x="575" y="811"/>
      <point x="542" y="777"/>
      <point x="497" y="758"/>
      <point x="472" y="758" type="qcurve" name="sv01"/>
      <point x="446" y="758"/>
      <point x="402" y="777"/>
      <point x="368" y="811"/>
      <point x="349" y="855"/>
    </contour>
  </outline>
</glyph>
<glyph name="math:less" format="2">
  <advance width="1152"/>
  <unicode hex="003C"/>
  <guideline x="0" y="529" angle="330"/>
  <guideline x="0" y="445" angle="30"/>
  <guideline x="0" y="1377" angle="0"/>
  <guideline x="0" y="714" angle="0"/>
  <guideline x="973" y="0" angle="80"/>
  <guideline x="967" y="0" angle="90"/>
  <guideline x="1145" y="0" angle="100"/>
  <outline>
    <contour>
      <point x="418" y="478" type="line" name="iv01"/>
      <point x="1007" y="98" type="line" name="sv01"/>
      <point x="961" y="-30" type="line" name="ab01"/>
      <point x="238" y="436" type="line"/>
      <point x="256" y="538" type="line"/>
      <point x="1143" y="1004" type="line" name="at01"/>
      <point x="1143" y="876" type="line" name="sv02"/>
      <point x="421" y="498" type="line"/>
    </contour>
  </outline>
</glyph>
<glyph name="question" format="2">
  <advance width="1024"/>
  <unicode hex="003F"/>
  <guideline x="0" y="1243" angle="315"/>
  <guideline x="431" y="0" angle="90"/>
  <guideline x="232" y="0" angle="45"/>
  <outline>
    <contour>
      <point x="393" y="1309" type="line" name="hr00"/>
      <point x="579" y="1464"/>
      <point x="798" y="1464" type="qcurve" name="sv01"/>
      <point x="850" y="1464"/>
      <point x="949" y="1434"/>
      <point x="1027" y="1375"/>
      <point x="1074" y="1286"/>
      <point x="1074" y="1228" type="qcurve" name="sh01"/>
      <point x="1074" y="1152" name="hr01"/>
      <point x="999" y="1029" name="hr02"/>
      <point x="886" y="924"/>
      <point x="755" y="830" name="hr03"/>
      <point x="642" y="737"/>
      <point x="567" y="637"/>
      <point x="567" y="578" type="qcurve" name="sh02"/>
      <point x="567" y="547"/>
      <point x="585" y="505"/>
      <point x="614" y="479"/>
      <point x="648" y="467"/>
      <point x="663" y="467" type="qcurve" name="sv04"/>
      <point x="643" y="365" type="line" name="sv03"/>
      <point x="607" y="365"/>
      <point x="535" y="396"/>
      <point x="478" y="451"/>
      <point x="442" y="528"/>
      <point x="442" y="575" type="qcurve" name="ih01"/>
      <point x="442" y="650"/>
      <point x="513" y="770"/>
      <point x="621" y="873"/>
      <point x="745" y="967"/>
      <point x="853" y="1062"/>
      <point x="924" y="1166"/>
      <point x="924" y="1229" type="qcurve" name="ah01"/>
      <point x="924" y="1260"/>
      <point x="899" y="1309"/>
      <point x="857" y="1343"/>
      <point x="801" y="1362"/>
      <point x="770" y="1362" type="qcurve" name="av01"/>
      <point x="726" y="1362"/>
      <point x="650" y="1334"/>
      <point x="582" y="1290"/>
      <point x="522" y="1235"/>
      <point x="495" y="1207" type="qcurve" name="av02"/>
    </contour>
    <contour>
      <point x="417" y="83" type="qcurve" name="dh01"/>
      <point x="417" y="106"/>
      <point x="435" y="147"/>
      <point x="466" y="178"/>
      <point x="507" y="196"/>
      <point x="530" y="196" type="qcurve" name="sv02"/>
      <point x="553" y="196"/>
      <point x="594" y="178"/>
      <point x="625" y="147"/>
      <point x="643" y="106"/>
      <point x="643" y="83" type="qcurve" name="dh02"/>
      <point x="643" y="60"/>
      <point x="625" y="19"/>
      <point x="594" y="-12"/>
      <point x="553" y="-30"/>
      <point x="530" y="-30" type="qcurve" name="ab01"/>
      <point x="507" y="-30"/>
      <point x="466" y="-12"/>
      <point x="435" y="19"/>
      <point x="417" y="60"/>
    </contour>
  </outline>
</glyph>
<glyph name="A" format="2">
  <advance width="1344"/>
  <unicode hex="0041"/>
  <guideline x="62" y="0" angle="60"/>
  <guideline x="190" y="0" angle="60"/>
  <guideline x="1264" y="0" angle="102"/>
  <guideline x="1051" y="0" angle="102"/>
  <anchor x="952" y="1600" name="AccentAbove"/>
  <anchor x="1222" y="1600" name="AccentAboveRight"/>
  <anchor x="1218" y="0" name="AccentAttachedBelow"/>
  <anchor x="642" y="0" name="AccentBelow"/>
  <anchor x="672" y="712" name="AccentOverlay"/>
  <outline>
    <contour>
      <point x="1058" y="-30" type="line" name="sh02"/>
      <point x="974" y="365" type="line" name="av01"/>
      <point x="403" y="365" type="line" name="mh01"/>
      <point x="173" y="-30" type="line" name="sh04"/>
      <point x="59" y="0" type="line" name="sh03"/>
      <point x="908" y="1464" type="line" name="mh02"/>
      <point x="952" y="1464" type="line"/>
      <point x="1264" y="0" type="line" name="sh01"/>
    </contour>
    <contour>
      <point x="814" y="1090" type="line" name="ih01"/>
      <point x="473" y="487" type="line" name="sh05"/>
      <point x="949" y="487" type="line" name="sh06"/>
      <point x="824" y="1090" type="line" name="iv01"/>
    </contour>
  </outline>
</glyph>
<glyph name="latn:B" format="2">
  <advance width="1248"/>
  <unicode hex="0042"/>
  <guideline x="451" y="0" angle="90"/>
  <guideline x="663" y="0" angle="90"/>
  <anchor x="904" y="1600" name="AccentAbove"/>
  <anchor x="1174" y="1600" name="AccentAboveRight"/>
  <anchor x="624" y="0" name="AccentBelow"/>
  <anchor x="624" y="780" name="AccentOverlay"/>
  <outline>
    <contour>
      <point x="434" y="1434" type="line" name="sh02"/>
      <point x="807" y="1434" type="line"/>
      <point x="913" y="1434"/>
      <point x="1085" y="1401"/>
      <point x="1206" y="1333"/>
      <point x="1271" y="1227"/>
      <point x="1271" y="1155" type="qcurve" name="sh05"/>
      <point x="1271" y="1079"/>
      <point x="1208" y="953"/>
      <point x="1118" y="860"/>
      <point x="1020" y="805"/>
      <point x="984" y="800" type="qcurve"/>
      <point x="982" y="790" type="line" name="ih02"/>
      <point x="1018" y="781"/>
      <point x="1109" y="739"/>
      <point x="1190" y="667" name="hr00"/>
      <point x="1245" y="560"/>
      <point x="1245" y="486" type="qcurve" name="sh03"/>
      <point x="1245" y="373"/>
      <point x="1147" y="193"/>
      <point x="970" y="67"/>
      <point x="720" y="0"/>
      <point x="569" y="0" type="qcurve" name="ab01"/>
      <point x="182" y="0" type="line" name="sh01"/>
    </contour>
    <contour>
      <point x="595" y="1312" type="line" name="sv01"/>
      <point x="510" y="839" type="line" name="sh07"/>
      <point x="703" y="839" type="line"/>
      <point x="780" y="839"/>
      <point x="920" y="874"/>
      <point x="1026" y="948"/>
      <point x="1089" y="1062"/>
      <point x="1089" y="1141" type="qcurve" name="ih01"/>
      <point x="1089" y="1231"/>
      <point x="930" y="1312"/>
      <point x="788" y="1312" type="qcurve"/>
    </contour>
    <contour>
      <point x="488" y="717" type="line" name="dv01"/>
      <point x="385" y="122" type="line" name="sh06"/>
      <point x="586" y="122" type="line"/>
      <point x="819" y="122"/>
      <point x="1053" y="313"/>
      <point x="1053" y="489" type="qcurve" name="sh04"/>
      <point x="1053" y="554"/>
      <point x="1004" y="642"/>
      <point x="918" y="695"/>
      <point x="804" y="717"/>
      <point x="739" y="717" type="qcurve"/>
    </contour>
  </outline>
</glyph>
<glyph name="C" format="2">
  <advance width="1344"/>
  <unicode hex="0043"/>
  <guideline x="0" y="717" angle="0"/>
  <guideline x="802" y="0" angle="90"/>
  <guideline x="260" y="0" angle="45"/>
  <guideline x="1535" y="0" angle="135"/>
  <guideline x="1005" y="0" angle="90"/>
  <guideline x="1141" y="0" angle="90"/>
  <anchor x="1052" y="1600" name="AccentAbove"/>
  <anchor x="1322" y="1600" name="AccentAboveRight"/>
  <anchor x="772" y="0" name="AccentBelow"/>
  <anchor x="672" y="0" name="AccentCedilla"/>
  <anchor x="672" y="712" name="AccentOverlay"/>
  <outline>
    <contour>
      <point x="1373" y="1112" type="line" name="ih01"/>
      <point x="1357" y="1149"/>
      <point x="1296" y="1230"/>
      <point x="1205" y="1298"/>
      <point x="1084" y="1342"/>
      <point x="1008" y="1342" type="qcurve" name="sv01"/>
      <point x="939" y="1342"/>
      <point x="793" y="1292"/>
      <point x="655" y="1197"/>
      <point x="532" y="1060"/>
      <point x="440" y="888"/>
      <point x="386" y="684"/>
      <point x="386" y="569" type="qcurve" name="sh02"/>
      <point x="386" y="450"/>
      <point x="454" y="272"/>
      <point x="566" y="152"/>
      <point x="711" y="92"/>
      <point x="788" y="92" type="qcurve" name="sv02"/>
      <point x="864" y="92"/>
      <point x="995" y="137"/>
      <point x="1103" y="205"/>
      <point x="1186" y="286"/>
      <point x="1213" y="322" type="qcurve" name="ah01"/>
      <point x="1330" y="204" type="line" name="ah02"/>
      <point x="1273" y="153"/>
      <point x="1155" y="68"/>
      <point x="1020" y="5"/>
      <point x="862" y="-30"/>
      <point x="766" y="-30" type="qcurve" name="ab01"/>
      <point x="649" y="-30"/>
      <point x="441" y="52"/>
      <point x="285" y="206"/>
      <point x="194" y="427"/>
      <point x="194" y="566" type="qcurve" name="sh01"/>
      <point x="194" y="694"/>
      <point x="257" y="927"/>
      <point x="368" y="1127"/>
      <point x="522" y="1288"/>
      <point x="703" y="1402"/>
      <point x="905" y="1464"/>
      <point x="1010" y="1464" type="qcurve" name="at01"/>
      <point x="1087" y="1464"/>
      <point x="1225" y="1429"/>
      <point x="1345" y="1366"/>
      <point x="1448" y="1281"/>
      <point x="1490" y="1230" type="qcurve"/>
    </contour>
  </outline>
</glyph>
<glyph name="latn:D" format="2">
  <advance width="1504"/>
  <unicode hex="0044"/>
  <anchor x="952" y="1600" name="AccentAbove"/>
  <anchor x="1222" y="1600" name="AccentAboveRight"/>
  <anchor x="624" y="0" name="AccentBelow"/>
  <anchor x="452" y="0" name="AccentCedilla"/>
  <anchor x="772" y="712" name="AccentOverlay"/>
  <outline>
    <contour>
      <point x="395" y="122" type="line" name="sh02"/>
      <point x="621" y="122" type="line"/>
      <point x="789" y="122"/>
      <point x="1057" y="240"/>
      <point x="1244" y="444"/>
      <point x="1344" y="717"/>
      <point x="1344" y="872" type="qcurve" name="sh04"/>
      <point x="1344" y="986"/>
      <point x="1273" y="1152"/>
      <point x="1139" y="1260"/>
      <point x="946" y="1312"/>
      <point x="824" y="1312" type="qcurve" name="sv01"/>
      <point x="605" y="1312" type="line" name="sh05"/>
    </contour>
    <contour>
      <point x="444" y="1434" type="line" name="sh06"/>
      <point x="871" y="1434" type="line" name="mv01"/>
      <point x="1030" y="1434"/>
      <point x="1278" y="1359"/>
      <point x="1448" y="1216"/>
      <point x="1536" y="1009"/>
      <point x="1536" y="877" type="qcurve" name="sh03"/>
      <point x="1536" y="760"/>
      <point x="1474" y="540"/>
      <point x="1359" y="345"/>
      <point x="1196" y="182"/>
      <point x="994" y="65"/>
      <point x="759" y="0"/>
      <point x="629" y="0" type="qcurve" name="mv02"/>
      <point x="192" y="0" type="line" name="sh01"/>
    </contour>
  </outline>
</glyph>
<glyph name="latn:F" format="2">
  <advance width="1088"/>
  <unicode hex="0046"/>
  <guideline x="947" y="0" angle="90"/>
  <guideline x="733" y="0" angle="80"/>
  <anchor x="904" y="1600" name="AccentAbove"/>
  <anchor x="1174" y="1600" name="AccentAboveRight"/>
  <anchor x="624" y="0" name="AccentBelow"/>
  <anchor x="624" y="780" name="AccentOverlay"/>
  <outline>
    <contour>
      <point x="434" y="1434" type="line" name="sh02"/>
      <point x="1213" y="1434" type="line"/>
      <point x="1188" y="1292" type="line" name="sv01"/>
      <point x="595" y="1312" type="line"/>
      <point x="511" y="839" type="line" name="sh04"/>
      <point x="1005" y="839" type="line" name="dv02"/>
      <point x="983" y="717" type="line" name="dv01"/>
      <point x="490" y="717" type="line"/>
      <point x="364" y="0" type="line" name="sh03"/>
      <point x="182" y="0" type="line" name="sh01"/>
    </contour>
  </outline>
</glyph>
<glyph name="G" format="2">
  <advance width="1600"/>
  <unicode hex="0047"/>
  <guideline x="0" y="-406" angle="45"/>
  <guideline x="865" y="0" angle="90"/>
  <guideline x="886" y="0" angle="80"/>
  <anchor x="864" y="0" name="AccentBelow"/>
  <anchor x="864" y="1600" name="AccentDefault"/>
  <anchor x="800" y="670" name="AccentMiddle"/>
  <outline>
    <contour>
      <point x="1012" y="717" type="line" name="hr00"/>
      <point x="1546" y="717" type="line" name="sv01"/>
      <point x="1456" y="206" type="line" name="sh01"/>
      <point x="1328" y="86"/>
      <point x="1024" y="-30"/>
      <point x="857" y="-30" type="qcurve" name="ab01"/>
      <point x="725" y="-30"/>
      <point x="492" y="57"/>
      <point x="316" y="217"/>
      <point x="214" y="443"/>
      <point x="214" y="582" type="qcurve" name="sh02"/>
      <point x="214" y="705"/>
      <point x="281" y="932"/>
      <point x="402" y="1128"/>
      <point x="570" y="1288"/>
      <point x="769" y="1402"/>
      <point x="994" y="1464"/>
      <point x="1112" y="1464" type="qcurve" name="at01"/>
      <point x="1200" y="1464"/>
      <point x="1362" y="1427"/>
      <point x="1498" y="1364"/>
      <point x="1604" y="1279"/>
      <point x="1636" y="1230" type="qcurve" name="av01"/>
      <point x="1518" y="1112" type="line" name="sh03"/>
      <point x="1489" y="1159"/>
      <point x="1410" y="1243"/>
      <point x="1306" y="1306"/>
      <point x="1178" y="1342"/>
      <point x="1101" y="1342" type="qcurve" name="sv03"/>
      <point x="1019" y="1342"/>
      <point x="853" y="1289"/>
      <point x="698" y="1192"/>
      <point x="563" y="1056"/>
      <point x="464" y="891"/>
      <point x="406" y="700"/>
      <point x="406" y="596" type="qcurve" name="sh04"/>
      <point x="406" y="488"/>
      <point x="475" y="303"/>
      <point x="600" y="168"/>
      <point x="774" y="92"/>
      <point x="879" y="92" type="qcurve" name="sv02"/>
      <point x="936" y="92"/>
      <point x="1050" y="113"/>
      <point x="1155" y="149"/>
      <point x="1245" y="198"/>
      <point x="1278" y="227" type="qcurve" name="sh05"/>
      <point x="1342" y="595" type="line" name="iv01"/>
      <point x="991" y="595" type="line" name="ah01"/>
    </contour>
  </outline>
</glyph>
<glyph name="H" format="2">
  <advance width="1504"/>
  <unicode hex="0048"/>
  <anchor x="1032" y="1600" name="AccentAbove"/>
  <anchor x="1302" y="1600" name="AccentAboveRight"/>
  <anchor x="752" y="0" name="AccentBelow"/>
  <anchor x="268" y="0" name="AccentCedilla"/>
  <anchor x="752" y="670" name="AccentOverlay"/>
  <outline>
    <contour>
      <point x="622" y="1464" type="line" name="sh03"/>
      <point x="511" y="839" type="line"/>
      <point x="1287" y="839" type="line" name="dv02"/>
      <point x="1392" y="1434" type="line" name="sh05"/>
      <point x="1580" y="1464" type="line" name="sh04"/>
      <point x="1322" y="0" type="line" name="dh01"/>
      <point x="1140" y="0" type="line" name="dh02"/>
      <point x="1266" y="717" type="line" name="dv01"/>
      <point x="490" y="717" type="line"/>
      <point x="364" y="0" type="line" name="sh02"/>
      <point x="182" y="0" type="line" name="sh01"/>
      <point x="434" y="1434" type="line" name="sh06"/>
    </contour>
  </outline>
</glyph>
<glyph name="I" format="2">
  <advance width="576"/>
  <unicode hex="0049"/>
  <guideline x="-77" y="0" angle="83"/>
  <anchor x="288" y="0" name="AccentBelow"/>
  <anchor x="288" y="1600" name="AccentDefault"/>
  <anchor x="288" y="712" name="AccentMiddle"/>
  <anchor x="50" y="0" name="AccentOgonek"/>
  <outline>
    <contour>
      <point x="637" y="1464" type="line" name="sh03"/>
      <point x="379" y="0" type="line" name="sh04"/>
      <point x="197" y="0" type="line" name="sh01"/>
      <point x="449" y="1434" type="line" name="sh02"/>
    </contour>
  </outline>
</glyph>
<glyph name="latn:J" format="2">
  <advance width="736"/>
  <unicode hex="004A"/>
  <guideline x="16" y="0" angle="90"/>
  <guideline x="376" y="0" angle="80"/>
  <anchor x="732" y="1600" name="AccentAbove"/>
  <anchor x="802" y="1600" name="AccentAboveRight"/>
  <anchor x="288" y="0" name="AccentBelow"/>
  <anchor x="452" y="712" name="AccentOverlay"/>
  <outline>
    <contour>
      <point x="629" y="1433" type="line" name="sh01"/>
      <point x="817" y="1463" type="line" name="sh02"/>
      <point x="646" y="492" type="line" name="dh02"/>
      <point x="626" y="380"/>
      <point x="559" y="216"/>
      <point x="468" y="100"/>
      <point x="356" y="27"/>
      <point x="229" y="-15"/>
      <point x="90" y="-30"/>
      <point x="16" y="-30" type="qcurve" name="sh03"/>
      <point x="41" y="112" type="line" name="sv01"/>
      <point x="101" y="112"/>
      <point x="232" y="137"/>
      <point x="348" y="210"/>
      <point x="437" y="346"/>
      <point x="457" y="457" type="qcurve" name="dh01"/>
    </contour>
  </outline>
</glyph>
<glyph name="K" format="2">
  <advance width="1344"/>
  <unicode hex="004B"/>
  <guideline x="1069" y="0" angle="128"/>
  <guideline x="1303" y="0" angle="128"/>
  <guideline x="-174" y="0" angle="45"/>
  <guideline x="-356" y="0" angle="45"/>
  <anchor x="952" y="1600" name="AccentAbove"/>
  <anchor x="1222" y="1600" name="AccentAboveRight"/>
  <anchor x="672" y="0" name="AccentBelow"/>
  <anchor x="624" y="712" name="AccentOverlay"/>
  <outline>
    <contour>
      <point x="622" y="1464" type="line" name="sh02"/>
      <point x="492" y="729" type="line"/>
      <point x="502" y="729" type="line"/>
      <point x="1366" y="1464" type="line" name="at01"/>
      <point x="1510" y="1434" type="line" name="at02"/>
      <point x="802" y="829" type="line" name="sv01"/>
      <point x="1303" y="0" type="line" name="dh04"/>
      <point x="1088" y="-30" type="line" name="dh03"/>
      <point x="646" y="698" type="line" name="iv01"/>
      <point x="459" y="539" type="line"/>
      <point x="364" y="0" type="line" name="dh02"/>
      <point x="182" y="0" type="line" name="dh01"/>
      <point x="434" y="1434" type="line" name="sh01"/>
    </contour>
  </outline>
</glyph>
<glyph name="L" format="2">
  <advance width="1088"/>
  <unicode hex="004C"/>
  <guideline x="985" y="0" angle="80"/>
  <anchor x="568" y="1600" name="AccentAbove"/>
  <anchor x="838" y="1600" name="AccentAboveRight"/>
  <anchor x="624" y="0" name="AccentBelow"/>
  <anchor x="288" y="712" name="AccentOverlay"/>
  <outline>
    <contour>
      <point x="622" y="1464" type="line" name="sh03"/>
      <point x="385" y="122" type="line" name="sh04"/>
      <point x="1010" y="142" type="line" name="sv01"/>
      <point x="985" y="0" type="line"/>
      <point x="182" y="0" type="line" name="sh01"/>
      <point x="434" y="1434" type="line" name="sh02"/>
    </contour>
  </outline>
</glyph>
<glyph name="latn:M" format="2">
  <advance width="1824"/>
  <unicode hex="004D"/>
  <guideline x="0" y="1061" angle="0"/>
  <guideline x="823" y="0" angle="112"/>
  <guideline x="1036" y="0" angle="112"/>
  <guideline x="913" y="0" angle="68"/>
  <guideline x="782" y="0" angle="68"/>
  <guideline x="1735" y="0" angle="100"/>
  <guideline x="207" y="0" angle="80"/>
  <guideline x="1529" y="0" angle="100"/>
  <guideline x="82" y="0" angle="80"/>
  <anchor x="1194" y="1600" name="AccentAbove"/>
  <anchor x="1928" y="1600" name="AccentAboveRight"/>
  <anchor x="914" y="0" name="AccentBelow"/>
  <anchor x="864" y="712" name="AccentOverlay"/>
  <outline>
    <contour>
      <point x="591" y="1061" type="line" name="iv01"/>
      <point x="581" y="1061" type="line"/>
      <point x="196" y="-30" type="line" name="sh02"/>
      <point x="82" y="0" type="line" name="sh01"/>
      <point x="587" y="1434" type="line"/>
      <point x="702" y="1464" type="line" name="at01"/>
      <point x="954" y="314" type="line" name="iv02"/>
      <point x="964" y="314" type="line"/>
      <point x="1612" y="1464" type="line" name="at02"/>
      <point x="1722" y="1434" type="line"/>
      <point x="1722" y="0" type="line" name="dh02"/>
      <point x="1540" y="0" type="line" name="dh01"/>
      <point x="1540" y="1061" type="line" name="iv03"/>
      <point x="1530" y="1061" type="line"/>
      <point x="894" y="-30" type="line" name="ab01"/>
      <point x="829" y="-30" type="line"/>
    </contour>
  </outline>
</glyph>
<glyph name="P" format="2">
  <advance width="1152"/>
  <unicode hex="0050"/>
  <guideline x="1326" y="0" angle="90"/>
  <anchor x="576" y="0" name="AccentBelow"/>
  <anchor x="576" y="1600" name="AccentDefault"/>
  <anchor x="576" y="712" name="AccentMiddle"/>
  <outline>
    <contour>
      <point x="434" y="1434" type="line" name="sh02"/>
      <point x="826" y="1434" type="line"/>
      <point x="950" y="1434"/>
      <point x="1120" y="1374"/>
      <point x="1225" y="1273"/>
      <point x="1271" y="1140"/>
      <point x="1271" y="1068" type="qcurve" name="sh03"/>
      <point x="1271" y="1003"/>
      <point x="1221" y="873"/>
      <point x="1128" y="755"/>
      <point x="998" y="653"/>
      <point x="837" y="578"/>
      <point x="650" y="535"/>
      <point x="548" y="535" type="qcurve" name="av01"/>
      <point x="458" y="535" type="line" name="mh01"/>
      <point x="364" y="0" type="line" name="sh04"/>
      <point x="182" y="0" type="line" name="sh01"/>
    </contour>
    <contour>
      <point x="595" y="1312" type="line" name="mh02"/>
      <point x="479" y="657" type="line" name="sh05"/>
      <point x="545" y="657" type="line" name="sv01"/>
      <point x="644" y="657"/>
      <point x="835" y="713"/>
      <point x="986" y="817"/>
      <point x="1079" y="964"/>
      <point x="1079" y="1055" type="qcurve" name="ah01"/>
      <point x="1079" y="1175"/>
      <point x="927" y="1312"/>
      <point x="781" y="1312" type="qcurve"/>
    </contour>
  </outline>
</glyph>
<glyph name="Q" format="2">
  <advance width="1600"/>
  <unicode hex="0051"/>
  <guideline x="0" y="-164" angle="0"/>
  <guideline x="1068" y="0" angle="90"/>
  <guideline x="1703" y="0" angle="45"/>
  <anchor x="1080" y="1600" name="AccentAbove"/>
  <anchor x="1350" y="1600" name="AccentAboveRight"/>
  <anchor x="800" y="0" name="AccentBelow"/>
  <anchor x="800" y="712" name="AccentOverlay"/>
  <outline>
    <contour>
      <point x="1058" y="1464" type="qcurve" name="at01"/>
      <point x="1175" y="1464"/>
      <point x="1386" y="1381"/>
      <point x="1545" y="1226"/>
      <point x="1639" y="1003"/>
      <point x="1639" y="864" type="qcurve" name="sh01"/>
      <point x="1639" y="724"/>
      <point x="1549" y="463"/>
      <point x="1396" y="245"/>
      <point x="1196" y="80"/>
      <point x="1086" y="36" type="qcurve" name="iv01"/>
      <point x="1084" y="26" type="line"/>
      <point x="1166" y="5"/>
      <point x="1285" y="-54"/>
      <point x="1371" y="-127"/>
      <point x="1427" y="-211"/>
      <point x="1446" y="-257" type="qcurve" name="sh03"/>
      <point x="1315" y="-388" type="line" name="sh04"/>
      <point x="1298" y="-349"/>
      <point x="1258" y="-266"/>
      <point x="1202" y="-187"/>
      <point x="1126" y="-115"/>
      <point x="1021" y="-62"/>
      <point x="884" y="-30"/>
      <point x="794" y="-30" type="qcurve" name="ab01"/>
      <point x="677" y="-30"/>
      <point x="466" y="53"/>
      <point x="307" y="208"/>
      <point x="213" y="430"/>
      <point x="213" y="570" type="qcurve" name="sh05"/>
      <point x="213" y="698"/>
      <point x="280" y="931"/>
      <point x="398" y="1130"/>
      <point x="559" y="1290"/>
      <point x="747" y="1403"/>
      <point x="954" y="1464"/>
    </contour>
    <contour>
      <point x="1036" y="1342" type="qcurve" name="sv02"/>
      <point x="960" y="1342"/>
      <point x="807" y="1291"/>
      <point x="667" y="1195"/>
      <point x="546" y="1057"/>
      <point x="456" y="884"/>
      <point x="405" y="679"/>
      <point x="405" y="564" type="qcurve" name="sh06"/>
      <point x="405" y="444"/>
      <point x="476" y="266"/>
      <point x="591" y="149"/>
      <point x="739" y="92"/>
      <point x="816" y="92" type="qcurve" name="sv01"/>
      <point x="887" y="92"/>
      <point x="1036" y="143"/>
      <point x="1176" y="239"/>
      <point x="1300" y="377"/>
      <point x="1393" y="550"/>
      <point x="1447" y="755"/>
      <point x="1447" y="870" type="qcurve" name="sh02"/>
      <point x="1447" y="990"/>
      <point x="1376" y="1167"/>
      <point x="1261" y="1284"/>
      <point x="1113" y="1342"/>
    </contour>
  </outline>
</glyph>
<glyph name="T" format="2">
  <advance width="1152"/>
  <unicode hex="0054"/>
  <guideline x="0" y="1116" angle="0"/>
  <guideline x="1119" y="0" angle="80"/>
  <guideline x="31" y="0" angle="80"/>
  <guideline x="576" y="0" angle="90"/>
  <guideline x="35" y="0" angle="90"/>
  <guideline x="57" y="0" angle="90"/>
  <anchor x="576" y="0" name="AccentBelow"/>
  <anchor x="554" y="0" name="AccentCedilla"/>
  <anchor x="576" y="1600" name="AccentDefault"/>
  <anchor x="576" y="712" name="AccentMiddle"/>
  <outline>
    <contour>
      <point x="284" y="1434" type="line" name="at01"/>
      <point x="1372" y="1434" type="line"/>
      <point x="1347" y="1292" type="line" name="sv01"/>
      <point x="898" y="1312" type="line" name="sh02"/>
      <point x="667" y="0" type="line" name="dh02"/>
      <point x="485" y="0" type="line" name="dh01"/>
      <point x="716" y="1312" type="line" name="sh01"/>
      <point x="259" y="1292" type="line" name="mh01"/>
    </contour>
  </outline>
</glyph>
<glyph name="U" format="2">
  <advance width="1504"/>
  <unicode hex="0055"/>
  <guideline x="0" y="562" angle="0"/>
  <guideline x="780" y="0" angle="90"/>
  <anchor x="1052" y="1600" name="AccentAbove"/>
  <anchor x="1322" y="1600" name="AccentAboveRight"/>
  <anchor x="868" y="0" name="AccentAttachedBelow"/>
  <anchor x="772" y="0" name="AccentBelow"/>
  <anchor x="800" y="712" name="AccentOverlay"/>
  <outline>
    <contour>
      <point x="622" y="1464" type="line" name="sh03"/>
      <point x="463" y="562" type="line" name="sh04"/>
      <point x="458" y="535"/>
      <point x="452" y="495"/>
      <point x="448" y="462"/>
      <point x="447" y="434"/>
      <point x="447" y="418" type="qcurve"/>
      <point x="447" y="324"/>
      <point x="504" y="199"/>
      <point x="599" y="124"/>
      <point x="722" y="92"/>
      <point x="788" y="92" type="qcurve" name="sv01"/>
      <point x="870" y="92"/>
      <point x="1032" y="137"/>
      <point x="1170" y="242"/>
      <point x="1272" y="414"/>
      <point x="1295" y="542" type="qcurve" name="sh06"/>
      <point x="1458" y="1464" type="line" name="sh07"/>
      <point x="1575" y="1434" type="line" name="sh08"/>
      <point x="1421" y="562" type="line" name="sh05"/>
      <point x="1394" y="410"/>
      <point x="1273" y="187"/>
      <point x="1098" y="41"/>
      <point x="875" y="-30"/>
      <point x="746" y="-30" type="qcurve" name="ab01"/>
      <point x="635" y="-30"/>
      <point x="457" y="22"/>
      <point x="333" y="129"/>
      <point x="266" y="293"/>
      <point x="266" y="404" type="qcurve"/>
      <point x="266" y="421"/>
      <point x="267" y="454"/>
      <point x="270" y="490"/>
      <point x="276" y="533"/>
      <point x="281" y="562" type="qcurve" name="sh01"/>
      <point x="434" y="1434" type="line" name="sh02"/>
    </contour>
  </outline>
</glyph>
<glyph name="V" format="2">
  <advance width="1248"/>
  <unicode hex="0056"/>
  <guideline x="564" y="0" angle="70"/>
  <guideline x="687" y="0" angle="70"/>
  <guideline x="564" y="0" angle="110"/>
  <guideline x="770" y="0" angle="110"/>
  <anchor x="624" y="0" name="AccentBelow"/>
  <anchor x="624" y="1600" name="AccentDefault"/>
  <anchor x="624" y="712" name="AccentMiddle"/>
  <outline>
    <contour>
      <point x="706" y="283" type="line" name="hr00"/>
      <point x="716" y="283" type="line"/>
      <point x="1348" y="1464" type="line" name="dh03"/>
      <point x="1462" y="1434" type="line" name="dh04"/>
      <point x="687" y="0" type="line" name="ab01"/>
      <point x="564" y="0" type="line"/>
      <point x="294" y="1434" type="line" name="dh02"/>
      <point x="500" y="1464" type="line" name="dh01"/>
    </contour>
  </outline>
</glyph>
<glyph name="X" format="2">
  <advance width="1248"/>
  <unicode hex="0058"/>
  <guideline x="0" y="725" angle="0"/>
  <guideline x="218" y="0" angle="58"/>
  <guideline x="72" y="0" angle="58"/>
  <guideline x="1187" y="0" angle="122"/>
  <guideline x="968" y="0" angle="122"/>
  <guideline x="72" y="0" angle="90"/>
  <guideline x="986" y="0" angle="90"/>
  <anchor x="904" y="1600" name="AccentAbove"/>
  <anchor x="1174" y="1600" name="AccentAboveRight"/>
  <anchor x="624" y="0" name="AccentBelow"/>
  <anchor x="624" y="712" name="AccentOverlay"/>
  <outline>
    <contour>
      <point x="698" y="600" type="line" name="hr00"/>
      <point x="193" y="-30" type="line" name="dh07"/>
      <point x="72" y="0" type="line" name="dh08"/>
      <point x="646" y="717" type="line"/>
      <point x="324" y="1434" type="line" name="dh01"/>
      <point x="530" y="1464" type="line" name="dh02"/>
      <point x="777" y="892" type="line"/>
      <point x="787" y="892" type="line"/>
      <point x="1245" y="1464" type="line" name="dh05"/>
      <point x="1366" y="1434" type="line" name="dh06"/>
      <point x="838" y="775" type="line"/>
      <point x="1186" y="0" type="line" name="dh04"/>
      <point x="980" y="-30" type="line" name="dh03"/>
      <point x="708" y="600" type="line"/>
    </contour>
  </outline>
</glyph>
<glyph name="Z" format="2">
  <advance width="1248"/>
  <unicode hex="005A"/>
  <guideline x="0" y="1283" angle="3"/>
  <guideline x="29" y="0" angle="56"/>
  <guideline x="239" y="0" angle="56"/>
  <guideline x="-60" y="0" angle="80"/>
  <guideline x="1168" y="0" angle="80"/>
  <guideline x="1167" y="0" angle="90"/>
  <guideline x="1193" y="0" angle="90"/>
  <anchor x="952" y="1600" name="AccentAbove"/>
  <anchor x="1222" y="1600" name="AccentAboveRight"/>
  <anchor x="672" y="0" name="AccentBelow"/>
  <anchor x="642" y="712" name="AccentOverlay"/>
  <outline>
    <contour>
      <point x="420" y="1434" type="line" name="at01"/>
      <point x="1445" y="1434" type="line"/>
      <point x="1442" y="1414" type="line"/>
      <point x="351" y="132" type="line"/>
      <point x="349" y="122" type="line" name="sv01"/>
      <point x="1194" y="143" type="line" name="sv02"/>
      <point x="1168" y="0" type="line" name="ab01"/>
      <point x="42" y="0" type="line"/>
      <point x="45" y="20" type="line"/>
      <point x="1136" y="1302" type="line"/>
      <point x="1138" y="1312" type="line" name="sv03"/>
      <point x="395" y="1292" type="line" name="mh01"/>
    </contour>
  </outline>
</glyph>
<glyph name="bracketleft" format="2">
  <advance width="736"/>
  <unicode hex="005B"/>
  <guideline x="360" y="0" angle="80"/>
  <guideline x="653" y="0" angle="80"/>
  <guideline x="654" y="0" angle="90"/>
  <outline>
    <contour>
      <point x="532" y="1464" type="line" name="at01"/>
      <point x="911" y="1464" type="line" name="ah01"/>
      <point x="893" y="1362" type="line" name="sv01"/>
      <point x="656" y="1362" type="line" name="sh01"/>
      <point x="384" y="-176" type="line" name="dh02"/>
      <point x="622" y="-176" type="line" name="ah02"/>
      <point x="604" y="-278" type="line" name="sv02"/>
      <point x="224" y="-278" type="line" name="dh01"/>
    </contour>
  </outline>
</glyph>
<glyph name="sign:backslash" format="2">
  <advance width="576"/>
  <unicode hex="005C"/>
  <guideline x="640" y="0" angle="112"/>
  <outline>
    <contour>
      <point x="347" y="1586" type="line" name="hr00"/>
      <point x="602" y="-134" type="line" name="dh02"/>
      <point x="481" y="-152" type="line" name="dh01"/>
      <point x="226" y="1569" type="line"/>
    </contour>
  </outline>
</glyph>
<glyph name="bracketright" format="2">
  <advance width="736"/>
  <unicode hex="005D"/>
  <guideline x="81" y="0" angle="80"/>
  <outline>
    <contour>
      <point x="339" y="1464" type="line" name="at01"/>
      <point x="720" y="1464" type="line" name="dh02"/>
      <point x="412" y="-278" type="line" name="dv01"/>
      <point x="32" y="-278" type="line"/>
      <point x="50" y="-176" type="line" name="ah02"/>
      <point x="288" y="-176" type="line" name="sh01"/>
      <point x="560" y="1362" type="line" name="dh01"/>
      <point x="321" y="1362" type="line" name="ah01"/>
    </contour>
  </outline>
</glyph>
<glyph name="asciicircum" format="2">
  <advance width="1248"/>
  <unicode hex="005E"/>
  <guideline x="0" y="380" angle="10"/>
  <guideline x="624" y="0" angle="90"/>
  <guideline x="-285" y="0" angle="60"/>
  <guideline x="1533" y="0" angle="120"/>
  <outline>
    <contour>
      <point x="795" y="1434" type="line" name="at01"/>
      <point x="957" y="1434" type="line"/>
      <point x="1289" y="607" type="line" name="ah02"/>
      <point x="1147" y="583" type="line" name="av01"/>
      <point x="863" y="1301" type="line" name="sv01"/>
      <point x="843" y="1301" type="line"/>
      <point x="305" y="583" type="line" name="av02"/>
      <point x="173" y="607" type="line" name="ah01"/>
    </contour>
  </outline>
</glyph>
<glyph name="grave" format="2">
  <advance width="768"/>
  <unicode hex="0060"/>
  <guideline x="0" y="1683" angle="0"/>
  <guideline x="0" y="1376" angle="45"/>
  <guideline x="1736" y="0" angle="135"/>
  <guideline x="91" y="0" angle="90"/>
  <guideline x="-681" y="0" angle="45"/>
  <guideline x="1518" y="0" angle="135"/>
  <outline>
    <contour>
      <point x="684" y="1116" type="line" name="av01"/>
      <point x="318" y="1404" type="line"/>
      <point x="318" y="1434" type="line"/>
      <point x="400" y="1521" type="line"/>
      <point x="430" y="1521" type="line" name="sv01"/>
      <point x="741" y="1176" type="line"/>
    </contour>
  </outline>
</glyph>
<glyph name="latn:a" format="2">
  <advance width="1120"/>
  <unicode hex="0061"/>
  <guideline x="0" y="464" angle="6"/>
  <guideline x="447" y="0" angle="100"/>
  <guideline x="331" y="0" angle="90"/>
  <guideline x="717" y="0" angle="80"/>
  <anchor x="812" y="1100" name="AccentAbove"/>
  <anchor x="1082" y="1100" name="AccentAboveRight"/>
  <anchor x="968" y="0" name="AccentAttachedBelow"/>
  <anchor x="560" y="0" name="AccentBelow"/>
  <anchor x="560" y="486" name="AccentOverlay"/>
  <outline>
    <contour>
      <point x="302" y="849" type="line" name="ih01"/>
      <point x="398" y="925"/>
      <point x="612" y="1004"/>
      <point x="742" y="1004" type="qcurve" name="at01"/>
      <point x="808" y="1004"/>
      <point x="932" y="969"/>
      <point x="1026" y="894"/>
      <point x="1083" y="775"/>
      <point x="1083" y="690" type="qcurve"/>
      <point x="1083" y="668"/>
      <point x="1080" y="622"/>
      <point x="1075" y="597" type="qcurve" name="sh04"/>
      <point x="1000" y="174" type="line" name="sh05"/>
      <point x="997" y="154"/>
      <point x="997" y="139" type="qcurve"/>
      <point x="997" y="72"/>
      <point x="1060" y="72" type="qcurve" name="sh03"/>
      <point x="1042" y="-30" type="line" name="ab01"/>
      <point x="948" y="-30" name="hr00"/>
      <point x="848" y="49"/>
      <point x="843" y="142" type="qcurve"/>
      <point x="833" y="142" type="line"/>
      <point x="804" y="115"/>
      <point x="717" y="55"/>
      <point x="611" y="4"/>
      <point x="490" y="-30"/>
      <point x="429" y="-30" type="qcurve" name="ab02"/>
      <point x="372" y="-30"/>
      <point x="273" y="4"/>
      <point x="200" y="65"/>
      <point x="159" y="149"/>
      <point x="159" y="199" type="qcurve" name="sh01"/>
      <point x="159" y="303"/>
      <point x="272" y="451"/>
      <point x="473" y="545"/>
      <point x="749" y="589"/>
      <point x="911" y="589" type="qcurve" name="sh06"/>
      <point x="920" y="637" type="line"/>
      <point x="927" y="675"/>
      <point x="927" y="707" type="qcurve"/>
      <point x="927" y="765"/>
      <point x="889" y="840"/>
      <point x="831" y="884"/>
      <point x="758" y="902"/>
      <point x="724" y="902" type="qcurve" name="sv01"/>
      <point x="676" y="902"/>
      <point x="590" y="879"/>
      <point x="512" y="838"/>
      <point x="439" y="781"/>
      <point x="404" y="747" type="qcurve" name="iv01"/>
    </contour>
    <contour>
      <point x="897" y="507" type="line" name="sv02"/>
      <point x="842" y="507"/>
      <point x="715" y="500"/>
      <point x="588" y="479"/>
      <point x="470" y="440"/>
      <point x="379" y="375"/>
      <point x="324" y="282"/>
      <point x="324" y="217" type="qcurve" name="sh02"/>
      <point x="324" y="153"/>
      <point x="406" y="72"/>
      <point x="484" y="72" type="qcurve" name="sv03"/>
      <point x="535" y="72"/>
      <point x="637" y="104"/>
      <point x="732" y="157"/>
      <point x="818" y="226"/>
      <point x="854" y="263" type="qcurve" name="sh07"/>
    </contour>
  </outline>
</glyph>
<glyph name="latn:b" format="2">
  <advance width="1120"/>
  <unicode hex="0062"/>
  <guideline x="539" y="0" angle="90"/>
  <anchor x="874" y="1600" name="AccentAbove"/>
  <anchor x="944" y="1400" name="AccentAboveRight"/>
  <anchor x="560" y="0" name="AccentBelow"/>
  <anchor x="594" y="486" name="AccentOverlay"/>
  <outline>
    <contour>
      <point x="337" y="190" type="line" name="sh02"/>
      <point x="376" y="139"/>
      <point x="504" y="72"/>
      <point x="584" y="72" type="qcurve" name="sv01"/>
      <point x="644" y="72"/>
      <point x="779" y="141"/>
      <point x="894" y="273"/>
      <point x="970" y="467"/>
      <point x="970" y="592" type="qcurve" name="sh04"/>
      <point x="970" y="666"/>
      <point x="930" y="782"/>
      <point x="862" y="861"/>
      <point x="772" y="902"/>
      <point x="721" y="902" type="qcurve" name="sv02"/>
      <point x="674" y="902"/>
      <point x="593" y="881"/>
      <point x="523" y="847"/>
      <point x="465" y="806"/>
      <point x="442" y="785" type="qcurve"/>
    </contour>
    <contour>
      <point x="400" y="1464" type="line" name="sh05"/>
      <point x="537" y="1494" type="line"/>
      <point x="567" y="1494" type="line" name="sh06"/>
      <point x="463" y="902" type="line" name="sh07"/>
      <point x="473" y="902" type="line"/>
      <point x="498" y="921"/>
      <point x="565" y="958"/>
      <point x="642" y="987"/>
      <point x="726" y="1004"/>
      <point x="770" y="1004" type="qcurve" name="at01"/>
      <point x="851" y="1004"/>
      <point x="987" y="945"/>
      <point x="1086" y="838"/>
      <point x="1142" y="687"/>
      <point x="1142" y="596" type="qcurve" name="sh03"/>
      <point x="1142" y="499"/>
      <point x="1097" y="331"/>
      <point x="1018" y="192"/>
      <point x="911" y="84"/>
      <point x="785" y="9"/>
      <point x="646" y="-30"/>
      <point x="576" y="-30" type="qcurve" name="ab01"/>
      <point x="475" y="-30"/>
      <point x="280" y="74"/>
      <point x="175" y="190" type="qcurve" name="sh01"/>
    </contour>
  </outline>
</glyph>
<glyph name="latn:c" format="2">
  <advance width="1024"/>
  <unicode hex="0063"/>
  <guideline x="1107" y="0" angle="135"/>
  <guideline x="243" y="0" angle="45"/>
  <guideline x="942" y="0" angle="90"/>
  <guideline x="840" y="0" angle="90"/>
  <anchor x="812" y="1100" name="AccentAbove"/>
  <anchor x="1082" y="1100" name="AccentAboveRight"/>
  <anchor x="560" y="0" name="AccentBelow"/>
  <anchor x="512" y="0" name="AccentCedilla"/>
  <anchor x="532" y="486" name="AccentOverlay"/>
  <outline>
    <contour>
      <point x="989" y="747" type="line" name="mh01"/>
      <point x="980" y="768"/>
      <point x="937" y="822"/>
      <point x="873" y="869"/>
      <point x="789" y="902"/>
      <point x="739" y="902" type="qcurve" name="sv01"/>
      <point x="651" y="902"/>
      <point x="501" y="813"/>
      <point x="392" y="667"/>
      <point x="330" y="483"/>
      <point x="330" y="387" type="qcurve" name="sh02"/>
      <point x="330" y="319"/>
      <point x="366" y="203"/>
      <point x="434" y="119"/>
      <point x="531" y="72"/>
      <point x="592" y="72" type="qcurve" name="sv02"/>
      <point x="643" y="72"/>
      <point x="733" y="105"/>
      <point x="807" y="152"/>
      <point x="863" y="206"/>
      <point x="880" y="227" type="qcurve" name="mh02"/>
      <point x="982" y="125" type="line" name="ah02"/>
      <point x="950" y="96"/>
      <point x="869" y="41"/>
      <point x="767" y="-3"/>
      <point x="646" y="-30"/>
      <point x="574" y="-30" type="qcurve" name="ab01"/>
      <point x="479" y="-30"/>
      <point x="326" y="31"/>
      <point x="217" y="142"/>
      <point x="158" y="294"/>
      <point x="158" y="386" type="qcurve" name="sh01"/>
      <point x="158" y="470"/>
      <point x="200" y="627"/>
      <point x="276" y="765"/>
      <point x="382" y="878"/>
      <point x="511" y="959"/>
      <point x="658" y="1004"/>
      <point x="737" y="1004" type="qcurve" name="at01"/>
      <point x="801" y="1004"/>
      <point x="912" y="976"/>
      <point x="1003" y="932"/>
      <point x="1070" y="877"/>
      <point x="1091" y="849" type="qcurve" name="ah01"/>
    </contour>
  </outline>
</glyph>
<glyph name="latn:e" format="2">
  <advance width="1024"/>
  <unicode hex="0065"/>
  <guideline x="0" y="1517" angle="0"/>
  <guideline x="1098" y="0" angle="135"/>
  <anchor x="812" y="1100" name="AccentAbove"/>
  <anchor x="1082" y="1100" name="AccentAboveRight"/>
  <anchor x="738" y="0" name="AccentAttachedBelow"/>
  <anchor x="560" y="0" name="AccentBelow"/>
  <anchor x="532" y="550" name="AccentOverlay"/>
  <outline>
    <contour>
      <point x="332" y="487" type="line" name="sv01"/>
      <point x="326" y="455"/>
      <point x="321" y="396"/>
      <point x="321" y="369" type="qcurve" name="sh02"/>
      <point x="321" y="288"/>
      <point x="364" y="175"/>
      <point x="437" y="104"/>
      <point x="534" y="72"/>
      <point x="587" y="72" type="qcurve" name="sv02"/>
      <point x="636" y="72"/>
      <point x="723" y="103"/>
      <point x="795" y="149"/>
      <point x="852" y="204"/>
      <point x="871" y="227" type="qcurve"/>
      <point x="973" y="125" type="line" name="ih01"/>
      <point x="953" y="106"/>
      <point x="875" y="53"/>
      <point x="768" y="4"/>
      <point x="637" y="-30"/>
      <point x="564" y="-30" type="qcurve" name="ab01"/>
      <point x="468" y="-30"/>
      <point x="315" y="21"/>
      <point x="207" y="122"/>
      <point x="149" y="272"/>
      <point x="149" y="371" type="qcurve" name="sh01"/>
      <point x="149" y="499"/>
      <point x="238" y="729"/>
      <point x="392" y="902"/>
      <point x="598" y="1004"/>
      <point x="714" y="1004" type="qcurve" name="at01"/>
      <point x="786" y="1004"/>
      <point x="912" y="960"/>
      <point x="1006" y="868"/>
      <point x="1060" y="726"/>
      <point x="1060" y="629" type="qcurve" name="sh03"/>
      <point x="1060" y="597"/>
      <point x="1054" y="525"/>
      <point x="1047" y="487" type="qcurve" name="ih02"/>
    </contour>
    <contour>
      <point x="912" y="589" type="line" name="sh04"/>
      <point x="918" y="620"/>
      <point x="918" y="652" type="qcurve"/>
      <point x="918" y="703"/>
      <point x="888" y="793"/>
      <point x="830" y="862"/>
      <point x="744" y="902"/>
      <point x="688" y="902" type="qcurve" name="sv03"/>
      <point x="626" y="902"/>
      <point x="517" y="853"/>
      <point x="429" y="769"/>
      <point x="366" y="655"/>
      <point x="350" y="589" type="qcurve" name="sh05"/>
    </contour>
  </outline>
</glyph>
<glyph name="latn:g" format="2">
  <advance width="1120"/>
  <unicode hex="0067"/>
  <guideline x="395" y="0" angle="45"/>
  <anchor x="792" y="1100" name="AccentAbove"/>
  <anchor x="1062" y="1100" name="AccentAboveRight"/>
  <anchor x="560" y="-400" name="AccentBelow"/>
  <anchor x="512" y="486" name="AccentOverlay"/>
  <outline>
    <contour>
      <point x="987" y="974" type="line" name="sh03"/>
      <point x="1125" y="1004" type="line" name="at01"/>
      <point x="1155" y="1004" type="line" name="sh04"/>
      <point x="978" y="0" type="line" name="sh01"/>
      <point x="952" y="-146"/>
      <point x="843" y="-335"/>
      <point x="696" y="-446"/>
      <point x="521" y="-490"/>
      <point x="430" y="-490" type="qcurve" name="ab01"/>
      <point x="374" y="-490"/>
      <point x="267" y="-471"/>
      <point x="172" y="-432"/>
      <point x="91" y="-374"/>
      <point x="61" y="-335" type="qcurve" name="av01"/>
      <point x="161" y="-233" type="line" name="sh06"/>
      <point x="209" y="-305"/>
      <point x="356" y="-388"/>
      <point x="448" y="-388" type="qcurve" name="sv01"/>
      <point x="506" y="-388"/>
      <point x="621" y="-350"/>
      <point x="718" y="-266"/>
      <point x="791" y="-134"/>
      <point x="808" y="-40" type="qcurve" name="sh02"/>
      <point x="841" y="142" type="line" name="av02"/>
      <point x="831" y="142" type="line"/>
      <point x="822" y="127"/>
      <point x="768" y="79"/>
      <point x="687" y="33"/>
      <point x="583" y="0"/>
      <point x="523" y="0" type="qcurve" name="ab02"/>
      <point x="452" y="0"/>
      <point x="323" y="55"/>
      <point x="226" y="157"/>
      <point x="169" y="300"/>
      <point x="169" y="389" type="qcurve" name="sh05"/>
      <point x="169" y="471"/>
      <point x="212" y="621"/>
      <point x="288" y="751"/>
      <point x="390" y="857"/>
      <point x="506" y="933"/>
      <point x="633" y="974"/>
      <point x="695" y="974" type="qcurve" name="at02"/>
      <point x="731" y="974"/>
      <point x="804" y="961"/>
      <point x="872" y="933"/>
      <point x="933" y="886"/>
      <point x="956" y="852" type="qcurve"/>
      <point x="966" y="852" type="line"/>
    </contour>
    <contour>
      <point x="947" y="743" type="line"/>
      <point x="908" y="813"/>
      <point x="785" y="872"/>
      <point x="707" y="872" type="qcurve" name="sv02"/>
      <point x="632" y="872"/>
      <point x="499" y="789"/>
      <point x="399" y="652"/>
      <point x="341" y="474"/>
      <point x="341" y="379" type="qcurve" name="sh07"/>
      <point x="341" y="306"/>
      <point x="379" y="201"/>
      <point x="442" y="134"/>
      <point x="525" y="102"/>
      <point x="570" y="102" type="qcurve" name="sv03"/>
      <point x="622" y="102"/>
      <point x="714" y="132"/>
      <point x="789" y="177"/>
      <point x="844" y="230"/>
      <point x="860" y="254" type="qcurve" name="sh08"/>
    </contour>
  </outline>
</glyph>
<glyph name="h" format="2">
  <advance width="1120"/>
  <unicode hex="0068"/>
  <guideline x="1048" y="0" angle="80"/>
  <anchor x="874" y="1600" name="AccentAbove"/>
  <anchor x="944" y="1400" name="AccentAboveRight"/>
  <anchor x="594" y="0" name="AccentBelow"/>
  <anchor x="204" y="0" name="AccentCedilla"/>
  <anchor x="532" y="486" name="AccentOverlay"/>
  <outline>
    <contour>
      <point x="410" y="1464" type="line" name="sh02"/>
      <point x="547" y="1494" type="line"/>
      <point x="577" y="1494" type="line" name="sh03"/>
      <point x="461" y="837" type="line" name="av01"/>
      <point x="471" y="837" type="line"/>
      <point x="549" y="916"/>
      <point x="723" y="1004"/>
      <point x="829" y="1004" type="qcurve" name="at01"/>
      <point x="890" y="1004"/>
      <point x="989" y="972"/>
      <point x="1059" y="911"/>
      <point x="1098" y="821"/>
      <point x="1098" y="764" type="qcurve" name="sh04"/>
      <point x="1098" y="733"/>
      <point x="1092" y="697" type="qcurve"/>
      <point x="1004" y="196" type="line" name="ih01"/>
      <point x="998" y="163"/>
      <point x="998" y="140" type="qcurve"/>
      <point x="998" y="104"/>
      <point x="1028" y="72"/>
      <point x="1060" y="72" type="qcurve" name="sv01"/>
      <point x="1042" y="-30" type="line" name="ab01"/>
      <point x="974" y="-30"/>
      <point x="905" y="-4"/>
      <point x="860" y="43"/>
      <point x="840" y="109"/>
      <point x="840" y="149" type="qcurve"/>
      <point x="840" y="184"/>
      <point x="848" y="227" type="qcurve" name="sh06"/>
      <point x="930" y="697" type="line"/>
      <point x="934" y="720"/>
      <point x="934" y="745" type="qcurve" name="sh05"/>
      <point x="934" y="817"/>
      <point x="852" y="902"/>
      <point x="778" y="902" type="qcurve" name="sv02"/>
      <point x="728" y="902"/>
      <point x="633" y="869"/>
      <point x="546" y="812"/>
      <point x="469" y="738"/>
      <point x="436" y="696" type="qcurve" name="sv03"/>
      <point x="314" y="0" type="line" name="sh07"/>
      <point x="152" y="0" type="line" name="sh01"/>
    </contour>
  </outline>
</glyph>
<glyph name="i" format="2">
  <advance width="576"/>
  <unicode hex="0069"/>
  <guideline x="304" y="0" angle="80"/>
  <guideline x="288" y="0" angle="90"/>
  <anchor x="568" y="1600" name="AccentAbove"/>
  <anchor x="638" y="1200" name="AccentAboveRight"/>
  <anchor x="318" y="0" name="AccentAttachedBelow"/>
  <anchor x="288" y="0" name="AccentBelow"/>
  <anchor x="288" y="486" name="AccentOverlay"/>
  <outline>
    <contour>
      <point x="378" y="974" type="line" name="hr00"/>
      <point x="516" y="1004" type="line" name="at01"/>
      <point x="546" y="1004" type="line"/>
      <point x="369" y="0" type="line" name="dh02"/>
      <point x="207" y="0" type="line" name="dh01"/>
    </contour>
    <contour>
      <point x="415" y="1272" type="qcurve" name="ih01"/>
      <point x="415" y="1312"/>
      <point x="471" y="1368"/>
      <point x="511" y="1368" type="qcurve" name="sv01"/>
      <point x="551" y="1368"/>
      <point x="607" y="1312"/>
      <point x="607" y="1272" type="qcurve" name="sh01"/>
      <point x="607" y="1232"/>
      <point x="551" y="1176"/>
      <point x="511" y="1176" type="qcurve" name="av01"/>
      <point x="471" y="1176"/>
      <point x="415" y="1232"/>
    </contour>
  </outline>
</glyph>
<glyph name="latn:k" format="2">
  <advance width="1024"/>
  <unicode hex="006B"/>
  <guideline x="0" y="75" angle="45"/>
  <guideline x="0" y="232" angle="45"/>
  <guideline x="0" y="613" angle="0"/>
  <guideline x="1009" y="0" angle="130"/>
  <guideline x="810" y="0" angle="130"/>
  <guideline x="1737" y="0" angle="90"/>
  <anchor x="812" y="1600" name="AccentAbove"/>
  <anchor x="882" y="1400" name="AccentAboveRight"/>
  <anchor x="560" y="0" name="AccentBelow"/>
  <anchor x="532" y="486" name="AccentOverlay"/>
  <outline>
    <contour>
      <point x="1009" y="0" type="line" name="dh04"/>
      <point x="819" y="-30" type="line" name="dh03"/>
      <point x="494" y="477" type="line"/>
      <point x="484" y="477" type="line"/>
      <point x="382" y="390" type="line" name="sh01"/>
      <point x="314" y="0" type="line" name="dh01"/>
      <point x="152" y="0" type="line" name="dh02"/>
      <point x="410" y="1464" type="line" name="sh02"/>
      <point x="547" y="1494" type="line"/>
      <point x="577" y="1494" type="line" name="sh03"/>
      <point x="410" y="546" type="line"/>
      <point x="420" y="546" type="line"/>
      <point x="949" y="1004" type="line" name="ih01"/>
      <point x="1070" y="974" type="line" name="at01"/>
      <point x="594" y="571" type="line" name="iv01"/>
    </contour>
  </outline>
</glyph>
<glyph name="latn:m" format="2">
  <advance width="1664"/>
  <unicode hex="006D"/>
  <guideline x="1600" y="0" angle="80"/>
  <anchor x="1112" y="1100" name="AccentAbove"/>
  <anchor x="1582" y="1100" name="AccentAboveRight"/>
  <anchor x="832" y="0" name="AccentBelow"/>
  <anchor x="832" y="486" name="AccentOverlay"/>
  <outline>
    <contour>
      <point x="308" y="944" type="line" name="sh02"/>
      <point x="445" y="974" type="line" name="at01"/>
      <point x="475" y="974" type="line" name="sh03"/>
      <point x="451" y="838" type="line" name="iv01"/>
      <point x="462" y="838" type="line"/>
      <point x="503" y="882"/>
      <point x="581" y="945"/>
      <point x="662" y="985"/>
      <point x="748" y="1004"/>
      <point x="797" y="1004" type="qcurve" name="at02"/>
      <point x="850" y="1004"/>
      <point x="932" y="977"/>
      <point x="992" y="930"/>
      <point x="1031" y="865"/>
      <point x="1040" y="828" type="qcurve" name="sv01"/>
      <point x="1050" y="828" type="line"/>
      <point x="1092" y="872"/>
      <point x="1173" y="938"/>
      <point x="1256" y="982"/>
      <point x="1345" y="1004"/>
      <point x="1396" y="1004" type="qcurve" name="at03"/>
      <point x="1443" y="1004"/>
      <point x="1535" y="976"/>
      <point x="1608" y="918"/>
      <point x="1653" y="831"/>
      <point x="1653" y="772" type="qcurve"/>
      <point x="1653" y="758" name="hr00"/>
      <point x="1651" y="731"/>
      <point x="1648" y="716" type="qcurve" name="sh07"/>
      <point x="1556" y="197" type="line" name="sh04"/>
      <point x="1550" y="165"/>
      <point x="1550" y="141" type="qcurve"/>
      <point x="1550" y="105"/>
      <point x="1580" y="72"/>
      <point x="1612" y="72" type="qcurve" name="sv02"/>
      <point x="1594" y="-30" type="line" name="ab01"/>
      <point x="1392" y="-30"/>
      <point x="1392" y="148" type="qcurve"/>
      <point x="1392" y="166"/>
      <point x="1396" y="205"/>
      <point x="1400" y="227" type="qcurve" name="sh05"/>
      <point x="1482" y="696" type="line" name="sh06"/>
      <point x="1484" y="710"/>
      <point x="1487" y="735"/>
      <point x="1487" y="747" type="qcurve"/>
      <point x="1487" y="820"/>
      <point x="1413" y="902"/>
      <point x="1350" y="902" type="qcurve" name="sv03"/>
      <point x="1306" y="902"/>
      <point x="1225" y="872"/>
      <point x="1149" y="817"/>
      <point x="1074" y="742"/>
      <point x="1035" y="697" type="qcurve" name="sh09"/>
      <point x="913" y="0" type="line" name="sh10"/>
      <point x="751" y="0" type="line" name="ih01"/>
      <point x="877" y="716" type="line" name="sh08"/>
      <point x="880" y="732"/>
      <point x="880" y="750" type="qcurve"/>
      <point x="880" y="779"/>
      <point x="863" y="834"/>
      <point x="829" y="876"/>
      <point x="780" y="902"/>
      <point x="749" y="902" type="qcurve" name="sv04"/>
      <point x="701" y="902"/>
      <point x="618" y="872"/>
      <point x="540" y="817"/>
      <point x="465" y="741"/>
      <point x="426" y="696" type="qcurve" name="sh11"/>
      <point x="304" y="0" type="line" name="sh12"/>
      <point x="142" y="0" type="line" name="sh01"/>
    </contour>
  </outline>
</glyph>
<glyph name="n" format="2">
  <advance width="1120"/>
  <unicode hex="006E"/>
  <guideline x="1047" y="0" angle="80"/>
  <anchor x="904" y="1100" name="AccentAbove"/>
  <anchor x="1174" y="1100" name="AccentAboveRight"/>
  <anchor x="560" y="0" name="AccentBelow"/>
  <anchor x="560" y="486" name="AccentOverlay"/>
  <outline>
    <contour>
      <point x="485" y="974" type="line" name="sh03"/>
      <point x="461" y="837" type="line" name="iv01"/>
      <point x="471" y="837" type="line"/>
      <point x="559" y="925"/>
      <point x="728" y="1004"/>
      <point x="819" y="1004" type="qcurve" name="at01"/>
      <point x="883" y="1004"/>
      <point x="988" y="972"/>
      <point x="1061" y="912"/>
      <point x="1101" y="825"/>
      <point x="1101" y="769" type="qcurve"/>
      <point x="1101" y="755"/>
      <point x="1097" y="723"/>
      <point x="1094" y="707" type="qcurve" name="sh04"/>
      <point x="1004" y="197" type="line" name="ih01"/>
      <point x="998" y="165"/>
      <point x="998" y="141" type="qcurve"/>
      <point x="998" y="105"/>
      <point x="1028" y="72"/>
      <point x="1060" y="72" type="qcurve" name="sh06"/>
      <point x="1042" y="-30" type="line" name="ab01"/>
      <point x="935" y="-30"/>
      <point x="840" y="65"/>
      <point x="840" y="146" type="qcurve"/>
      <point x="840" y="166"/>
      <point x="844" y="206"/>
      <point x="848" y="227" type="qcurve" name="sh07"/>
      <point x="929" y="687" type="line" name="sh05"/>
      <point x="935" y="718"/>
      <point x="935" y="747" type="qcurve"/>
      <point x="935" y="822"/>
      <point x="856" y="902"/>
      <point x="778" y="902" type="qcurve" name="sv01"/>
      <point x="684" y="902"/>
      <point x="518" y="797"/>
      <point x="436" y="697" type="qcurve" name="sh09"/>
      <point x="314" y="0" type="line" name="sh08"/>
      <point x="152" y="0" type="line" name="sh01"/>
      <point x="318" y="944" type="line" name="sh02"/>
      <point x="455" y="974" type="line"/>
    </contour>
  </outline>
</glyph>
<glyph name="latn:o" format="2">
  <advance width="1120"/>
  <unicode hex="006F"/>
  <anchor x="840" y="1100" name="AccentAbove"/>
  <anchor x="1110" y="1100" name="AccentAboveRight"/>
  <anchor x="560" y="0" name="AccentBelow"/>
  <anchor x="560" y="486" name="AccentOverlay"/>
  <outline>
    <contour>
      <point x="737" y="1004" type="qcurve" name="at01"/>
      <point x="830" y="1004"/>
      <point x="980" y="944"/>
      <point x="1086" y="836"/>
      <point x="1143" y="686"/>
      <point x="1143" y="596" type="qcurve" name="sh01"/>
      <point x="1143" y="469"/>
      <point x="1050" y="242"/>
      <point x="889" y="71"/>
      <point x="675" y="-30"/>
      <point x="554" y="-30" type="qcurve" name="ab01"/>
      <point x="460" y="-30"/>
      <point x="309" y="30"/>
      <point x="204" y="139"/>
      <point x="148" y="290"/>
      <point x="148" y="381" type="qcurve" name="sh02"/>
      <point x="148" y="507"/>
      <point x="242" y="734"/>
      <point x="403" y="904"/>
      <point x="617" y="1004"/>
    </contour>
    <contour>
      <point x="719" y="902" type="qcurve" name="sv01"/>
      <point x="634" y="902"/>
      <point x="488" y="811"/>
      <point x="381" y="663"/>
      <point x="320" y="477"/>
      <point x="320" y="381" type="qcurve" name="sh03"/>
      <point x="320" y="314"/>
      <point x="354" y="201"/>
      <point x="418" y="118"/>
      <point x="512" y="72"/>
      <point x="572" y="72" type="qcurve" name="sv02"/>
      <point x="628" y="72"/>
      <point x="730" y="113"/>
      <point x="819" y="185"/>
      <point x="891" y="284"/>
      <point x="943" y="398"/>
      <point x="971" y="524"/>
      <point x="971" y="588" type="qcurve" name="sh04"/>
      <point x="971" y="655"/>
      <point x="937" y="770"/>
      <point x="872" y="854"/>
      <point x="779" y="902"/>
    </contour>
  </outline>
</glyph>
<glyph name="p" format="2">
  <advance width="1120"/>
  <unicode hex="0070"/>
  <guideline x="589" y="0" angle="90"/>
  <anchor x="560" y="-300" name="AccentBelow"/>
  <anchor x="560" y="1100" name="AccentDefault"/>
  <anchor x="560" y="486" name="AccentMiddle"/>
  <outline>
    <contour>
      <point x="475" y="974" type="line" name="at01"/>
      <point x="463" y="902" type="line"/>
      <point x="473" y="902" type="line" name="sv02"/>
      <point x="498" y="921"/>
      <point x="564" y="958"/>
      <point x="641" y="986" name="hr00"/>
      <point x="724" y="1004"/>
      <point x="768" y="1004" type="qcurve" name="at02"/>
      <point x="849" y="1004"/>
      <point x="983" y="946"/>
      <point x="1080" y="840"/>
      <point x="1134" y="691"/>
      <point x="1134" y="600" type="qcurve" name="sh01"/>
      <point x="1134" y="455" name="hr01"/>
      <point x="1033" y="222"/>
      <point x="869" y="58"/>
      <point x="661" y="-30" name="hr02"/>
      <point x="554" y="-30" type="qcurve" name="ab02"/>
      <point x="518" y="-30"/>
      <point x="446" y="-13"/>
      <point x="382" y="16"/>
      <point x="331" y="52"/>
      <point x="316" y="72" type="qcurve" name="sv04"/>
      <point x="222" y="-460" type="line" name="sh03"/>
      <point x="85" y="-490" type="line" name="ab01"/>
      <point x="55" y="-490" type="line" name="sh02"/>
      <point x="308" y="944" type="line" name="sh04"/>
      <point x="445" y="974" type="line"/>
    </contour>
    <contour>
      <point x="337" y="190" type="line"/>
      <point x="376" y="139"/>
      <point x="490" y="72"/>
      <point x="562" y="72" type="qcurve" name="sv03"/>
      <point x="602" y="72"/>
      <point x="692" y="104"/>
      <point x="781" y="165"/>
      <point x="862" y="254"/>
      <point x="925" y="371"/>
      <point x="962" y="513"/>
      <point x="962" y="596" type="qcurve" name="sh05"/>
      <point x="962" y="669"/>
      <point x="924" y="783"/>
      <point x="858" y="861"/>
      <point x="769" y="902"/>
      <point x="719" y="902" type="qcurve" name="sv01"/>
      <point x="672" y="902"/>
      <point x="591" y="881"/>
      <point x="522" y="848"/>
      <point x="465" y="806"/>
      <point x="442" y="785" type="qcurve" name="sh06"/>
    </contour>
  </outline>
</glyph>
<glyph name="latn:q" format="2">
  <advance width="1120"/>
  <unicode hex="0071"/>
  <guideline x="820" y="0" angle="80"/>
  <anchor x="840" y="1100" name="AccentAbove"/>
  <anchor x="1110" y="1100" name="AccentAboveRight"/>
  <anchor x="560" y="-300" name="AccentBelow"/>
  <anchor x="560" y="486" name="AccentOverlay"/>
  <outline>
    <contour>
      <point x="958" y="784" type="line" name="sh03"/>
      <point x="926" y="835"/>
      <point x="799" y="902"/>
      <point x="711" y="902" type="qcurve" name="sv01"/>
      <point x="651" y="902"/>
      <point x="516" y="833"/>
      <point x="401" y="701"/>
      <point x="325" y="507"/>
      <point x="325" y="382" type="qcurve" name="sh05"/>
      <point x="325" y="308"/>
      <point x="365" y="192"/>
      <point x="433" y="113"/>
      <point x="523" y="72"/>
      <point x="574" y="72" type="qcurve" name="sv02"/>
      <point x="620" y="72"/>
      <point x="702" y="93"/>
      <point x="772" y="127"/>
      <point x="830" y="168"/>
      <point x="853" y="189" type="qcurve"/>
    </contour>
    <contour>
      <point x="901" y="-460" type="line" name="sh01"/>
      <point x="764" y="-490" type="line" name="ab01"/>
      <point x="734" y="-490" type="line" name="sh06"/>
      <point x="832" y="72" type="line" name="mh01"/>
      <point x="822" y="72" type="line"/>
      <point x="796" y="52"/>
      <point x="730" y="16"/>
      <point x="653" y="-13"/>
      <point x="568" y="-30"/>
      <point x="525" y="-30" type="qcurve" name="ab02"/>
      <point x="444" y="-30"/>
      <point x="308" y="29"/>
      <point x="209" y="136"/>
      <point x="153" y="286"/>
      <point x="153" y="378" type="qcurve" name="sh04"/>
      <point x="153" y="475"/>
      <point x="198" y="643"/>
      <point x="277" y="782"/>
      <point x="384" y="890"/>
      <point x="510" y="965"/>
      <point x="649" y="1004"/>
      <point x="719" y="1004" type="qcurve" name="at01"/>
      <point x="828" y="1004"/>
      <point x="1030" y="900"/>
      <point x="1120" y="784" type="qcurve" name="sh02"/>
    </contour>
  </outline>
</glyph>
<glyph name="latn:r" format="2">
  <advance width="736"/>
  <unicode hex="0072"/>
  <guideline x="703" y="0" angle="80"/>
  <anchor x="712" y="1100" name="AccentAbove"/>
  <anchor x="782" y="1100" name="AccentAboveRight"/>
  <anchor x="336" y="0" name="AccentBelow"/>
  <anchor x="288" y="486" name="AccentOverlay"/>
  <outline>
    <contour>
      <point x="485" y="974" type="line" name="sh03"/>
      <point x="456" y="808" type="line" name="iv01"/>
      <point x="466" y="808" type="line"/>
      <point x="529" y="905"/>
      <point x="661" y="1004"/>
      <point x="743" y="1004" type="qcurve" name="at01"/>
      <point x="765" y="1004"/>
      <point x="806" y="992"/>
      <point x="841" y="974"/>
      <point x="865" y="953"/>
      <point x="870" y="944" type="qcurve"/>
      <point x="842" y="786" type="line" name="sh04"/>
      <point x="827" y="806"/>
      <point x="746" y="842"/>
      <point x="688" y="842" type="qcurve" name="sv01"/>
      <point x="628" y="842"/>
      <point x="532" y="783"/>
      <point x="463" y="699"/>
      <point x="421" y="607"/>
      <point x="415" y="574" type="qcurve" name="mh01"/>
      <point x="314" y="0" type="line" name="sh05"/>
      <point x="152" y="0" type="line" name="sh01"/>
      <point x="318" y="944" type="line" name="sh02"/>
      <point x="455" y="974" type="line"/>
    </contour>
  </outline>
</glyph>
<glyph name="latn:s" format="2">
  <advance width="864"/>
  <unicode hex="0073"/>
  <guideline x="0" y="783" angle="340"/>
  <guideline x="0" y="604" angle="340"/>
  <guideline x="0" y="1348" angle="320"/>
  <guideline x="435" y="0" angle="90"/>
  <guideline x="-11" y="0" angle="45"/>
  <guideline x="51" y="0" angle="45"/>
  <anchor x="712" y="1100" name="AccentAbove"/>
  <anchor x="852" y="1100" name="AccentAboveRight"/>
  <anchor x="432" y="0" name="AccentBelow"/>
  <anchor x="400" y="0" name="AccentCedilla"/>
  <anchor x="432" y="486" name="AccentOverlay"/>
  <outline>
    <contour>
      <point x="217" y="227" type="line" name="sh01"/>
      <point x="235" y="197"/>
      <point x="287" y="141"/>
      <point x="350" y="98"/>
      <point x="423" y="72"/>
      <point x="463" y="72" type="qcurve" name="sv01"/>
      <point x="501" y="72"/>
      <point x="573" y="93"/>
      <point x="630" y="135"/>
      <point x="664" y="201"/>
      <point x="664" y="246" type="qcurve" name="sh03"/>
      <point x="664" y="274"/>
      <point x="647" y="323"/>
      <point x="604" y="369"/>
      <point x="529" y="413"/>
      <point x="471" y="436" type="qcurve"/>
      <point x="435" y="450"/>
      <point x="363" y="499"/>
      <point x="307" y="566"/>
      <point x="272" y="652"/>
      <point x="272" y="703" type="qcurve" name="sh04"/>
      <point x="272" y="772"/>
      <point x="320" y="883"/>
      <point x="408" y="961"/>
      <point x="531" y="1004"/>
      <point x="606" y="1004" type="qcurve" name="at01"/>
      <point x="654" y="1004"/>
      <point x="741" y="980"/>
      <point x="817" y="938"/>
      <point x="878" y="882"/>
      <point x="900" y="849" type="qcurve" name="sv03"/>
      <point x="799" y="747" type="line" name="ih01"/>
      <point x="785" y="778"/>
      <point x="744" y="834"/>
      <point x="690" y="877"/>
      <point x="626" y="902"/>
      <point x="589" y="902" type="qcurve" name="sv02"/>
      <point x="558" y="902"/>
      <point x="502" y="879"/>
      <point x="459" y="837"/>
      <point x="434" y="779"/>
      <point x="434" y="743" type="qcurve" name="sh05"/>
      <point x="434" y="683"/>
      <point x="503" y="605"/>
      <point x="579" y="576" type="qcurve"/>
      <point x="706" y="528"/>
      <point x="826" y="383"/>
      <point x="826" y="287" type="qcurve" name="sh02"/>
      <point x="826" y="210"/>
      <point x="770" y="92"/>
      <point x="669" y="12"/>
      <point x="529" y="-30"/>
      <point x="444" y="-30" type="qcurve" name="ab01"/>
      <point x="399" y="-30"/>
      <point x="306" y="-11"/>
      <point x="219" y="28"/>
      <point x="143" y="86"/>
      <point x="114" y="125" type="qcurve" name="sv04"/>
    </contour>
  </outline>
</glyph>
<glyph name="t" format="2">
  <advance width="736"/>
  <unicode hex="0074"/>
  <guideline x="0" y="152" angle="0"/>
  <guideline x="0" y="914" angle="357"/>
  <guideline x="628" y="0" angle="80"/>
  <guideline x="82" y="0" angle="80"/>
  <guideline x="630" y="0" angle="90"/>
  <anchor x="432" y="0" name="AccentBelow"/>
  <anchor x="432" y="0" name="AccentCedilla"/>
  <anchor x="336" y="1600" name="AccentDefault"/>
  <anchor x="336" y="486" name="AccentMiddle"/>
  <outline>
    <contour>
      <point x="646" y="1322" type="line" name="av01"/>
      <point x="590" y="1004" type="line" name="sh04"/>
      <point x="805" y="1004" type="line" name="sh05"/>
      <point x="782" y="872" type="line"/>
      <point x="569" y="885" type="line" name="sh06"/>
      <point x="465" y="297" type="line" name="sh02"/>
      <point x="456" y="249"/>
      <point x="456" y="211" type="qcurve"/>
      <point x="456" y="176"/>
      <point x="475" y="123"/>
      <point x="518" y="89"/>
      <point x="589" y="72"/>
      <point x="641" y="72" type="qcurve" name="ah01"/>
      <point x="623" y="-30" type="line" name="ab01"/>
      <point x="546" y="-30"/>
      <point x="424" y="-15"/>
      <point x="339" y="32"/>
      <point x="294" y="119"/>
      <point x="294" y="191" type="qcurve"/>
      <point x="294" y="244"/>
      <point x="308" y="326" type="qcurve" name="sh01"/>
      <point x="408" y="893" type="line" name="ih01"/>
      <point x="241" y="902" type="line"/>
      <point x="259" y="1004" type="line" name="sh07"/>
      <point x="428" y="1004" type="line" name="sh03"/>
      <point x="478" y="1292" type="line" name="sh08"/>
      <point x="616" y="1322" type="line"/>
    </contour>
  </outline>
</glyph>
<glyph name="latn:u" format="2">
  <advance width="1120"/>
  <unicode hex="0075"/>
  <guideline x="1047" y="0" angle="80"/>
  <anchor x="840" y="1100" name="AccentAbove"/>
  <anchor x="1110" y="1100" name="AccentAboveRight"/>
  <anchor x="968" y="0" name="AccentAttachedBelow"/>
  <anchor x="560" y="0" name="AccentBelow"/>
  <anchor x="1111" y="798" name="AccentHorn"/>
  <anchor x="560" y="486" name="AccentOverlay"/>
  <outline>
    <contour>
      <point x="491" y="1004" type="line" name="sh02"/>
      <point x="367" y="305" type="line" name="sh03"/>
      <point x="361" y="269"/>
      <point x="361" y="239" type="qcurve"/>
      <point x="361" y="193"/>
      <point x="388" y="129"/>
      <point x="433" y="90"/>
      <point x="492" y="72"/>
      <point x="524" y="72" type="qcurve" name="sv01"/>
      <point x="579" y="72"/>
      <point x="675" y="107"/>
      <point x="758" y="163"/>
      <point x="826" y="230"/>
      <point x="854" y="263" type="qcurve" name="sh04"/>
      <point x="979" y="974" type="line" name="dh01"/>
      <point x="1117" y="1004" type="line" name="at01"/>
      <point x="1147" y="1004" type="line" name="dh02"/>
      <point x="1003" y="189" type="line"/>
      <point x="1000" y="174"/>
      <point x="998" y="149"/>
      <point x="998" y="138" type="qcurve"/>
      <point x="998" y="101"/>
      <point x="1029" y="72"/>
      <point x="1060" y="72" type="qcurve" name="ih01"/>
      <point x="1042" y="-30" type="line" name="ab01"/>
      <point x="970" y="-30"/>
      <point x="901" y="2"/>
      <point x="861" y="52"/>
      <point x="845" y="113"/>
      <point x="843" y="142" type="qcurve"/>
      <point x="833" y="142" type="line"/>
      <point x="811" y="116"/>
      <point x="741" y="56"/>
      <point x="648" y="4"/>
      <point x="536" y="-30"/>
      <point x="473" y="-30" type="qcurve" name="ab02"/>
      <point x="418" y="-30"/>
      <point x="317" y="-3"/>
      <point x="240" y="55"/>
      <point x="194" y="146"/>
      <point x="194" y="210" type="qcurve" name="mh01"/>
      <point x="194" y="227"/>
      <point x="198" y="261"/>
      <point x="201" y="280" type="qcurve" name="sh05"/>
      <point x="323" y="974" type="line" name="sh01"/>
      <point x="461" y="1004" type="line"/>
    </contour>
  </outline>
</glyph>
<glyph name="latn:w" format="2">
  <advance width="1440"/>
  <unicode hex="0077"/>
  <guideline x="0" y="269" angle="0"/>
  <guideline x="945" y="0" angle="108"/>
  <guideline x="557" y="0" angle="108"/>
  <guideline x="1067" y="0" angle="72"/>
  <guideline x="495" y="0" angle="72"/>
  <guideline x="945" y="0" angle="72"/>
  <guideline x="374" y="0" angle="108"/>
  <guideline x="1128" y="0" angle="108"/>
  <guideline x="373" y="0" angle="72"/>
  <guideline x="751" y="0" angle="90"/>
  <anchor x="1032" y="1100" name="AccentAbove"/>
  <anchor x="1302" y="1100" name="AccentAboveRight"/>
  <anchor x="752" y="0" name="AccentBelow"/>
  <anchor x="752" y="486" name="AccentOverlay"/>
  <outline>
    <contour>
      <point x="1555" y="974" type="line" name="dh03"/>
      <point x="1067" y="0" type="line" name="ab01"/>
      <point x="945" y="0" type="line"/>
      <point x="844" y="678" type="line"/>
      <point x="834" y="678" type="line"/>
      <point x="495" y="0" type="line" name="ab02"/>
      <point x="373" y="0" type="line"/>
      <point x="227" y="974" type="line" name="dh01"/>
      <point x="407" y="1004" type="line" name="dh02"/>
      <point x="507" y="269" type="line"/>
      <point x="517" y="269" type="line" name="iv01"/>
      <point x="860" y="974" type="line" name="mh01"/>
      <point x="982" y="974" type="line"/>
      <point x="1079" y="269" type="line" name="mh02"/>
      <point x="1089" y="269" type="line" name="sv01"/>
      <point x="1448" y="1004" type="line" name="dh04"/>
    </contour>
  </outline>
</glyph>
<glyph name="latn:x" format="2">
  <advance width="1024"/>
  <unicode hex="0078"/>
  <guideline x="0" y="840" angle="0"/>
  <guideline x="0" y="133" angle="0"/>
  <guideline x="89" y="0" angle="55"/>
  <guideline x="220" y="0" angle="55"/>
  <guideline x="952" y="0" angle="125"/>
  <guideline x="755" y="0" angle="125"/>
  <guideline x="505" y="0" angle="90"/>
  <guideline x="89" y="0" angle="90"/>
  <guideline x="930" y="0" angle="90"/>
  <anchor x="792" y="1100" name="AccentAbove"/>
  <anchor x="1062" y="1100" name="AccentAboveRight"/>
  <anchor x="512" y="0" name="AccentBelow"/>
  <anchor x="512" y="486" name="AccentOverlay"/>
  <outline>
    <contour>
      <point x="426" y="1004" type="line" name="dh02"/>
      <point x="624" y="616" type="line" name="iv01"/>
      <point x="634" y="616" type="line"/>
      <point x="969" y="1004" type="line" name="ih01"/>
      <point x="1073" y="974" type="line"/>
      <point x="678" y="527" type="line" name="mh01"/>
      <point x="677" y="517" type="line"/>
      <point x="950" y="0" type="line" name="sh01"/>
      <point x="770" y="-30" type="line" name="sh02"/>
      <point x="557" y="374" type="line"/>
      <point x="547" y="374" type="line" name="iv02"/>
      <point x="193" y="-30" type="line" name="ih02"/>
      <point x="89" y="0" type="line"/>
      <point x="504" y="470" type="line"/>
      <point x="506" y="480" type="line"/>
      <point x="245" y="974" type="line" name="dh01"/>
    </contour>
  </outline>
</glyph>
<glyph name="latn:y" format="2">
  <advance width="960"/>
  <unicode hex="0079"/>
  <guideline x="599" y="0" angle="64"/>
  <guideline x="462" y="0" angle="102"/>
  <guideline x="131" y="0" angle="80"/>
  <guideline x="647" y="0" angle="102"/>
  <guideline x="132" y="0" angle="90"/>
  <anchor x="792" y="1100" name="AccentAbove"/>
  <anchor x="1062" y="1100" name="AccentAboveRight"/>
  <anchor x="512" y="-300" name="AccentBelow"/>
  <anchor x="512" y="486" name="AccentOverlay"/>
  <outline>
    <contour>
      <point x="435" y="1004" type="line" name="sh02"/>
      <point x="575" y="204" type="line"/>
      <point x="585" y="204" type="line"/>
      <point x="973" y="1004" type="line" name="at01"/>
      <point x="1076" y="974" type="line"/>
      <point x="586" y="-30" type="line"/>
      <point x="528" y="-149"/>
      <point x="427" y="-322"/>
      <point x="307" y="-435"/>
      <point x="154" y="-490"/>
      <point x="45" y="-490" type="qcurve" name="sh03"/>
      <point x="63" y="-388" type="line" name="sv01"/>
      <point x="139" y="-388"/>
      <point x="252" y="-342"/>
      <point x="345" y="-251"/>
      <point x="425" y="-117"/>
      <point x="468" y="-30" type="qcurve" name="iv01"/>
      <point x="255" y="974" type="line" name="sh01"/>
    </contour>
  </outline>
</glyph>
<glyph name="latn:z" format="2">
  <advance width="960"/>
  <unicode hex="007A"/>
  <guideline x="0" y="80" angle="3"/>
  <guideline x="-93" y="0" angle="90"/>
  <guideline x="154" y="0" angle="80"/>
  <guideline x="864" y="0" angle="90"/>
  <guideline x="884" y="0" angle="80"/>
  <anchor x="792" y="1100" name="AccentAbove"/>
  <anchor x="1062" y="1100" name="AccentAboveRight"/>
  <anchor x="512" y="0" name="AccentBelow"/>
  <anchor x="480" y="486" name="AccentOverlay"/>
  <outline>
    <contour>
      <point x="76" y="25" type="line" name="hr00"/>
      <point x="820" y="866" type="line"/>
      <point x="822" y="876" type="line"/>
      <point x="304" y="849" type="line" name="sv01"/>
      <point x="326" y="974" type="line"/>
      <point x="1055" y="974" type="line" name="ah01"/>
      <point x="1051" y="949" type="line"/>
      <point x="305" y="105" type="line"/>
      <point x="303" y="95" type="line"/>
      <point x="906" y="125" type="line" name="sv02"/>
      <point x="884" y="0" type="line"/>
      <point x="72" y="0" type="line" name="sh01"/>
    </contour>
  </outline>
</glyph>
<glyph name="sign:braceright" format="2">
  <advance width="736"/>
  <unicode hex="007D"/>
  <outline>
    <contour>
      <point x="330" y="1464" type="line" name="at01"/>
      <point x="403" y="1464"/>
      <point x="515" y="1442"/>
      <point x="591" y="1391"/>
      <point x="630" y="1308"/>
      <point x="630" y="1246" type="qcurve"/>
      <point x="630" y="1226"/>
      <point x="627" y="1182"/>
      <point x="622" y="1157" type="qcurve" name="dh04"/>
      <point x="592" y="992" type="line"/>
      <point x="583" y="941"/>
      <point x="569" y="850"/>
      <point x="569" y="811" type="qcurve"/>
      <point x="569" y="772"/>
      <point x="587" y="711"/>
      <point x="632" y="667"/>
      <point x="708" y="644"/>
      <point x="767" y="644" type="qcurve" name="dv02"/>
      <point x="749" y="542" type="line" name="dv01"/>
      <point x="664" y="542"/>
      <point x="560" y="490"/>
      <point x="498" y="398"/>
      <point x="465" y="270"/>
      <point x="452" y="194" type="qcurve"/>
      <point x="421" y="19" type="line" name="dh01"/>
      <point x="405" y="-70"/>
      <point x="341" y="-184"/>
      <point x="242" y="-252"/>
      <point x="107" y="-278"/>
      <point x="22" y="-278" type="qcurve" name="av01"/>
      <point x="40" y="-176" type="line" name="sv01"/>
      <point x="121" y="-176"/>
      <point x="199" y="-155"/>
      <point x="246" y="-105"/>
      <point x="271" y="-23"/>
      <point x="282" y="39" type="qcurve" name="dh02"/>
      <point x="313" y="214" type="line"/>
      <point x="325" y="282"/>
      <point x="364" y="406"/>
      <point x="433" y="507"/>
      <point x="538" y="578"/>
      <point x="617" y="593" type="qcurve" name="iv01"/>
      <point x="563" y="604"/>
      <point x="492" y="648"/>
      <point x="450" y="710"/>
      <point x="432" y="787"/>
      <point x="432" y="831" type="qcurve"/>
      <point x="432" y="864"/>
      <point x="440" y="935"/>
      <point x="447" y="972" type="qcurve"/>
      <point x="476" y="1135" type="line" name="dh03"/>
      <point x="482" y="1169"/>
      <point x="489" y="1225"/>
      <point x="489" y="1248" type="qcurve"/>
      <point x="489" y="1278"/>
      <point x="474" y="1322"/>
      <point x="437" y="1349"/>
      <point x="376" y="1362"/>
      <point x="312" y="1362" type="qcurve" name="sv02"/>
    </contour>
  </outline>
</glyph>
<glyph name="asciitilde" format="2">
  <advance width="1248"/>
  <unicode hex="007E"/>
  <guideline x="0" y="1127" angle="0"/>
  <guideline x="1809" y="0" angle="135"/>
  <guideline x="1241" y="0" angle="90"/>
  <guideline x="587" y="0" angle="135"/>
  <outline>
    <contour>
      <point x="179" y="407" type="line" name="sh01"/>
      <point x="184" y="435"/>
      <point x="234" y="515"/>
      <point x="317" y="589"/>
      <point x="429" y="641"/>
      <point x="496" y="641" type="qcurve" name="dv04"/>
      <point x="551" y="641"/>
      <point x="637" y="614"/>
      <point x="710" y="573"/>
      <point x="772" y="525"/>
      <point x="835" y="484"/>
      <point x="903" y="457"/>
      <point x="944" y="457" type="qcurve" name="dv02"/>
      <point x="986" y="457"/>
      <point x="1052" y="489"/>
      <point x="1102" y="541"/>
      <point x="1133" y="607"/>
      <point x="1139" y="641" type="qcurve" name="sv01"/>
      <point x="1169" y="641" type="line"/>
      <point x="1240" y="569" type="line" name="sh02"/>
      <point x="1235" y="541"/>
      <point x="1185" y="461"/>
      <point x="1102" y="387"/>
      <point x="989" y="335"/>
      <point x="922" y="335" type="qcurve" name="dv01"/>
      <point x="863" y="335"/>
      <point x="776" y="362"/>
      <point x="705" y="403"/>
      <point x="646" y="451"/>
      <point x="586" y="492"/>
      <point x="517" y="519"/>
      <point x="473" y="519" type="qcurve" name="dv03"/>
      <point x="432" y="519"/>
      <point x="366" y="487"/>
      <point x="318" y="435"/>
      <point x="287" y="369"/>
      <point x="281" y="335" type="qcurve" name="sv02"/>
      <point x="251" y="335" type="line"/>
    </contour>
  </outline>
</glyph>
<glyph name="curr:cent" format="2">
  <advance width="1120"/>
  <unicode hex="00A2"/>
  <guideline x="340" y="0" angle="65"/>
  <outline>
    <contour>
      <point x="1071" y="1206" type="line" name="av01"/>
      <point x="1156" y="1191" type="line" name="iv01"/>
      <point x="993" y="939" type="line"/>
      <point x="1025" y="919"/>
      <point x="1073" y="872"/>
      <point x="1091" y="849" type="qcurve"/>
      <point x="989" y="747" type="line" name="iv02"/>
      <point x="981" y="764"/>
      <point x="945" y="812"/>
      <point x="924" y="831" type="qcurve"/>
      <point x="460" y="109" type="line"/>
      <point x="513" y="72"/>
      <point x="592" y="72" type="qcurve" name="sv01"/>
      <point x="643" y="72"/>
      <point x="733" y="105"/>
      <point x="807" y="152"/>
      <point x="863" y="206"/>
      <point x="880" y="227" type="qcurve"/>
      <point x="982" y="125" type="line"/>
      <point x="950" y="96"/>
      <point x="869" y="41"/>
      <point x="768" y="-3"/>
      <point x="646" y="-30"/>
      <point x="574" y="-30" type="qcurve" name="ab01"/>
      <point x="523" y="-30"/>
      <point x="434" y="-12"/>
      <point x="392" y="5" type="qcurve"/>
      <point x="241" y="-232" type="line" name="av02"/>
      <point x="156" y="-217" type="line" name="iv03"/>
      <point x="323" y="43" type="line"/>
      <point x="245" y="97"/>
      <point x="158" y="272"/>
      <point x="158" y="384" type="qcurve" name="dh01"/>
      <point x="158" y="468"/>
      <point x="203" y="626"/>
      <point x="283" y="764"/>
      <point x="394" y="878"/>
      <point x="527" y="959"/>
      <point x="678" y="1004"/>
      <point x="757" y="1004" type="qcurve" name="at01"/>
      <point x="805" y="1004"/>
      <point x="887" y="989"/>
      <point x="922" y="975" type="qcurve"/>
    </contour>
    <contour>
      <point x="857" y="874" type="line"/>
      <point x="811" y="902"/>
      <point x="739" y="902" type="qcurve" name="sv02"/>
      <point x="654" y="902"/>
      <point x="505" y="812"/>
      <point x="394" y="666"/>
      <point x="330" y="480"/>
      <point x="330" y="384" type="qcurve" name="dh02"/>
      <point x="330" y="317"/>
      <point x="365" y="204"/>
      <point x="400" y="162" type="qcurve" name="iv04"/>
    </contour>
  </outline>
</glyph>
<glyph name="curr:sterling" format="2">
  <advance width="1120"/>
  <unicode hex="00A3"/>
  <guideline x="167" y="0" angle="100"/>
  <guideline x="992" y="0" angle="90"/>
  <outline>
    <contour>
      <point x="290" y="803" type="line" name="hr00"/>
      <point x="500" y="803" type="line" name="sh01"/>
      <point x="505" y="830"/>
      <point x="500" y="906"/>
      <point x="494" y="993" name="hr01"/>
      <point x="492" y="1086"/>
      <point x="500" y="1130" type="qcurve"/>
      <point x="513" y="1203"/>
      <point x="579" y="1325" name="hr02"/>
      <point x="687" y="1414"/>
      <point x="836" y="1464"/>
      <point x="931" y="1464" type="qcurve" name="at01"/>
      <point x="992" y="1464"/>
      <point x="1089" y="1429"/>
      <point x="1162" y="1380"/>
      <point x="1210" y="1327"/>
      <point x="1222" y="1309" type="qcurve"/>
      <point x="1103" y="1207" type="line" name="iv01"/>
      <point x="1093" y="1237"/>
      <point x="1057" y="1293"/>
      <point x="1011" y="1336"/>
      <point x="953" y="1362"/>
      <point x="920" y="1362" type="qcurve" name="sv01"/>
      <point x="864" y="1362"/>
      <point x="776" y="1325"/>
      <point x="711" y="1261"/>
      <point x="669" y="1173"/>
      <point x="660" y="1122" type="qcurve"/>
      <point x="655" y="1090"/>
      <point x="651" y="1003"/>
      <point x="649" y="913"/>
      <point x="647" y="830"/>
      <point x="642" y="803" type="qcurve" name="sh02"/>
      <point x="951" y="803" type="line" name="ah01"/>
      <point x="929" y="678" type="line" name="sv02"/>
      <point x="623" y="693" type="line" name="dh02"/>
      <point x="606" y="601"/>
      <point x="540" y="433"/>
      <point x="456" y="286"/>
      <point x="363" y="161"/>
      <point x="320" y="112" type="qcurve"/>
      <point x="318" y="102" type="line" name="sv03"/>
      <point x="387" y="102"/>
      <point x="489" y="93"/>
      <point x="571" y="81"/>
      <point x="644" y="72"/>
      <point x="685" y="72" type="qcurve" name="sv04"/>
      <point x="729" y="72"/>
      <point x="806" y="105"/>
      <point x="868" y="153"/>
      <point x="916" y="207"/>
      <point x="931" y="227" type="qcurve" name="av01"/>
      <point x="1014" y="125" type="line"/>
      <point x="993" y="106"/>
      <point x="926" y="53"/>
      <point x="835" y="4"/>
      <point x="723" y="-30"/>
      <point x="658" y="-30" type="qcurve" name="ab01"/>
      <point x="606" y="-30"/>
      <point x="509" y="-21"/>
      <point x="397" y="-9"/>
      <point x="260" y="0"/>
      <point x="149" y="0" type="qcurve" name="ab02"/>
      <point x="166" y="102" type="line" name="sh03"/>
      <point x="212" y="151"/>
      <point x="305" y="257"/>
      <point x="389" y="395"/>
      <point x="459" y="576"/>
      <point x="482" y="701" type="qcurve" name="dh01"/>
      <point x="275" y="718" type="line" name="sh04"/>
    </contour>
  </outline>
</glyph>
<glyph name="currency" format="2">
  <advance width="1024"/>
  <unicode hex="00A4"/>
  <guideline x="0" y="851" angle="0"/>
  <guideline x="154" y="0" angle="90"/>
  <guideline x="788" y="0" angle="90"/>
  <outline>
    <contour>
      <point x="640" y="974" type="qcurve" name="dv03"/>
      <point x="592" y="974"/>
      <point x="507" y="935"/>
      <point x="442" y="869"/>
      <point x="404" y="783"/>
      <point x="404" y="736" type="qcurve" name="sh02"/>
      <point x="404" y="689"/>
      <point x="442" y="603"/>
      <point x="507" y="538"/>
      <point x="592" y="499"/>
      <point x="640" y="499" type="qcurve" name="dv02"/>
      <point x="687" y="499"/>
      <point x="773" y="537"/>
      <point x="838" y="601"/>
      <point x="877" y="688"/>
      <point x="877" y="736" type="qcurve" name="ah01"/>
      <point x="877" y="783"/>
      <point x="838" y="869"/>
      <point x="773" y="935"/>
      <point x="687" y="974"/>
    </contour>
    <contour>
      <point x="849" y="445" type="line"/>
      <point x="751" y="377"/>
      <point x="640" y="377" type="qcurve" name="dv01"/>
      <point x="531" y="377"/>
      <point x="437" y="441" type="qcurve"/>
      <point x="282" y="287" type="line" name="av01"/>
      <point x="196" y="373" type="line" name="sh04"/>
      <point x="349" y="527" type="line"/>
      <point x="315" y="573"/>
      <point x="282" y="679"/>
      <point x="282" y="736" type="qcurve" name="sh01"/>
      <point x="282" y="851"/>
      <point x="349" y="945" type="qcurve"/>
      <point x="196" y="1098" type="line" name="sh03"/>
      <point x="282" y="1184" type="line" name="av02"/>
      <point x="435" y="1031" type="line"/>
      <point x="530" y="1096"/>
      <point x="640" y="1096" type="qcurve" name="dv04"/>
      <point x="751" y="1096"/>
      <point x="849" y="1027" type="qcurve"/>
      <point x="1007" y="1184" type="line" name="sv01"/>
      <point x="1093" y="1098" type="line" name="sh06"/>
      <point x="935" y="941" type="line"/>
      <point x="967" y="893"/>
      <point x="999" y="790"/>
      <point x="999" y="738" type="qcurve" name="sh05"/>
      <point x="999" y="684"/>
      <point x="965" y="579"/>
      <point x="933" y="533" type="qcurve"/>
      <point x="1093" y="373" type="line" name="sh07"/>
      <point x="1007" y="287" type="line" name="sv02"/>
    </contour>
  </outline>
</glyph>
<glyph name="curr:yen" format="2">
  <advance width="1024"/>
  <unicode hex="00A5"/>
  <guideline x="407" y="0" angle="70"/>
  <guideline x="617" y="0" angle="110"/>
  <guideline x="909" y="0" angle="80"/>
  <guideline x="95" y="0" angle="90"/>
  <guideline x="809" y="0" angle="110"/>
  <guideline x="275" y="0" angle="70"/>
  <outline>
    <contour>
      <point x="534" y="1464" type="line" name="hr00"/>
      <point x="667" y="742" type="line"/>
      <point x="677" y="742" type="line"/>
      <point x="1066" y="1464" type="line"/>
      <point x="1181" y="1434" type="line"/>
      <point x="933" y="974" type="line"/>
      <point x="1080" y="974" type="line"/>
      <point x="1062" y="872" type="line"/>
      <point x="877" y="872" type="line"/>
      <point x="755" y="645" type="line"/>
      <point x="1022" y="645" type="line"/>
      <point x="1004" y="543" type="line"/>
      <point x="698" y="543" type="line"/>
      <point x="603" y="0" type="line"/>
      <point x="421" y="0" type="line"/>
      <point x="516" y="543" type="line"/>
      <point x="210" y="543" type="line"/>
      <point x="228" y="645" type="line"/>
      <point x="495" y="645" type="line"/>
      <point x="453" y="872" type="line"/>
      <point x="268" y="872" type="line"/>
      <point x="286" y="974" type="line"/>
      <point x="433" y="974" type="line"/>
      <point x="347" y="1434" type="line"/>
    </contour>
  </outline>
</glyph>
<glyph name="sign:brokenbar" format="2">
  <advance width="736"/>
  <unicode hex="00A6"/>
  <outline>
    <contour>
      <point x="725" y="1682" type="line" name="av01"/>
      <point x="574" y="825" type="line" name="dh04"/>
      <point x="452" y="825" type="line" name="dh03"/>
      <point x="603" y="1682" type="line"/>
    </contour>
    <contour>
      <point x="257" y="-278" type="line" name="av02"/>
      <point x="409" y="579" type="line" name="dh01"/>
      <point x="531" y="579" type="line" name="dh02"/>
      <point x="379" y="-278" type="line"/>
    </contour>
  </outline>
</glyph>
<glyph name="guillemotleft" format="2">
  <advance width="1024"/>
  <unicode hex="00AB"/>
  <guideline x="0" y="901" angle="0"/>
  <guideline x="532" y="0" angle="90"/>
  <guideline x="930" y="0" angle="90"/>
  <outline>
    <contour>
      <point x="987" y="906" type="line" name="sv01"/>
      <point x="1084" y="876" type="line"/>
      <point x="749" y="487" type="line" name="sh03"/>
      <point x="947" y="98" type="line"/>
      <point x="839" y="68" type="line" name="sv02"/>
      <point x="585" y="487" type="line" name="sh02"/>
    </contour>
    <contour>
      <point x="589" y="906" type="line" name="av01"/>
      <point x="686" y="876" type="line"/>
      <point x="351" y="487" type="line" name="sh01"/>
      <point x="549" y="98" type="line"/>
      <point x="441" y="68" type="line" name="av02"/>
      <point x="187" y="487" type="line" name="ah01"/>
    </contour>
  </outline>
</glyph>
<glyph name="math:logicalnot" format="2">
  <advance width="1152"/>
  <unicode hex="00AC"/>
  <outline>
    <contour>
      <point x="1209" y="747" type="line" name="ah02"/>
      <point x="1123" y="256" type="line" name="av01"/>
      <point x="1001" y="256" type="line"/>
      <point x="1066" y="625" type="line" name="sh01"/>
      <point x="182" y="625" type="line" name="ah01"/>
      <point x="203" y="747" type="line"/>
    </contour>
  </outline>
</glyph>
<glyph name="sign:registered" format="2">
  <advance width="1600"/>
  <unicode hex="00AE"/>
  <outline>
    <contour>
      <point x="737" y="1152" type="line" name="dh10"/>
      <point x="982" y="1152" type="line"/>
      <point x="1120" y="1152"/>
      <point x="1257" y="1054"/>
      <point x="1257" y="963" type="qcurve" name="dh04"/>
      <point x="1257" y="902"/>
      <point x="1205" y="805"/>
      <point x="1122" y="732"/>
      <point x="1018" y="683"/>
      <point x="966" y="671" type="qcurve" name="av01"/>
      <point x="965" y="667" type="line" name="ih01"/>
      <point x="1194" y="292" type="line" name="ih02"/>
      <point x="1058" y="274" type="line" name="sv03"/>
      <point x="864" y="649" type="line" name="sv04"/>
      <point x="770" y="649" type="line"/>
      <point x="707" y="292" type="line" name="dh08"/>
      <point x="585" y="292" type="line" name="dh07"/>
    </contour>
    <contour>
      <point x="844" y="1070" type="line" name="dh09"/>
      <point x="783" y="722" type="line"/>
      <point x="890" y="722" type="line" name="sv05"/>
      <point x="939" y="722"/>
      <point x="1027" y="758"/>
      <point x="1095" y="820"/>
      <point x="1135" y="902"/>
      <point x="1135" y="949" type="qcurve" name="dh03"/>
      <point x="1135" y="1013"/>
      <point x="1048" y="1070"/>
      <point x="978" y="1070" type="qcurve"/>
    </contour>
    <contour>
      <point x="186" y="716" type="qcurve" name="dh01"/>
      <point x="186" y="819"/>
      <point x="239" y="1010"/>
      <point x="336" y="1177"/>
      <point x="473" y="1313"/>
      <point x="639" y="1411"/>
      <point x="830" y="1464"/>
      <point x="933" y="1464" type="qcurve" name="at01"/>
      <point x="1036" y="1464"/>
      <point x="1227" y="1411"/>
      <point x="1394" y="1313"/>
      <point x="1530" y="1177"/>
      <point x="1628" y="1010"/>
      <point x="1681" y="819"/>
      <point x="1681" y="716" type="qcurve" name="dh06"/>
      <point x="1681" y="613"/>
      <point x="1628" y="422"/>
      <point x="1530" y="256"/>
      <point x="1394" y="120"/>
      <point x="1227" y="23"/>
      <point x="1036" y="-30"/>
      <point x="933" y="-30" type="qcurve" name="ab01"/>
      <point x="830" y="-30"/>
      <point x="639" y="23"/>
      <point x="473" y="120"/>
      <point x="336" y="256"/>
      <point x="239" y="422"/>
      <point x="186" y="613"/>
    </contour>
    <contour>
      <point x="268" y="717" type="qcurve" name="dh02"/>
      <point x="268" y="627"/>
      <point x="317" y="459"/>
      <point x="405" y="312"/>
      <point x="528" y="189"/>
      <point x="676" y="101"/>
      <point x="844" y="52"/>
      <point x="933" y="52" type="qcurve" name="sv02"/>
      <point x="1022" y="52"/>
      <point x="1191" y="101"/>
      <point x="1339" y="189"/>
      <point x="1462" y="312"/>
      <point x="1550" y="459"/>
      <point x="1599" y="627"/>
      <point x="1599" y="717" type="qcurve" name="dh05"/>
      <point x="1599" y="806"/>
      <point x="1550" y="975"/>
      <point x="1462" y="1122"/>
      <point x="1339" y="1245"/>
      <point x="1191" y="1333"/>
      <point x="1022" y="1382"/>
      <point x="933" y="1382" type="qcurve" name="sv01"/>
      <point x="844" y="1382"/>
      <point x="676" y="1333"/>
      <point x="528" y="1245"/>
      <point x="405" y="1122"/>
      <point x="317" y="974"/>
      <point x="268" y="806"/>
    </contour>
  </outline>
</glyph>
<glyph name="degree" format="2">
  <advance width="768"/>
  <unicode hex="00B0"/>
  <guideline x="0" y="1247" angle="0"/>
  <guideline x="357" y="0" angle="90"/>
  <outline>
    <contour>
      <point x="414" y="1269" type="qcurve" name="dh01"/>
      <point x="414" y="1228"/>
      <point x="444" y="1157"/>
      <point x="496" y="1106"/>
      <point x="566" y="1076"/>
      <point x="607" y="1076" type="qcurve" name="dv02"/>
      <point x="647" y="1076"/>
      <point x="718" y="1106"/>
      <point x="770" y="1157"/>
      <point x="801" y="1228"/>
      <point x="801" y="1269" type="qcurve" name="dh03"/>
      <point x="801" y="1309"/>
      <point x="770" y="1380"/>
      <point x="718" y="1434"/>
      <point x="647" y="1464"/>
      <point x="607" y="1464" type="qcurve" name="dv03"/>
      <point x="566" y="1464"/>
      <point x="496" y="1434"/>
      <point x="444" y="1380"/>
      <point x="414" y="1309"/>
    </contour>
    <contour>
      <point x="312" y="1269" type="qcurve" name="dh02"/>
      <point x="312" y="1329"/>
      <point x="359" y="1437"/>
      <point x="438" y="1519"/>
      <point x="547" y="1566"/>
      <point x="608" y="1566" type="qcurve" name="dv04"/>
      <point x="668" y="1566"/>
      <point x="777" y="1519"/>
      <point x="856" y="1437"/>
      <point x="903" y="1329"/>
      <point x="903" y="1269" type="qcurve" name="dh04"/>
      <point x="903" y="1208"/>
      <point x="856" y="1101"/>
      <point x="777" y="1020"/>
      <point x="668" y="974"/>
      <point x="608" y="974" type="qcurve" name="dv01"/>
      <point x="547" y="974"/>
      <point x="438" y="1020"/>
      <point x="359" y="1101"/>
      <point x="312" y="1208"/>
    </contour>
  </outline>
</glyph>
<glyph name="math:plusminus" format="2">
  <advance width="1152"/>
  <unicode hex="00B1"/>
  <guideline x="963" y="0" angle="90"/>
  <outline>
    <contour>
      <point x="240" y="653" type="line" name="iv01"/>
      <point x="261" y="775" type="line" name="sv03"/>
      <point x="651" y="775" type="line" name="sh01"/>
      <point x="720" y="1165" type="line" name="av01"/>
      <point x="842" y="1165" type="line"/>
      <point x="773" y="775" type="line" name="sh02"/>
      <point x="1163" y="775" type="line"/>
      <point x="1142" y="653" type="line" name="sv04"/>
      <point x="752" y="653" type="line" name="dh02"/>
      <point x="683" y="263" type="line"/>
      <point x="561" y="263" type="line" name="sv02"/>
      <point x="630" y="653" type="line" name="dh01"/>
    </contour>
    <contour>
      <point x="125" y="0" type="line" name="ab01"/>
      <point x="146" y="122" type="line" name="sv01"/>
      <point x="1048" y="122" type="line"/>
      <point x="1027" y="0" type="line"/>
    </contour>
  </outline>
</glyph>
<glyph name="digit:two.superior" format="2">
  <advance width="736"/>
  <unicode hex="00B2"/>
  <guideline x="1759" y="0" angle="135"/>
  <outline>
    <contour>
      <point x="396" y="1362" type="line" name="sh02"/>
      <point x="444" y="1410"/>
      <point x="577" y="1464"/>
      <point x="643" y="1464" type="qcurve" name="at01"/>
      <point x="688" y="1464"/>
      <point x="767" y="1437"/>
      <point x="826" y="1386"/>
      <point x="859" y="1310"/>
      <point x="859" y="1262" type="qcurve" name="dh02"/>
      <point x="859" y="1216"/>
      <point x="839" y="1136"/>
      <point x="794" y="1058"/>
      <point x="724" y="976"/>
      <point x="622" y="879"/>
      <point x="487" y="762"/>
      <point x="401" y="689" type="qcurve" name="sh01"/>
      <point x="766" y="719" type="line" name="iv01"/>
      <point x="746" y="604" type="line" name="sh03"/>
      <point x="201" y="604" type="line"/>
      <point x="205" y="624" type="line" name="sh04"/>
      <point x="304" y="721"/>
      <point x="460" y="864"/>
      <point x="578" y="973"/>
      <point x="661" y="1056"/>
      <point x="712" y="1129"/>
      <point x="736" y="1201"/>
      <point x="736" y="1245" type="qcurve" name="dh01"/>
      <point x="736" y="1294"/>
      <point x="679" y="1362"/>
      <point x="625" y="1362" type="qcurve" name="sv01"/>
      <point x="579" y="1362"/>
      <point x="500" y="1316"/>
      <point x="471" y="1287" type="qcurve"/>
    </contour>
  </outline>
</glyph>
<glyph name="threesuperior" format="2">
  <advance width="736"/>
  <unicode hex="00B3"/>
  <guideline x="1758" y="0" angle="135"/>
  <outline>
    <contour>
      <point x="456" y="1032" type="line" name="iv01"/>
      <point x="474" y="1134" type="line"/>
      <point x="525" y="1134" type="line"/>
      <point x="556" y="1134"/>
      <point x="615" y="1159"/>
      <point x="662" y="1200"/>
      <point x="690" y="1255"/>
      <point x="690" y="1285" type="qcurve" name="ih01"/>
      <point x="690" y="1320"/>
      <point x="653" y="1362"/>
      <point x="614" y="1362" type="qcurve" name="sv01"/>
      <point x="588" y="1362"/>
      <point x="518" y="1327"/>
      <point x="470" y="1288" type="qcurve"/>
      <point x="396" y="1362" type="line"/>
      <point x="410" y="1375"/>
      <point x="458" y="1410"/>
      <point x="518" y="1442"/>
      <point x="587" y="1464"/>
      <point x="622" y="1464" type="qcurve" name="at01"/>
      <point x="667" y="1464"/>
      <point x="737" y="1440"/>
      <point x="786" y="1398"/>
      <point x="812" y="1340"/>
      <point x="812" y="1307" type="qcurve" name="sh01"/>
      <point x="812" y="1266"/>
      <point x="779" y="1196"/>
      <point x="725" y="1141"/>
      <point x="657" y="1103"/>
      <point x="621" y="1093" type="qcurve"/>
      <point x="620" y="1087" type="line"/>
      <point x="639" y="1082"/>
      <point x="698" y="1058"/>
      <point x="753" y="1012"/>
      <point x="792" y="942"/>
      <point x="792" y="891" type="qcurve" name="dh02"/>
      <point x="792" y="822"/>
      <point x="735" y="709"/>
      <point x="640" y="630"/>
      <point x="517" y="586"/>
      <point x="451" y="586" type="qcurve" name="dv01"/>
      <point x="409" y="586"/>
      <point x="337" y="605"/>
      <point x="278" y="635"/>
      <point x="233" y="672"/>
      <point x="218" y="690" type="qcurve" name="ah01"/>
      <point x="313" y="770" type="line"/>
      <point x="334" y="734"/>
      <point x="409" y="688"/>
      <point x="469" y="688" type="qcurve" name="dv02"/>
      <point x="512" y="688"/>
      <point x="586" y="719"/>
      <point x="640" y="773"/>
      <point x="670" y="843"/>
      <point x="670" y="882" type="qcurve" name="dh01"/>
      <point x="670" y="913"/>
      <point x="650" y="968"/>
      <point x="611" y="1009"/>
      <point x="551" y="1032"/>
      <point x="512" y="1032" type="qcurve"/>
    </contour>
  </outline>
</glyph>
<glyph name="sign:acute" format="2">
  <advance width="768"/>
  <unicode hex="00B4"/>
  <guideline x="2696" y="0" angle="90"/>
  <guideline x="277" y="0" angle="80"/>
  <outline>
    <contour>
      <point x="414" y="1176" type="line" name="hr00"/>
      <point x="725" y="1521" type="line" name="sv01"/>
      <point x="755" y="1521" type="line"/>
      <point x="837" y="1434" type="line" name="ah01"/>
      <point x="837" y="1404" type="line"/>
      <point x="471" y="1116" type="line" name="av01"/>
    </contour>
  </outline>
</glyph>
<glyph name="sign:micro" format="2">
  <advance width="1024"/>
  <unicode hex="00B5"/>
  <guideline x="264" y="0" angle="90"/>
  <outline>
    <contour>
      <point x="455" y="974" type="line" name="dh06"/>
      <point x="369" y="487" type="line"/>
      <point x="361" y="445"/>
      <point x="355" y="373"/>
      <point x="355" y="341" type="qcurve"/>
      <point x="355" y="276"/>
      <point x="381" y="182"/>
      <point x="426" y="121"/>
      <point x="487" y="92"/>
      <point x="523" y="92" type="qcurve" name="sv01"/>
      <point x="567" y="92"/>
      <point x="653" y="137"/>
      <point x="728" y="233"/>
      <point x="789" y="383"/>
      <point x="807" y="487" type="qcurve"/>
      <point x="888" y="944" type="line" name="dh01"/>
      <point x="1025" y="974" type="line" name="at01"/>
      <point x="1055" y="974" type="line" name="dh02"/>
      <point x="929" y="259" type="line"/>
      <point x="924" y="233"/>
      <point x="919" y="199"/>
      <point x="916" y="176"/>
      <point x="915" y="162"/>
      <point x="915" y="156" type="qcurve"/>
      <point x="915" y="115"/>
      <point x="966" y="72"/>
      <point x="1015" y="72" type="qcurve" name="sh01"/>
      <point x="997" y="-30" type="line" name="ab02"/>
      <point x="974" y="-30" type="line"/>
      <point x="910" y="-30"/>
      <point x="826" y="-1"/>
      <point x="776" y="43"/>
      <point x="754" y="97"/>
      <point x="753" y="122" type="qcurve"/>
      <point x="743" y="122" type="line" name="sv02"/>
      <point x="730" y="98"/>
      <point x="687" y="44"/>
      <point x="625" y="-1"/>
      <point x="547" y="-30"/>
      <point x="500" y="-30" type="qcurve" name="ab03"/>
      <point x="458" y="-30"/>
      <point x="395" y="-1"/>
      <point x="350" y="43"/>
      <point x="322" y="97"/>
      <point x="315" y="122" type="qcurve"/>
      <point x="305" y="122" type="line" name="sv03"/>
      <point x="202" y="-460" type="line" name="dh04"/>
      <point x="65" y="-490" type="line" name="ab01"/>
      <point x="35" y="-490" type="line" name="dh03"/>
      <point x="288" y="944" type="line" name="dh05"/>
      <point x="425" y="974" type="line"/>
    </contour>
  </outline>
</glyph>
<glyph name="misc:paragraph" format="2">
  <advance width="1024"/>
  <unicode hex="00B6"/>
  <outline>
    <contour>
      <point x="1174" y="1434" type="line" name="at01"/>
      <point x="1156" y="1332" type="line" name="sv01"/>
      <point x="1042" y="1332" type="line"/>
      <point x="808" y="0" type="line" name="sh02"/>
      <point x="706" y="0" type="line" name="sh01"/>
      <point x="940" y="1332" type="line" name="sv02"/>
      <point x="794" y="1332" type="line" name="sv03"/>
      <point x="560" y="0" type="line" name="dh01"/>
      <point x="458" y="0" type="line" name="dh02"/>
      <point x="590" y="750" type="line"/>
      <point x="518" y="750"/>
      <point x="406" y="789"/>
      <point x="329" y="861"/>
      <point x="288" y="962"/>
      <point x="288" y="1023" type="qcurve"/>
      <point x="288" y="1116"/>
      <point x="361" y="1268"/>
      <point x="484" y="1375"/>
      <point x="643" y="1434"/>
      <point x="730" y="1434" type="qcurve"/>
    </contour>
  </outline>
</glyph>
<glyph name="periodcentered" format="2">
  <advance width="576"/>
  <unicode hex="00B7"/>
  <outline>
    <contour>
      <point x="232" y="488" type="qcurve" name="dh01"/>
      <point x="232" y="516"/>
      <point x="254" y="567"/>
      <point x="291" y="604"/>
      <point x="341" y="626"/>
      <point x="370" y="626" type="qcurve" name="dv02"/>
      <point x="398" y="626"/>
      <point x="449" y="604"/>
      <point x="486" y="567"/>
      <point x="508" y="516"/>
      <point x="508" y="488" type="qcurve" name="dh02"/>
      <point x="508" y="459"/>
      <point x="486" y="409"/>
      <point x="449" y="372"/>
      <point x="398" y="350"/>
      <point x="370" y="350" type="qcurve" name="dv01"/>
      <point x="341" y="350"/>
      <point x="291" y="372"/>
      <point x="254" y="409"/>
      <point x="232" y="459"/>
    </contour>
  </outline>
</glyph>
<glyph name="sign:cedilla" format="2">
  <advance width="768"/>
  <unicode hex="00B8"/>
  <guideline x="851" y="0" angle="65"/>
  <outline>
    <contour>
      <point x="452" y="19" type="line" name="ih01"/>
      <point x="392" y="-110" type="line" name="sv01"/>
      <point x="416" y="-110"/>
      <point x="464" y="-132"/>
      <point x="504" y="-175"/>
      <point x="529" y="-240"/>
      <point x="529" y="-283" type="qcurve" name="dh02"/>
      <point x="529" y="-334"/>
      <point x="487" y="-411"/>
      <point x="423" y="-463"/>
      <point x="343" y="-490"/>
      <point x="306" y="-490" type="qcurve" name="ab01"/>
      <point x="271" y="-490"/>
      <point x="215" y="-476"/>
      <point x="173" y="-456"/>
      <point x="144" y="-433"/>
      <point x="135" y="-423" type="qcurve"/>
      <point x="189" y="-347" type="line"/>
      <point x="205" y="-373"/>
      <point x="262" y="-408"/>
      <point x="291" y="-408" type="qcurve" name="sv02"/>
      <point x="345" y="-408"/>
      <point x="407" y="-342"/>
      <point x="407" y="-288" type="qcurve" name="dh01"/>
      <point x="407" y="-266"/>
      <point x="389" y="-229"/>
      <point x="361" y="-204"/>
      <point x="325" y="-190"/>
      <point x="307" y="-190" type="qcurve" name="av01"/>
      <point x="281" y="-190"/>
      <point x="236" y="-201"/>
      <point x="224" y="-206" type="qcurve"/>
      <point x="330" y="19" type="line" name="sh01"/>
    </contour>
  </outline>
</glyph>
<glyph name="onesuperior" format="2">
  <advance width="736"/>
  <unicode hex="00B9"/>
  <guideline x="675" y="0" angle="90"/>
  <guideline x="478" y="0" angle="90"/>
  <outline>
    <contour>
      <point x="746" y="1464" type="line" name="sh02"/>
      <point x="594" y="604" type="line" name="dh02"/>
      <point x="482" y="604" type="line" name="dh01"/>
      <point x="610" y="1335" type="line" name="sh01"/>
      <point x="604" y="1335" type="line" name="iv01"/>
      <point x="478" y="1309" type="line" name="sh03"/>
      <point x="478" y="1391" type="line" name="sv01"/>
      <point x="713" y="1464" type="line"/>
    </contour>
  </outline>
</glyph>
<glyph name="latn:ordmasculine" format="2">
  <advance width="864"/>
  <unicode hex="00BA"/>
  <outline>
    <contour>
      <point x="690" y="1464" type="qcurve" name="at01"/>
      <point x="764" y="1464"/>
      <point x="879" y="1418"/>
      <point x="959" y="1334"/>
      <point x="1000" y="1217"/>
      <point x="1000" y="1146" type="qcurve" name="sh01"/>
      <point x="1000" y="1050"/>
      <point x="932" y="871"/>
      <point x="811" y="732"/>
      <point x="644" y="649"/>
      <point x="546" y="649" type="qcurve" name="dv01"/>
      <point x="472" y="649"/>
      <point x="357" y="694"/>
      <point x="276" y="776"/>
      <point x="234" y="892"/>
      <point x="234" y="963" type="qcurve" name="sh02"/>
      <point x="234" y="1061"/>
      <point x="301" y="1242"/>
      <point x="422" y="1381"/>
      <point x="589" y="1464"/>
    </contour>
    <contour>
      <point x="672" y="1362" type="qcurve" name="sv01"/>
      <point x="598" y="1362"/>
      <point x="480" y="1291"/>
      <point x="399" y="1180"/>
      <point x="356" y="1046"/>
      <point x="356" y="984" type="qcurve" name="sh03"/>
      <point x="356" y="932"/>
      <point x="384" y="846"/>
      <point x="438" y="785"/>
      <point x="515" y="751"/>
      <point x="564" y="751" type="qcurve" name="dv02"/>
      <point x="639" y="751"/>
      <point x="755" y="823"/>
      <point x="836" y="935"/>
      <point x="878" y="1069"/>
      <point x="878" y="1131" type="qcurve" name="ah01"/>
      <point x="878" y="1182"/>
      <point x="850" y="1266"/>
      <point x="797" y="1328"/>
      <point x="720" y="1362"/>
    </contour>
  </outline>
</glyph>
<glyph name="sign:guillemetright" format="2">
  <advance width="1024"/>
  <unicode hex="00BB"/>
  <guideline x="0" y="901" angle="0"/>
  <guideline x="594" y="0" angle="90"/>
  <guideline x="492" y="0" angle="90"/>
  <outline>
    <contour>
      <point x="609" y="487" type="line" name="sh02"/>
      <point x="207" y="68" type="line" name="av02"/>
      <point x="111" y="98" type="line"/>
      <point x="445" y="487" type="line" name="sh03"/>
      <point x="248" y="876" type="line"/>
      <point x="355" y="906" type="line" name="av01"/>
    </contour>
    <contour>
      <point x="1007" y="487" type="line" name="ah01"/>
      <point x="605" y="68" type="line" name="sv01"/>
      <point x="509" y="98" type="line"/>
      <point x="843" y="487" type="line" name="sh01"/>
      <point x="646" y="876" type="line"/>
      <point x="753" y="906" type="line" name="sv02"/>
    </contour>
  </outline>
</glyph>
<glyph name="sign:questiondown" format="2">
  <advance width="1024"/>
  <unicode hex="00BF"/>
  <outline>
    <contour>
      <point x="864" y="125" type="line" name="hr00"/>
      <point x="786" y="47"/>
      <point x="610" y="-30"/>
      <point x="516" y="-30" type="qcurve"/>
      <point x="456" y="-30"/>
      <point x="345" y="12"/>
      <point x="266" y="91"/>
      <point x="227" y="203"/>
      <point x="240" y="273" type="qcurve"/>
      <point x="251" y="339"/>
      <point x="301" y="436"/>
      <point x="378" y="516"/>
      <point x="485" y="591"/>
      <point x="551" y="635" type="qcurve"/>
      <point x="607" y="672"/>
      <point x="685" y="729"/>
      <point x="736" y="778"/>
      <point x="763" y="823"/>
      <point x="767" y="847" type="qcurve"/>
      <point x="772" y="878"/>
      <point x="763" y="923"/>
      <point x="742" y="953"/>
      <point x="709" y="967"/>
      <point x="692" y="967" type="qcurve"/>
      <point x="653" y="967"/>
      <point x="612" y="949"/>
      <point x="592" y="933" type="qcurve"/>
      <point x="531" y="1006" type="line"/>
      <point x="564" y="1032"/>
      <point x="663" y="1069"/>
      <point x="710" y="1069" type="qcurve"/>
      <point x="751" y="1069"/>
      <point x="824" y="1042"/>
      <point x="877" y="987"/>
      <point x="899" y="903"/>
      <point x="889" y="846" type="qcurve"/>
      <point x="881" y="802"/>
      <point x="831" y="717"/>
      <point x="756" y="635"/>
      <point x="663" y="558"/>
      <point x="612" y="522" type="qcurve"/>
      <point x="557" y="483"/>
      <point x="483" y="421"/>
      <point x="433" y="362"/>
      <point x="407" y="301"/>
      <point x="400" y="264" type="qcurve"/>
      <point x="392" y="216"/>
      <point x="408" y="144"/>
      <point x="446" y="96"/>
      <point x="502" y="72"/>
      <point x="534" y="72" type="qcurve"/>
      <point x="565" y="72"/>
      <point x="632" y="92"/>
      <point x="696" y="132"/>
      <point x="755" y="189"/>
      <point x="780" y="227" type="qcurve"/>
    </contour>
    <contour>
      <point x="635" y="1351" type="qcurve"/>
      <point x="635" y="1374"/>
      <point x="652" y="1415"/>
      <point x="684" y="1447"/>
      <point x="724" y="1464"/>
      <point x="748" y="1464" type="qcurve"/>
      <point x="771" y="1464"/>
      <point x="812" y="1447"/>
      <point x="844" y="1415"/>
      <point x="861" y="1374"/>
      <point x="861" y="1351" type="qcurve"/>
      <point x="861" y="1327"/>
      <point x="844" y="1287"/>
      <point x="812" y="1255"/>
      <point x="771" y="1238"/>
      <point x="748" y="1238" type="qcurve"/>
      <point x="724" y="1238"/>
      <point x="684" y="1255"/>
      <point x="652" y="1287"/>
      <point x="635" y="1327"/>
    </contour>
  </outline>
</glyph>
<glyph name="latn:AE" format="2">
  <advance width="1760"/>
  <unicode hex="00C6"/>
  <guideline x="52" y="0" angle="60"/>
  <guideline x="189" y="0" angle="60"/>
  <outline>
    <contour>
      <point x="1132" y="1434" type="line" name="at01"/>
      <point x="1911" y="1434" type="line"/>
      <point x="1886" y="1292" type="line"/>
      <point x="1293" y="1312" type="line" name="sv01"/>
      <point x="1209" y="839" type="line" name="sh01"/>
      <point x="1703" y="839" type="line" name="dv04"/>
      <point x="1681" y="717" type="line" name="dv03"/>
      <point x="1188" y="717" type="line"/>
      <point x="1083" y="122" type="line" name="dh02"/>
      <point x="1709" y="142" type="line"/>
      <point x="1684" y="0" type="line"/>
      <point x="880" y="0" type="line" name="dh01"/>
      <point x="944" y="365" type="line" name="dv01"/>
      <point x="464" y="365" type="line"/>
      <point x="166" y="-30" type="line" name="ab01"/>
      <point x="52" y="0" type="line"/>
    </contour>
    <contour>
      <point x="1065" y="1163" type="line"/>
      <point x="556" y="487" type="line"/>
      <point x="965" y="487" type="line" name="dv02"/>
      <point x="1085" y="1163" type="line"/>
    </contour>
  </outline>
</glyph>
<glyph name="latn:Ccedilla" format="2">
  <advance width="1344"/>
  <unicode hex="00C7"/>
  <outline>
    <contour>
      <point x="1372" y="1112" type="line" name="hr00"/>
      <point x="1357" y="1149"/>
      <point x="1296" y="1230"/>
      <point x="1205" y="1298"/>
      <point x="1084" y="1342"/>
      <point x="1008" y="1342" type="qcurve"/>
      <point x="939" y="1342"/>
      <point x="793" y="1292"/>
      <point x="655" y="1197"/>
      <point x="532" y="1060"/>
      <point x="440" y="888"/>
      <point x="386" y="684"/>
      <point x="386" y="569" type="qcurve"/>
      <point x="386" y="450"/>
      <point x="454" y="272"/>
      <point x="566" y="152"/>
      <point x="711" y="92"/>
      <point x="788" y="92" type="qcurve"/>
      <point x="864" y="92"/>
      <point x="995" y="137"/>
      <point x="1103" y="205"/>
      <point x="1186" y="286"/>
      <point x="1213" y="322" type="qcurve"/>
      <point x="1330" y="204" type="line"/>
      <point x="1277" y="157"/>
      <point x="1168" y="77"/>
      <point x="1045" y="15"/>
      <point x="904" y="-23"/>
      <point x="820" y="-28" type="qcurve"/>
      <point x="782" y="-110" type="line"/>
      <point x="806" y="-110"/>
      <point x="854" y="-132"/>
      <point x="894" y="-175"/>
      <point x="919" y="-240"/>
      <point x="919" y="-283" type="qcurve"/>
      <point x="919" y="-334"/>
      <point x="877" y="-411"/>
      <point x="813" y="-463"/>
      <point x="733" y="-490"/>
      <point x="696" y="-490" type="qcurve"/>
      <point x="661" y="-490"/>
      <point x="605" y="-476"/>
      <point x="563" y="-456"/>
      <point x="534" y="-433"/>
      <point x="525" y="-423" type="qcurve"/>
      <point x="579" y="-347" type="line"/>
      <point x="595" y="-373"/>
      <point x="652" y="-408"/>
      <point x="681" y="-408" type="qcurve"/>
      <point x="735" y="-408"/>
      <point x="797" y="-342"/>
      <point x="797" y="-288" type="qcurve"/>
      <point x="797" y="-266"/>
      <point x="779" y="-229"/>
      <point x="751" y="-204"/>
      <point x="715" y="-190"/>
      <point x="697" y="-190" type="qcurve"/>
      <point x="671" y="-190"/>
      <point x="626" y="-201"/>
      <point x="614" y="-206" type="qcurve"/>
      <point x="698" y="-26" type="line"/>
      <point x="593" y="-15"/>
      <point x="409" y="76"/>
      <point x="272" y="228"/>
      <point x="194" y="437"/>
      <point x="194" y="566" type="qcurve"/>
      <point x="194" y="694"/>
      <point x="257" y="927"/>
      <point x="368" y="1127"/>
      <point x="522" y="1288"/>
      <point x="703" y="1402"/>
      <point x="905" y="1464"/>
      <point x="1010" y="1464" type="qcurve"/>
      <point x="1087" y="1464"/>
      <point x="1225" y="1429"/>
      <point x="1346" y="1366"/>
      <point x="1448" y="1281"/>
      <point x="1490" y="1230" type="qcurve"/>
    </contour>
  </outline>
</glyph>
<glyph name="multiply" format="2">
  <advance width="1152"/>
  <unicode hex="00D7"/>
  <guideline x="0" y="715" angle="0"/>
  <guideline x="512" y="0" angle="90"/>
  <outline>
    <contour>
      <point x="345" y="888" type="line" name="ah01"/>
      <point x="446" y="974" type="line" name="at01"/>
      <point x="694" y="673" type="line" name="iv01"/>
      <point x="1048" y="974" type="line" name="at02"/>
      <point x="1119" y="888" type="line" name="ah03"/>
      <point x="765" y="587" type="line" name="ih01"/>
      <point x="1013" y="286" type="line" name="ah04"/>
      <point x="912" y="200" type="line" name="av01"/>
      <point x="664" y="501" type="line" name="iv02"/>
      <point x="310" y="200" type="line" name="av02"/>
      <point x="239" y="286" type="line" name="ah02"/>
      <point x="593" y="587" type="line" name="ih02"/>
    </contour>
  </outline>
</glyph>
<glyph name="germandbls" format="2">
  <advance width="1152"/>
  <unicode hex="00DF"/>
  <guideline x="603" y="0" angle="90"/>
  <outline>
    <contour>
      <point x="538" y="72" type="line" name="sv01"/>
      <point x="634" y="72"/>
      <point x="797" y="114"/>
      <point x="915" y="195"/>
      <point x="982" y="315"/>
      <point x="982" y="392" type="qcurve" name="sh01"/>
      <point x="982" y="443"/>
      <point x="936" y="518" name="hr00"/>
      <point x="868" y="579"/>
      <point x="788" y="633"/>
      <point x="720" y="695"/>
      <point x="674" y="771"/>
      <point x="674" y="824" type="qcurve" name="dh01"/>
      <point x="674" y="878"/>
      <point x="720" y="965" name="hr01"/>
      <point x="788" y="1042"/>
      <point x="868" y="1114"/>
      <point x="936" y="1191"/>
      <point x="982" y="1278"/>
      <point x="982" y="1332" type="qcurve" name="dh03"/>
      <point x="982" y="1359"/>
      <point x="961" y="1407"/>
      <point x="922" y="1443"/>
      <point x="868" y="1464"/>
      <point x="835" y="1464" type="qcurve" name="dv01"/>
      <point x="781" y="1464"/>
      <point x="672" y="1407"/>
      <point x="576" y="1292"/>
      <point x="501" y="1118"/>
      <point x="480" y="1001" type="qcurve"/>
      <point x="304" y="0" type="line" name="dh06"/>
      <point x="142" y="0" type="line" name="dh05"/>
      <point x="325" y="1039" type="line"/>
      <point x="345" y="1153"/>
      <point x="452" y="1347"/>
      <point x="599" y="1487"/>
      <point x="772" y="1566"/>
      <point x="859" y="1566" type="qcurve" name="dv02"/>
      <point x="921" y="1566"/>
      <point x="1019" y="1529"/>
      <point x="1088" y="1468"/>
      <point x="1125" y="1389"/>
      <point x="1125" y="1347" type="qcurve" name="dh04"/>
      <point x="1125" y="1286"/>
      <point x="1077" y="1191"/>
      <point x="1006" y="1113"/>
      <point x="923" y="1047"/>
      <point x="852" y="985"/>
      <point x="804" y="922"/>
      <point x="804" y="886" type="qcurve" name="dh02"/>
      <point x="804" y="850"/>
      <point x="855" y="788"/>
      <point x="930" y="727"/>
      <point x="1019" y="662"/>
      <point x="1094" y="581"/>
      <point x="1145" y="480"/>
      <point x="1145" y="415" type="qcurve" name="sh02"/>
      <point x="1145" y="322"/>
      <point x="1077" y="162"/>
      <point x="999" y="101" type="qcurve"/>
      <point x="923" y="40"/>
      <point x="679" y="-30"/>
      <point x="520" y="-30" type="qcurve" name="ab01"/>
    </contour>
  </outline>
</glyph>
<glyph name="latn:eth" format="2">
  <advance width="1120"/>
  <unicode hex="00F0"/>
  <guideline x="0" y="706" angle="40"/>
  <guideline x="0" y="545" angle="40"/>
  <guideline x="0" y="952" angle="40"/>
  <guideline x="2131" y="0" angle="130"/>
  <guideline x="1674" y="0" angle="130"/>
  <outline>
    <contour>
      <point x="529" y="-32" type="qcurve" name="ab01"/>
      <point x="455" y="-32"/>
      <point x="324" y="15"/>
      <point x="227" y="105"/>
      <point x="171" y="234"/>
      <point x="171" y="317" type="qcurve" name="dh01"/>
      <point x="171" y="424"/>
      <point x="251" y="617"/>
      <point x="390" y="763"/>
      <point x="577" y="849"/>
      <point x="684" y="849" type="qcurve" name="dv02"/>
      <point x="726" y="849"/>
      <point x="808" y="826"/>
      <point x="880" y="779"/>
      <point x="938" y="707"/>
      <point x="956" y="659" type="qcurve"/>
      <point x="966" y="659" type="line"/>
      <point x="973" y="701" name="hr00"/>
      <point x="986" y="806"/>
      <point x="986" y="864" type="qcurve" name="sh01"/>
      <point x="986" y="936"/>
      <point x="956" y="1080"/>
      <point x="914" y="1143" type="qcurve" name="dh05"/>
      <point x="725" y="1005" type="line" name="at02"/>
      <point x="661" y="1099" type="line" name="ah02"/>
      <point x="852" y="1238" type="line" name="sh02"/>
      <point x="756" y="1381" type="line"/>
      <point x="869" y="1464" type="line" name="sv01"/>
      <point x="965" y="1321" type="line" name="sh03"/>
      <point x="1161" y="1464" type="line" name="at01"/>
      <point x="1223" y="1369" type="line" name="ah01"/>
      <point x="1029" y="1227" type="line" name="dh06"/>
      <point x="1051" y="1192"/>
      <point x="1090" y="1098"/>
      <point x="1119" y="987"/>
      <point x="1135" y="861"/>
      <point x="1135" y="794" type="qcurve" name="dh04"/>
      <point x="1135" y="677"/>
      <point x="1086" y="465"/>
      <point x="1001" y="281"/>
      <point x="885" y="132"/>
      <point x="750" y="26"/>
      <point x="603" y="-32"/>
    </contour>
    <contour>
      <point x="666" y="747" type="qcurve" name="dv01"/>
      <point x="598" y="747"/>
      <point x="481" y="673"/>
      <point x="394" y="553"/>
      <point x="344" y="400"/>
      <point x="344" y="321" type="qcurve" name="dh02"/>
      <point x="344" y="264"/>
      <point x="372" y="172"/>
      <point x="424" y="106"/>
      <point x="500" y="70"/>
      <point x="547" y="70" type="qcurve" name="sv02"/>
      <point x="598" y="70"/>
      <point x="691" y="107"/>
      <point x="769" y="170"/>
      <point x="832" y="254"/>
      <point x="876" y="346"/>
      <point x="900" y="441"/>
      <point x="900" y="485" type="qcurve" name="dh03"/>
      <point x="900" y="534"/>
      <point x="869" y="629"/>
      <point x="809" y="702"/>
      <point x="722" y="747"/>
    </contour>
  </outline>
</glyph>
<glyph name="divide" format="2">
  <advance width="1152"/>
  <unicode hex="00F7"/>
  <outline>
    <contour>
      <point x="262" y="548" type="line" name="hr00"/>
      <point x="1082" y="548" type="line"/>
      <point x="1061" y="426" type="line"/>
      <point x="241" y="426" type="line"/>
    </contour>
    <contour>
      <point x="470" y="93" type="qcurve" name="hr01"/>
      <point x="470" y="118"/>
      <point x="489" y="163"/>
      <point x="523" y="197"/>
      <point x="567" y="216"/>
      <point x="593" y="216" type="qcurve" name="hr02"/>
      <point x="618" y="216"/>
      <point x="663" y="197"/>
      <point x="696" y="163"/>
      <point x="716" y="118"/>
      <point x="716" y="93" type="qcurve"/>
      <point x="716" y="68"/>
      <point x="696" y="23"/>
      <point x="663" y="-10"/>
      <point x="618" y="-30"/>
      <point x="593" y="-30" type="qcurve"/>
      <point x="567" y="-30"/>
      <point x="523" y="-10"/>
      <point x="489" y="23"/>
      <point x="470" y="68"/>
    </contour>
    <contour>
      <point x="609" y="881" type="qcurve"/>
      <point x="609" y="906"/>
      <point x="628" y="951"/>
      <point x="662" y="984"/>
      <point x="706" y="1004"/>
      <point x="732" y="1004" type="qcurve"/>
      <point x="757" y="1004"/>
      <point x="802" y="984"/>
      <point x="835" y="951"/>
      <point x="855" y="906"/>
      <point x="855" y="881" type="qcurve"/>
      <point x="855" y="855"/>
      <point x="835" y="811"/>
      <point x="802" y="777"/>
      <point x="757" y="758"/>
      <point x="732" y="758" type="qcurve"/>
      <point x="706" y="758"/>
      <point x="662" y="777"/>
      <point x="628" y="811"/>
      <point x="609" y="855"/>
    </contour>
  </outline>
</glyph>
<glyph name="latn:thorn" format="2">
  <advance width="1120"/>
  <unicode hex="00FE"/>
  <guideline x="50" y="0" angle="90"/>
  <outline>
    <contour>
      <point x="562" y="1464" type="line" name="sh02"/>
      <point x="461" y="894" type="line" name="iv01"/>
      <point x="487" y="916"/>
      <point x="559" y="956"/>
      <point x="638" y="986"/>
      <point x="718" y="1004"/>
      <point x="754" y="1004" type="qcurve" name="at01"/>
      <point x="843" y="1004"/>
      <point x="984" y="946"/>
      <point x="1082" y="841"/>
      <point x="1134" y="694"/>
      <point x="1134" y="605" type="qcurve" name="sh03"/>
      <point x="1134" y="523"/>
      <point x="1095" y="366"/>
      <point x="1024" y="224"/>
      <point x="921" y="105"/>
      <point x="794" y="19"/>
      <point x="643" y="-30"/>
      <point x="559" y="-30" type="qcurve" name="ab02"/>
      <point x="521" y="-30"/>
      <point x="450" y="-13"/>
      <point x="387" y="15"/>
      <point x="335" y="52"/>
      <point x="316" y="72" type="qcurve" name="iv02"/>
      <point x="222" y="-460" type="line" name="dh02"/>
      <point x="85" y="-490" type="line" name="ab01"/>
      <point x="55" y="-490" type="line" name="dh01"/>
      <point x="394" y="1434" type="line"/>
      <point x="532" y="1464" type="line"/>
    </contour>
    <contour>
      <point x="566" y="72" type="qcurve" name="sv01"/>
      <point x="647" y="72"/>
      <point x="790" y="160"/>
      <point x="898" y="305"/>
      <point x="961" y="490"/>
      <point x="961" y="588" type="qcurve" name="sh04"/>
      <point x="961" y="659"/>
      <point x="925" y="775"/>
      <point x="860" y="857"/>
      <point x="769" y="902"/>
      <point x="714" y="902" type="qcurve" name="sv02"/>
      <point x="672" y="902"/>
      <point x="590" y="879"/>
      <point x="517" y="845"/>
      <point x="459" y="803"/>
      <point x="442" y="784" type="qcurve"/>
      <point x="337" y="190" type="line" name="sh01"/>
      <point x="349" y="172"/>
      <point x="391" y="131"/>
      <point x="449" y="95"/>
      <point x="522" y="72"/>
    </contour>
  </outline>
</glyph>
<glyph name="latn:Aogonek" format="2">
  <advance width="1344"/>
  <unicode hex="0104"/>
  <guideline x="1158" y="0" angle="100"/>
  <guideline x="1264" y="0" angle="80"/>
  <guideline x="1264" y="0" angle="90"/>
  <anchor x="952" y="1600" name="AccentAbove"/>
  <anchor x="1222" y="1600" name="AccentAboveRight"/>
  <outline>
    <contour>
      <point x="1264" y="0" type="line" name="sh01"/>
      <point x="1217" y="-30"/>
      <point x="1140" y="-87"/>
      <point x="1086" y="-145"/>
      <point x="1056" y="-207"/>
      <point x="1056" y="-241" type="qcurve" name="ih01"/>
      <point x="1056" y="-279"/>
      <point x="1100" y="-328"/>
      <point x="1132" y="-328" type="qcurve" name="dv02"/>
      <point x="1154" y="-328"/>
      <point x="1186" y="-318"/>
      <point x="1211" y="-302" type="qcurve"/>
      <point x="1230" y="-412" type="line" name="sh03"/>
      <point x="1188" y="-429"/>
      <point x="1133" y="-440"/>
      <point x="1104" y="-440" type="qcurve" name="dv01"/>
      <point x="1066" y="-440"/>
      <point x="1004" y="-417"/>
      <point x="959" y="-373"/>
      <point x="934" y="-311"/>
      <point x="934" y="-272" type="qcurve" name="sh04"/>
      <point x="934" y="-230"/>
      <point x="968" y="-155"/>
      <point x="1022" y="-91"/>
      <point x="1087" y="-39"/>
      <point x="1118" y="-21" type="qcurve"/>
      <point x="1058" y="-30" type="line" name="sh02"/>
      <point x="974" y="365" type="line" name="iv01"/>
      <point x="403" y="365" type="line"/>
      <point x="173" y="-30" type="line" name="sh06"/>
      <point x="59" y="0" type="line" name="sh05"/>
      <point x="908" y="1464" type="line" name="at01"/>
      <point x="952" y="1464" type="line" name="ih02"/>
    </contour>
    <contour>
      <point x="814" y="1090" type="line" name="ih03"/>
      <point x="473" y="487" type="line" name="sh07"/>
      <point x="949" y="487" type="line" name="sh08"/>
      <point x="824" y="1090" type="line" name="av01"/>
    </contour>
  </outline>
</glyph>
<glyph name="latn:Dstroke" format="2">
  <advance width="1504"/>
  <unicode hex="0110"/>
  <outline>
    <contour>
      <point x="444" y="1434" type="line" name="hr00"/>
      <point x="871" y="1434" type="line"/>
      <point x="1030" y="1434"/>
      <point x="1278" y="1359"/>
      <point x="1448" y="1216"/>
      <point x="1536" y="1009"/>
      <point x="1536" y="877" type="qcurve"/>
      <point x="1536" y="760"/>
      <point x="1474" y="540"/>
      <point x="1359" y="345"/>
      <point x="1196" y="182"/>
      <point x="994" y="65"/>
      <point x="759" y="0"/>
      <point x="629" y="0" type="qcurve"/>
      <point x="192" y="0" type="line"/>
      <point x="316" y="707" type="line"/>
      <point x="166" y="707" type="line"/>
      <point x="187" y="829" type="line"/>
      <point x="337" y="829" type="line"/>
    </contour>
    <contour>
      <point x="395" y="122" type="line"/>
      <point x="621" y="122" type="line"/>
      <point x="789" y="122"/>
      <point x="1057" y="240"/>
      <point x="1244" y="444"/>
      <point x="1344" y="717"/>
      <point x="1344" y="872" type="qcurve"/>
      <point x="1344" y="986"/>
      <point x="1273" y="1152"/>
      <point x="1139" y="1260"/>
      <point x="946" y="1312"/>
      <point x="824" y="1312" type="qcurve"/>
      <point x="605" y="1312" type="line"/>
      <point x="519" y="829" type="line"/>
      <point x="924" y="829" type="line"/>
      <point x="902" y="707" type="line"/>
      <point x="498" y="707" type="line"/>
    </contour>
  </outline>
</glyph>
<glyph name="latn:dstroke" format="2">
  <advance width="1120"/>
  <unicode hex="0111"/>
  <guideline x="1055" y="0" angle="90"/>
  <outline>
    <contour>
      <point x="1076" y="1464" type="line" name="hr00"/>
      <point x="1213" y="1494" type="line"/>
      <point x="1243" y="1494" type="line"/>
      <point x="1207" y="1290" type="line"/>
      <point x="1348" y="1290" type="line"/>
      <point x="1324" y="1158" type="line"/>
      <point x="1185" y="1165" type="line"/>
      <point x="1011" y="179" type="line"/>
      <point x="1009" y="167"/>
      <point x="1007" y="147"/>
      <point x="1007" y="138" type="qcurve"/>
      <point x="1007" y="105"/>
      <point x="1037" y="72"/>
      <point x="1070" y="72" type="qcurve"/>
      <point x="1052" y="-30" type="line"/>
      <point x="949" y="-30"/>
      <point x="853" y="60"/>
      <point x="853" y="142" type="qcurve"/>
      <point x="843" y="142" type="line"/>
      <point x="818" y="114"/>
      <point x="753" y="54"/>
      <point x="671" y="3"/>
      <point x="570" y="-30"/>
      <point x="509" y="-30" type="qcurve"/>
      <point x="437" y="-30"/>
      <point x="309" y="23"/>
      <point x="213" y="124"/>
      <point x="157" y="271"/>
      <point x="157" y="366" type="qcurve"/>
      <point x="157" y="446"/>
      <point x="198" y="603"/>
      <point x="271" y="745"/>
      <point x="372" y="866"/>
      <point x="493" y="954"/>
      <point x="629" y="1004"/>
      <point x="701" y="1004" type="qcurve"/>
      <point x="744" y="1004"/>
      <point x="823" y="986"/>
      <point x="892" y="957"/>
      <point x="947" y="921"/>
      <point x="967" y="902" type="qcurve"/>
      <point x="977" y="902" type="line"/>
      <point x="1025" y="1174" type="line"/>
      <point x="783" y="1188" type="line"/>
      <point x="801" y="1290" type="line"/>
      <point x="1045" y="1290" type="line"/>
    </contour>
    <contour>
      <point x="956" y="785" type="line"/>
      <point x="941" y="806"/>
      <point x="896" y="848"/>
      <point x="836" y="881"/>
      <point x="760" y="902"/>
      <point x="714" y="902" type="qcurve"/>
      <point x="661" y="902"/>
      <point x="563" y="860"/>
      <point x="477" y="787"/>
      <point x="407" y="685"/>
      <point x="357" y="566"/>
      <point x="329" y="432"/>
      <point x="329" y="363" type="qcurve"/>
      <point x="329" y="285"/>
      <point x="367" y="174"/>
      <point x="431" y="104"/>
      <point x="513" y="72"/>
      <point x="557" y="72" type="qcurve"/>
      <point x="604" y="72"/>
      <point x="691" y="105"/>
      <point x="769" y="158"/>
      <point x="837" y="227"/>
      <point x="864" y="263" type="qcurve"/>
    </contour>
  </outline>
</glyph>
<glyph name="Eogonek" format="2">
  <advance width="1088"/>
  <unicode hex="0118"/>
  <guideline x="1138" y="0" angle="90"/>
  <guideline x="961" y="0" angle="80"/>
  <anchor x="834" y="1600" name="AccentAbove"/>
  <anchor x="1104" y="1600" name="AccentAboveRight"/>
  <outline>
    <contour>
      <point x="434" y="1434" type="line" name="sh02"/>
      <point x="1213" y="1434" type="line" name="at01"/>
      <point x="1188" y="1292" type="line" name="sv01"/>
      <point x="595" y="1312" type="line" name="sh04"/>
      <point x="511" y="839" type="line"/>
      <point x="1005" y="839" type="line" name="dv04"/>
      <point x="983" y="717" type="line" name="dv03"/>
      <point x="490" y="717" type="line"/>
      <point x="385" y="122" type="line" name="sh03"/>
      <point x="1011" y="142" type="line" name="sv02"/>
      <point x="986" y="0" type="line" name="ab01"/>
      <point x="922" y="0" type="line"/>
      <point x="879" y="-26"/>
      <point x="803" y="-82"/>
      <point x="747" y="-142"/>
      <point x="714" y="-207"/>
      <point x="714" y="-241" type="qcurve" name="dh02"/>
      <point x="714" y="-279"/>
      <point x="758" y="-328"/>
      <point x="790" y="-328" type="qcurve" name="dv02"/>
      <point x="812" y="-328"/>
      <point x="844" y="-318"/>
      <point x="869" y="-302" type="qcurve"/>
      <point x="888" y="-412" type="line" name="ah01"/>
      <point x="846" y="-429"/>
      <point x="791" y="-440"/>
      <point x="762" y="-440" type="qcurve" name="dv01"/>
      <point x="721" y="-440"/>
      <point x="657" y="-414"/>
      <point x="614" y="-369"/>
      <point x="592" y="-307"/>
      <point x="592" y="-272" type="qcurve" name="dh01"/>
      <point x="592" y="-193"/>
      <point x="656" y="-116" type="qcurve"/>
      <point x="710" y="-52"/>
      <point x="813" y="0" type="qcurve" name="ab02"/>
      <point x="182" y="0" type="line" name="sh01"/>
    </contour>
  </outline>
</glyph>
<glyph name="latn:Iogonek" format="2">
  <advance width="576"/>
  <unicode hex="012E"/>
  <anchor x="568" y="1600" name="AccentAbove"/>
  <anchor x="638" y="1600" name="AccentAboveRight"/>
  <outline>
    <contour>
      <point x="637" y="1464" type="line" name="sh03"/>
      <point x="379" y="0" type="line" name="sh04"/>
      <point x="332" y="-30"/>
      <point x="255" y="-87"/>
      <point x="201" y="-145"/>
      <point x="171" y="-207"/>
      <point x="171" y="-241" type="qcurve" name="ih01"/>
      <point x="171" y="-279"/>
      <point x="215" y="-328"/>
      <point x="247" y="-328" type="qcurve" name="dv02"/>
      <point x="269" y="-328"/>
      <point x="301" y="-318"/>
      <point x="326" y="-302" type="qcurve"/>
      <point x="345" y="-412" type="line" name="ah01"/>
      <point x="303" y="-429"/>
      <point x="248" y="-440"/>
      <point x="219" y="-440" type="qcurve" name="dv01"/>
      <point x="181" y="-440"/>
      <point x="119" y="-417"/>
      <point x="74" y="-373"/>
      <point x="49" y="-311"/>
      <point x="49" y="-272" type="qcurve" name="sh05"/>
      <point x="49" y="-239"/>
      <point x="74" y="-170"/>
      <point x="128" y="-99"/>
      <point x="212" y="-31"/>
      <point x="272" y="0" type="qcurve" name="ih02"/>
      <point x="197" y="0" type="line" name="sh01"/>
      <point x="449" y="1434" type="line" name="sh02"/>
    </contour>
  </outline>
</glyph>
<glyph name="dotlessi" format="2">
  <advance width="576"/>
  <unicode hex="0131"/>
  <anchor x="568" y="1100" name="AccentAbove"/>
  <anchor x="538" y="1200" name="AccentAboveRight"/>
  <anchor x="318" y="0" name="AccentAttachedBelow"/>
  <anchor x="288" y="0" name="AccentBelow"/>
  <anchor x="288" y="486" name="AccentOverlay"/>
  <outline>
    <contour>
      <point x="207" y="0" type="line" name="hr00"/>
      <point x="378" y="974" type="line"/>
      <point x="516" y="1004" type="line"/>
      <point x="546" y="1004" type="line"/>
      <point x="369" y="0" type="line"/>
    </contour>
  </outline>
</glyph>
<glyph name="latn:jcircumflex" format="2">
  <advance width="576"/>
  <unicode hex="0135"/>
  <outline>
    <contour>
      <point x="378" y="974" type="line" name="hr00"/>
      <point x="516" y="1004" type="line"/>
      <point x="546" y="1004" type="line"/>
      <point x="355" y="-77" type="line"/>
      <point x="334" y="-196"/>
      <point x="257" y="-354"/>
      <point x="149" y="-450"/>
      <point x="10" y="-490"/>
      <point x="-72" y="-490" type="qcurve"/>
      <point x="-54" y="-388" type="line"/>
      <point x="48" y="-388"/>
      <point x="159" y="-270"/>
      <point x="180" y="-152" type="qcurve"/>
    </contour>
    <contour>
      <point x="793" y="1249" type="line"/>
      <point x="687" y="1219" type="line"/>
      <point x="538" y="1434" type="line"/>
      <point x="528" y="1434" type="line"/>
      <point x="303" y="1219" type="line"/>
      <point x="207" y="1249" type="line"/>
      <point x="470" y="1537" type="line"/>
      <point x="632" y="1537" type="line"/>
    </contour>
  </outline>
</glyph>
<glyph name="latn:kra" format="2">
  <advance width="1024"/>
  <unicode hex="0138"/>
  <outline>
    <contour>
      <point x="1009" y="0" type="line" name="hr00"/>
      <point x="819" y="-30" type="line"/>
      <point x="494" y="477" type="line"/>
      <point x="484" y="477" type="line"/>
      <point x="382" y="390" type="line"/>
      <point x="314" y="0" type="line"/>
      <point x="152" y="0" type="line"/>
      <point x="323" y="974" type="line"/>
      <point x="461" y="1004" type="line"/>
      <point x="491" y="1004" type="line"/>
      <point x="410" y="546" type="line"/>
      <point x="420" y="546" type="line"/>
      <point x="949" y="1004" type="line"/>
      <point x="1070" y="974" type="line"/>
      <point x="594" y="571" type="line"/>
    </contour>
  </outline>
</glyph>
<glyph name="latn:lstroke" format="2">
  <advance width="576"/>
  <unicode hex="0142"/>
  <guideline x="0" y="452" angle="39.24"/>
  <guideline x="0" y="557" angle="39.24"/>
  <outline>
    <contour>
      <point x="465" y="1464" type="line" name="hr00"/>
      <point x="602" y="1494" type="line"/>
      <point x="632" y="1494" type="line"/>
      <point x="531" y="921" type="line"/>
      <point x="632" y="1004" type="line"/>
      <point x="654" y="880" type="line"/>
      <point x="501" y="755" type="line"/>
      <point x="421" y="300" type="line"/>
      <point x="417" y="279"/>
      <point x="412" y="225"/>
      <point x="412" y="209" type="qcurve"/>
      <point x="412" y="191"/>
      <point x="424" y="144"/>
      <point x="452" y="102"/>
      <point x="501" y="72"/>
      <point x="544" y="72" type="qcurve"/>
      <point x="526" y="-30" type="line"/>
      <point x="439" y="-30"/>
      <point x="334" y="14"/>
      <point x="274" y="82"/>
      <point x="251" y="165"/>
      <point x="251" y="204" type="qcurve"/>
      <point x="251" y="226"/>
      <point x="256" y="285"/>
      <point x="260" y="307" type="qcurve"/>
      <point x="312" y="600" type="line"/>
      <point x="204" y="512" type="line"/>
      <point x="182" y="636" type="line"/>
      <point x="341" y="766" type="line"/>
    </contour>
  </outline>
</glyph>
<glyph name="latn:Eng" format="2">
  <advance width="1504"/>
  <unicode hex="014A"/>
  <guideline x="955" y="0" angle="90"/>
  <outline>
    <contour>
      <point x="556" y="1464" type="line" name="hr00"/>
      <point x="1257" y="306" type="line"/>
      <point x="1267" y="306" type="line"/>
      <point x="1471" y="1464" type="line"/>
      <point x="1589" y="1434" type="line"/>
      <point x="1322" y="-77" type="line"/>
      <point x="1301" y="-196"/>
      <point x="1224" y="-354"/>
      <point x="1116" y="-450"/>
      <point x="977" y="-490"/>
      <point x="895" y="-490" type="qcurve"/>
      <point x="913" y="-388" type="line"/>
      <point x="1015" y="-388"/>
      <point x="1126" y="-270"/>
      <point x="1147" y="-152" type="qcurve"/>
      <point x="1182" y="52" type="line"/>
      <point x="512" y="1159" type="line"/>
      <point x="502" y="1159" type="line"/>
      <point x="298" y="0" type="line"/>
      <point x="176" y="0" type="line"/>
      <point x="428" y="1434" type="line"/>
    </contour>
  </outline>
</glyph>
<glyph name="eng" format="2">
  <advance width="1120"/>
  <unicode hex="014B"/>
  <outline>
    <contour>
      <point x="547" y="-388" type="line" name="sv01"/>
      <point x="649" y="-388"/>
      <point x="758" y="-273"/>
      <point x="778" y="-163" type="qcurve"/>
      <point x="929" y="687" type="line" name="dh03"/>
      <point x="935" y="718"/>
      <point x="935" y="747" type="qcurve"/>
      <point x="935" y="822" name="hr00"/>
      <point x="856" y="902"/>
      <point x="778" y="902" type="qcurve" name="sv02"/>
      <point x="684" y="902"/>
      <point x="518" y="797"/>
      <point x="436" y="697" type="qcurve"/>
      <point x="314" y="0" type="line" name="dh02"/>
      <point x="152" y="0" type="line" name="dh01"/>
      <point x="318" y="944" type="line"/>
      <point x="455" y="974" type="line" name="at01"/>
      <point x="485" y="974" type="line"/>
      <point x="461" y="837" type="line" name="sv03"/>
      <point x="471" y="837" type="line"/>
      <point x="559" y="925"/>
      <point x="728" y="1004"/>
      <point x="819" y="1004" type="qcurve" name="at02"/>
      <point x="883" y="1004"/>
      <point x="987" y="972"/>
      <point x="1060" y="911"/>
      <point x="1099" y="823"/>
      <point x="1099" y="767" type="qcurve"/>
      <point x="1099" y="753"/>
      <point x="1097" y="723"/>
      <point x="1094" y="707" type="qcurve" name="dh04"/>
      <point x="957" y="-69" type="line"/>
      <point x="938" y="-175"/>
      <point x="872" y="-333"/>
      <point x="769" y="-438"/>
      <point x="626" y="-490"/>
      <point x="530" y="-490" type="qcurve" name="ab01"/>
    </contour>
  </outline>
</glyph>
<glyph name="latn:OE" format="2">
  <advance width="1888"/>
  <unicode hex="0152"/>
  <outline>
    <contour>
      <point x="804" y="-30" type="qcurve" name="hr00"/>
      <point x="687" y="-30"/>
      <point x="473" y="53"/>
      <point x="310" y="208"/>
      <point x="213" y="430"/>
      <point x="213" y="570" type="qcurve"/>
      <point x="213" y="695"/>
      <point x="276" y="925" name="hr01"/>
      <point x="389" y="1124"/>
      <point x="545" y="1286"/>
      <point x="731" y="1401"/>
      <point x="939" y="1464"/>
      <point x="1048" y="1464" type="qcurve"/>
      <point x="1098" y="1464"/>
      <point x="1194" y="1448"/>
      <point x="1239" y="1434" type="qcurve"/>
      <point x="2009" y="1434" type="line"/>
      <point x="1984" y="1292" type="line"/>
      <point x="1391" y="1312" type="line"/>
      <point x="1307" y="839" type="line" name="hr02"/>
      <point x="1801" y="839" type="line"/>
      <point x="1779" y="717" type="line"/>
      <point x="1286" y="717" type="line"/>
      <point x="1181" y="122" type="line"/>
      <point x="1807" y="142" type="line"/>
      <point x="1782" y="0" type="line"/>
      <point x="1006" y="0" type="line"/>
      <point x="955" y="-14"/>
      <point x="855" y="-30"/>
    </contour>
    <contour>
      <point x="1036" y="1342" type="qcurve"/>
      <point x="956" y="1342"/>
      <point x="800" y="1287"/>
      <point x="660" y="1186"/>
      <point x="541" y="1045"/>
      <point x="454" y="872"/>
      <point x="405" y="672"/>
      <point x="405" y="564" type="qcurve"/>
      <point x="405" y="444"/>
      <point x="476" y="266"/>
      <point x="591" y="149"/>
      <point x="739" y="92"/>
      <point x="816" y="92" type="qcurve"/>
      <point x="909" y="92"/>
      <point x="1001" y="131" type="qcurve"/>
      <point x="1207" y="1304" type="line"/>
      <point x="1166" y="1324"/>
      <point x="1080" y="1342"/>
    </contour>
  </outline>
</glyph>
<glyph name="oe" format="2">
  <advance width="1824"/>
  <unicode hex="0153"/>
  <outline>
    <contour>
      <point x="736" y="1004" type="qcurve" name="at01"/>
      <point x="869" y="1004"/>
      <point x="1048" y="894"/>
      <point x="1097" y="797" type="qcurve" name="ih01"/>
      <point x="1182" y="894"/>
      <point x="1397" y="1004"/>
      <point x="1515" y="1004" type="qcurve" name="at02"/>
      <point x="1587" y="1004"/>
      <point x="1712" y="960"/>
      <point x="1806" y="868"/>
      <point x="1860" y="726"/>
      <point x="1860" y="629" type="qcurve" name="dh06"/>
      <point x="1860" y="597"/>
      <point x="1854" y="526"/>
      <point x="1847" y="487" type="qcurve" name="sh01"/>
      <point x="1131" y="487" type="line"/>
      <point x="1125" y="455"/>
      <point x="1120" y="396"/>
      <point x="1120" y="369" type="qcurve" name="dh04"/>
      <point x="1120" y="288"/>
      <point x="1164" y="175"/>
      <point x="1238" y="104"/>
      <point x="1335" y="72"/>
      <point x="1388" y="72" type="qcurve" name="sv01"/>
      <point x="1436" y="72"/>
      <point x="1523" y="103"/>
      <point x="1595" y="149"/>
      <point x="1652" y="203"/>
      <point x="1671" y="227" type="qcurve" name="av01"/>
      <point x="1774" y="125" type="line"/>
      <point x="1754" y="106"/>
      <point x="1679" y="53"/>
      <point x="1574" y="4"/>
      <point x="1442" y="-30"/>
      <point x="1365" y="-30" type="qcurve" name="ab01"/>
      <point x="1085" y="-30"/>
      <point x="988" y="177" type="qcurve" name="ih02"/>
      <point x="903" y="80"/>
      <point x="686" y="-30"/>
      <point x="553" y="-30" type="qcurve" name="ab02"/>
      <point x="459" y="-30"/>
      <point x="309" y="30"/>
      <point x="204" y="139"/>
      <point x="148" y="290"/>
      <point x="148" y="381" type="qcurve" name="dh01"/>
      <point x="148" y="465"/>
      <point x="191" y="623"/>
      <point x="268" y="762"/>
      <point x="376" y="876"/>
      <point x="507" y="959"/>
      <point x="656" y="1004"/>
    </contour>
    <contour>
      <point x="718" y="902" type="qcurve" name="sv02"/>
      <point x="633" y="902"/>
      <point x="488" y="811"/>
      <point x="381" y="663"/>
      <point x="321" y="476"/>
      <point x="321" y="380" type="qcurve" name="dh02"/>
      <point x="321" y="313"/>
      <point x="354" y="200"/>
      <point x="418" y="118"/>
      <point x="511" y="72"/>
      <point x="571" y="72" type="qcurve" name="sv03"/>
      <point x="626" y="72"/>
      <point x="729" y="113"/>
      <point x="817" y="185"/>
      <point x="890" y="284"/>
      <point x="942" y="398"/>
      <point x="970" y="524"/>
      <point x="970" y="588" type="qcurve" name="dh03"/>
      <point x="970" y="655"/>
      <point x="936" y="770"/>
      <point x="871" y="854"/>
      <point x="777" y="902"/>
    </contour>
    <contour>
      <point x="1713" y="589" type="line" name="dv01"/>
      <point x="1719" y="620"/>
      <point x="1719" y="652" type="qcurve" name="dh05"/>
      <point x="1719" y="703"/>
      <point x="1689" y="793"/>
      <point x="1631" y="862"/>
      <point x="1545" y="902"/>
      <point x="1489" y="902" type="qcurve" name="sv04"/>
      <point x="1427" y="902"/>
      <point x="1317" y="853"/>
      <point x="1228" y="769"/>
      <point x="1165" y="655"/>
      <point x="1149" y="589" type="qcurve"/>
    </contour>
  </outline>
</glyph>
<glyph name="latn:tstroke" format="2">
  <advance width="736"/>
  <unicode hex="0167"/>
  <guideline x="33" y="0" angle="90"/>
  <guideline x="-53" y="0" angle="80"/>
  <guideline x="650" y="0" angle="90"/>
  <outline>
    <contour>
      <point x="646" y="1322" type="line" name="hr00"/>
      <point x="590" y="1004" type="line"/>
      <point x="805" y="1004" type="line"/>
      <point x="781" y="872" type="line"/>
      <point x="569" y="885" type="line"/>
      <point x="517" y="588" type="line"/>
      <point x="733" y="588" type="line" name="hr01"/>
      <point x="715" y="486" type="line"/>
      <point x="499" y="486" type="line"/>
      <point x="465" y="297" type="line"/>
      <point x="455" y="240"/>
      <point x="458" y="155"/>
      <point x="496" y="99"/>
      <point x="575" y="72"/>
      <point x="641" y="72" type="qcurve"/>
      <point x="623" y="-30" type="line"/>
      <point x="498" y="-30"/>
      <point x="366" y="8"/>
      <point x="300" y="92"/>
      <point x="291" y="228"/>
      <point x="308" y="326" type="qcurve"/>
      <point x="336" y="486" type="line"/>
      <point x="167" y="486" type="line" name="hr02"/>
      <point x="185" y="588" type="line"/>
      <point x="354" y="588" type="line"/>
      <point x="408" y="893" type="line"/>
      <point x="241" y="902" type="line"/>
      <point x="258" y="1004" type="line"/>
      <point x="428" y="1004" type="line"/>
      <point x="478" y="1292" type="line"/>
      <point x="616" y="1322" type="line"/>
    </contour>
  </outline>
</glyph>
<glyph name="latn:uogonek" format="2">
  <advance width="1120"/>
  <unicode hex="0173"/>
  <guideline x="1048" y="0" angle="80"/>
  <anchor x="840" y="1100" name="AccentAbove"/>
  <outline>
    <contour>
      <point x="491" y="1004" type="line" name="hr00"/>
      <point x="367" y="305" type="line"/>
      <point x="361" y="269"/>
      <point x="361" y="239" type="qcurve"/>
      <point x="361" y="193"/>
      <point x="388" y="129"/>
      <point x="433" y="90"/>
      <point x="492" y="72"/>
      <point x="524" y="72" type="qcurve"/>
      <point x="579" y="72"/>
      <point x="675" y="107"/>
      <point x="758" y="163"/>
      <point x="826" y="230"/>
      <point x="854" y="263" type="qcurve"/>
      <point x="979" y="974" type="line"/>
      <point x="1117" y="1004" type="line"/>
      <point x="1147" y="1004" type="line"/>
      <point x="1003" y="189" type="line"/>
      <point x="1000" y="174"/>
      <point x="998" y="149"/>
      <point x="998" y="138" type="qcurve"/>
      <point x="998" y="101"/>
      <point x="1029" y="72"/>
      <point x="1060" y="72" type="qcurve"/>
      <point x="1042" y="-30" type="line"/>
      <point x="1031" y="-30"/>
      <point x="1011" y="-29"/>
      <point x="1001" y="-28" type="qcurve"/>
      <point x="975" y="-47"/>
      <point x="918" y="-91"/>
      <point x="870" y="-144"/>
      <point x="839" y="-205"/>
      <point x="839" y="-241" type="qcurve"/>
      <point x="839" y="-279"/>
      <point x="883" y="-328"/>
      <point x="915" y="-328" type="qcurve"/>
      <point x="937" y="-328"/>
      <point x="969" y="-318"/>
      <point x="994" y="-302" type="qcurve"/>
      <point x="1013" y="-412" type="line"/>
      <point x="971" y="-429"/>
      <point x="916" y="-440"/>
      <point x="887" y="-440" type="qcurve"/>
      <point x="846" y="-440"/>
      <point x="782" y="-414"/>
      <point x="739" y="-369"/>
      <point x="717" y="-307"/>
      <point x="717" y="-272" type="qcurve"/>
      <point x="717" y="-226"/>
      <point x="755" y="-146"/>
      <point x="814" y="-80"/>
      <point x="887" y="-27"/>
      <point x="923" y="-7" type="qcurve"/>
      <point x="881" y="16"/>
      <point x="846" y="97"/>
      <point x="843" y="142" type="qcurve"/>
      <point x="833" y="142" type="line"/>
      <point x="811" y="116"/>
      <point x="741" y="56"/>
      <point x="648" y="4"/>
      <point x="536" y="-30"/>
      <point x="473" y="-30" type="qcurve"/>
      <point x="418" y="-30"/>
      <point x="317" y="-3"/>
      <point x="240" y="55"/>
      <point x="194" y="146"/>
      <point x="194" y="210" type="qcurve"/>
      <point x="194" y="227"/>
      <point x="198" y="261"/>
      <point x="201" y="280" type="qcurve"/>
      <point x="323" y="974" type="line"/>
      <point x="461" y="1004" type="line"/>
    </contour>
  </outline>
</glyph>
<glyph name="latn:longs" format="2">
  <advance width="576"/>
  <unicode hex="017F"/>
  <guideline x="553" y="0" angle="90"/>
  <guideline x="554" y="0" angle="80"/>
  <outline>
    <contour>
      <point x="337" y="0" type="line" name="dh02"/>
      <point x="175" y="0" type="line" name="dh01"/>
      <point x="370" y="1108" type="line" name="sh01"/>
      <point x="386" y="1198"/>
      <point x="447" y="1331"/>
      <point x="550" y="1420"/>
      <point x="703" y="1464"/>
      <point x="811" y="1464" type="qcurve" name="at01"/>
      <point x="793" y="1362" type="line" name="sv01"/>
      <point x="729" y="1361"/>
      <point x="640" y="1327"/>
      <point x="580" y="1268"/>
      <point x="546" y="1186"/>
      <point x="537" y="1137" type="qcurve" name="sh02"/>
    </contour>
  </outline>
</glyph>
<glyph name="uni0192" format="2">
  <advance width="1024"/>
  <unicode hex="0192"/>
  <guideline x="933" y="0" angle="80"/>
  <guideline x="-32" y="0" angle="80"/>
  <guideline x="-50" y="0" angle="90"/>
  <outline>
    <contour>
      <point x="534" y="738" type="line" name="dh02"/>
      <point x="388" y="746" type="line"/>
      <point x="406" y="848" type="line"/>
      <point x="574" y="848" type="line" name="dh03"/>
      <point x="654" y="1074" type="line"/>
      <point x="691" y="1179"/>
      <point x="792" y="1359"/>
      <point x="927" y="1491"/>
      <point x="1100" y="1566"/>
      <point x="1210" y="1566" type="qcurve" name="sv01"/>
      <point x="1192" y="1464" type="line" name="at01"/>
      <point x="1120" y="1464"/>
      <point x="1005" y="1402"/>
      <point x="913" y="1295"/>
      <point x="843" y="1154"/>
      <point x="815" y="1075" type="qcurve"/>
      <point x="736" y="848" type="line" name="dh04"/>
      <point x="974" y="848" type="line" name="av01"/>
      <point x="951" y="716" type="line"/>
      <point x="694" y="731" type="line" name="dh01"/>
      <point x="437" y="0" type="line"/>
      <point x="400" y="-106"/>
      <point x="299" y="-285"/>
      <point x="164" y="-416"/>
      <point x="-9" y="-489"/>
      <point x="-118" y="-490" type="qcurve" name="ab01"/>
      <point x="-100" y="-388" type="line" name="sv02"/>
      <point x="-25" y="-388"/>
      <point x="90" y="-327"/>
      <point x="180" y="-222"/>
      <point x="248" y="-80"/>
      <point x="276" y="0" type="qcurve"/>
    </contour>
  </outline>
</glyph>
<glyph name="jdotless" format="2">
  <advance width="576"/>
  <unicode hex="0237"/>
  <guideline x="-23" y="0" angle="100"/>
  <anchor x="568" y="1100" name="AccentAbove"/>
  <anchor x="638" y="1200" name="AccentAboveRight"/>
  <anchor x="288" y="-400" name="AccentBelow"/>
  <anchor x="288" y="486" name="AccentOverlay"/>
  <outline>
    <contour>
      <point x="378" y="974" type="line" name="hr00"/>
      <point x="516" y="1004" type="line" name="at01"/>
      <point x="546" y="1004" type="line"/>
      <point x="355" y="-77" type="line" name="dh02"/>
      <point x="334" y="-196"/>
      <point x="257" y="-354"/>
      <point x="149" y="-450"/>
      <point x="10" y="-490"/>
      <point x="-72" y="-490" type="qcurve" name="ah01"/>
      <point x="-54" y="-388" type="line" name="sv01"/>
      <point x="48" y="-388"/>
      <point x="159" y="-270"/>
      <point x="180" y="-152" type="qcurve" name="dh01"/>
    </contour>
  </outline>
</glyph>
<glyph name="latn:aturned" format="2">
  <advance width="1024"/>
  <unicode hex="0250"/>
  <outline>
    <contour>
      <point x="944" y="125" type="line" name="sh01"/>
      <point x="863" y="49"/>
      <point x="669" y="-30"/>
      <point x="554" y="-30" type="qcurve" name="ab01"/>
      <point x="487" y="-30"/>
      <point x="366" y="6"/>
      <point x="275" y="80"/>
      <point x="222" y="189"/>
      <point x="222" y="263" type="qcurve" name="sh02"/>
      <point x="222" y="280"/>
      <point x="225" y="317"/>
      <point x="229" y="337" type="qcurve" name="sh03"/>
      <point x="311" y="800" type="line"/>
      <point x="314" y="819"/>
      <point x="314" y="835" type="qcurve"/>
      <point x="314" y="902"/>
      <point x="251" y="902" type="qcurve" name="ih01"/>
      <point x="269" y="1004" type="line" name="at01"/>
      <point x="341" y="1004"/>
      <point x="410" y="971"/>
      <point x="450" y="920"/>
      <point x="467" y="859"/>
      <point x="468" y="832" type="qcurve"/>
      <point x="478" y="832" type="line"/>
      <point x="508" y="861"/>
      <point x="586" y="922"/>
      <point x="682" y="972"/>
      <point x="798" y="1004"/>
      <point x="867" y="1004" type="qcurve" name="at02"/>
      <point x="919" y="1004"/>
      <point x="1004" y="973"/>
      <point x="1063" y="916"/>
      <point x="1095" y="835"/>
      <point x="1095" y="786" type="qcurve" name="sh05"/>
      <point x="1095" y="682"/>
      <point x="1001" y="529"/>
      <point x="823" y="428"/>
      <point x="564" y="377"/>
      <point x="398" y="375" type="qcurve" name="iv01"/>
      <point x="384" y="297" type="line" name="sh06"/>
      <point x="382" y="283"/>
      <point x="379" y="259"/>
      <point x="379" y="247" type="qcurve" name="sh04"/>
      <point x="379" y="200"/>
      <point x="413" y="134"/>
      <point x="468" y="92"/>
      <point x="537" y="72"/>
      <point x="572" y="72" type="qcurve" name="sv01"/>
      <point x="660" y="72"/>
      <point x="803" y="158"/>
      <point x="860" y="227" type="qcurve"/>
    </contour>
    <contour>
      <point x="409" y="437" type="line" name="sv02"/>
      <point x="531" y="438"/>
      <point x="724" y="481"/>
      <point x="859" y="562"/>
      <point x="931" y="680"/>
      <point x="931" y="756" type="qcurve" name="ah01"/>
      <point x="931" y="794"/>
      <point x="903" y="849"/>
      <point x="862" y="885"/>
      <point x="813" y="902"/>
      <point x="792" y="902" type="qcurve" name="sv03"/>
      <point x="698" y="902"/>
      <point x="535" y="810"/>
      <point x="460" y="731" type="qcurve"/>
    </contour>
  </outline>
</glyph>
<glyph name="uni0251" format="2">
  <advance width="1120"/>
  <unicode hex="0251"/>
  <outline>
    <contour>
      <point x="1157" y="1004" type="line" name="at01"/>
      <point x="1011" y="179" type="line"/>
      <point x="1009" y="167"/>
      <point x="1007" y="147"/>
      <point x="1007" y="138" type="qcurve"/>
      <point x="1007" y="105"/>
      <point x="1037" y="72"/>
      <point x="1070" y="72" type="qcurve" name="sv01"/>
      <point x="1052" y="-30" type="line" name="ab01"/>
      <point x="976" y="-30"/>
      <point x="903" y="-10"/>
      <point x="861" y="21"/>
      <point x="843" y="57"/>
      <point x="840" y="72" type="qcurve" name="sv02"/>
      <point x="830" y="72" type="line" name="sv03"/>
      <point x="776" y="27"/>
      <point x="645" y="-30"/>
      <point x="554" y="-30" type="qcurve" name="ab02"/>
      <point x="470" y="-30"/>
      <point x="323" y="24"/>
      <point x="212" y="128"/>
      <point x="148" y="279"/>
      <point x="148" y="377" type="qcurve"/>
      <point x="148" y="458"/>
      <point x="190" y="614"/>
      <point x="266" y="753"/>
      <point x="373" y="871"/>
      <point x="504" y="956"/>
      <point x="655" y="1004"/>
      <point x="737" y="1004" type="qcurve" name="at02"/>
      <point x="780" y="1004"/>
      <point x="850" y="994"/>
      <point x="908" y="976"/>
      <point x="958" y="950"/>
      <point x="982" y="934" type="qcurve"/>
      <point x="1127" y="1004" type="line"/>
    </contour>
    <contour>
      <point x="961" y="815" type="line"/>
      <point x="913" y="861"/>
      <point x="797" y="902"/>
      <point x="719" y="902" type="qcurve" name="sv04"/>
      <point x="668" y="902"/>
      <point x="570" y="863"/>
      <point x="481" y="793"/>
      <point x="405" y="697"/>
      <point x="350" y="581"/>
      <point x="319" y="450"/>
      <point x="319" y="381" type="qcurve"/>
      <point x="319" y="297"/>
      <point x="367" y="180"/>
      <point x="440" y="106"/>
      <point x="530" y="72"/>
      <point x="572" y="72" type="qcurve" name="sv05"/>
      <point x="611" y="72"/>
      <point x="683" y="83"/>
      <point x="750" y="108"/>
      <point x="816" y="151"/>
      <point x="850" y="183" type="qcurve"/>
    </contour>
  </outline>
</glyph>
<glyph name="uni0252" format="2">
  <advance width="1120"/>
  <unicode hex="0252"/>
  <outline>
    <contour>
      <point x="322" y="0" type="line" name="ab02"/>
      <point x="160" y="0" type="line"/>
      <point x="300" y="795" type="line" name="dh04"/>
      <point x="302" y="807"/>
      <point x="304" y="827"/>
      <point x="304" y="836" type="qcurve"/>
      <point x="304" y="869"/>
      <point x="274" y="902"/>
      <point x="241" y="902" type="qcurve" name="sv01"/>
      <point x="259" y="1004" type="line" name="at01"/>
      <point x="335" y="1004"/>
      <point x="406" y="967"/>
      <point x="445" y="914"/>
      <point x="458" y="854"/>
      <point x="458" y="832" type="qcurve" name="sv03"/>
      <point x="468" y="832" type="line"/>
      <point x="493" y="860"/>
      <point x="558" y="920" name="hr00"/>
      <point x="640" y="971"/>
      <point x="741" y="1004"/>
      <point x="802" y="1004" type="qcurve" name="at02"/>
      <point x="874" y="1004"/>
      <point x="1002" y="951"/>
      <point x="1098" y="850"/>
      <point x="1154" y="703"/>
      <point x="1154" y="608" type="qcurve" name="dh02"/>
      <point x="1154" y="534"/>
      <point x="1117" y="382"/>
      <point x="1048" y="241"/>
      <point x="951" y="116"/>
      <point x="830" y="24"/>
      <point x="689" y="-30"/>
      <point x="610" y="-30" type="qcurve" name="ab01"/>
      <point x="567" y="-30"/>
      <point x="487" y="-13"/>
      <point x="418" y="15"/>
      <point x="363" y="52"/>
      <point x="344" y="72" type="qcurve" name="sv05"/>
      <point x="334" y="72" type="line"/>
    </contour>
    <contour>
      <point x="355" y="189" type="line"/>
      <point x="370" y="168"/>
      <point x="415" y="126"/>
      <point x="475" y="93"/>
      <point x="551" y="72"/>
      <point x="597" y="72" type="qcurve" name="sv04"/>
      <point x="676" y="72"/>
      <point x="817" y="164"/>
      <point x="922" y="315"/>
      <point x="983" y="510"/>
      <point x="983" y="613" type="qcurve" name="dh01"/>
      <point x="983" y="691"/>
      <point x="944" y="801"/>
      <point x="880" y="870"/>
      <point x="798" y="902"/>
      <point x="754" y="902" type="qcurve" name="sv02"/>
      <point x="707" y="902"/>
      <point x="620" y="869"/>
      <point x="542" y="816"/>
      <point x="474" y="747"/>
      <point x="447" y="711" type="qcurve" name="dh03"/>
    </contour>
  </outline>
</glyph>
<glyph name="latn:bhook" format="2">
  <advance width="1120"/>
  <unicode hex="0253"/>
  <outline>
    <contour>
      <point x="755" y="1464" type="qcurve" name="at01"/>
      <point x="719" y="1362" type="line" name="ih01"/>
      <point x="683" y="1362"/>
      <point x="615" y="1339"/>
      <point x="558" y="1284"/>
      <point x="514" y="1193"/>
      <point x="502" y="1126" type="qcurve" name="sh03"/>
      <point x="463" y="902" type="line" name="sv01"/>
      <point x="473" y="902" type="line"/>
      <point x="498" y="921"/>
      <point x="565" y="958"/>
      <point x="642" y="987"/>
      <point x="726" y="1004"/>
      <point x="770" y="1004" type="qcurve" name="at02"/>
      <point x="851" y="1004"/>
      <point x="988" y="945"/>
      <point x="1088" y="838"/>
      <point x="1144" y="687"/>
      <point x="1144" y="596" type="qcurve" name="sh01"/>
      <point x="1144" y="471"/>
      <point x="1054" y="245"/>
      <point x="897" y="72"/>
      <point x="682" y="-30"/>
      <point x="556" y="-30" type="qcurve" name="ab01"/>
      <point x="513" y="-30"/>
      <point x="423" y="-12"/>
      <point x="329" y="37"/>
      <point x="229" y="123"/>
      <point x="175" y="190" type="qcurve" name="dh01"/>
      <point x="327" y="1051" type="line" name="sh02"/>
      <point x="348" y="1169"/>
      <point x="425" y="1328"/>
      <point x="533" y="1424"/>
      <point x="672" y="1464"/>
    </contour>
    <contour>
      <point x="337" y="190" type="line" name="dh02"/>
      <point x="376" y="139"/>
      <point x="492" y="72"/>
      <point x="564" y="72" type="qcurve" name="sv02"/>
      <point x="624" y="72"/>
      <point x="765" y="141"/>
      <point x="888" y="273"/>
      <point x="970" y="467"/>
      <point x="970" y="592" type="qcurve" name="sh04"/>
      <point x="970" y="666"/>
      <point x="930" y="782"/>
      <point x="862" y="861"/>
      <point x="772" y="902"/>
      <point x="721" y="902" type="qcurve" name="sv03"/>
      <point x="674" y="902"/>
      <point x="593" y="881"/>
      <point x="523" y="847"/>
      <point x="465" y="806"/>
      <point x="442" y="785" type="qcurve"/>
    </contour>
  </outline>
</glyph>
<glyph name="latn:dtail" format="2">
  <advance width="1120"/>
  <unicode hex="0256"/>
  <outline>
    <contour>
      <point x="1076" y="1464" type="line" name="hr00"/>
      <point x="1213" y="1494" type="line" name="av01"/>
      <point x="1243" y="1494" type="line"/>
      <point x="951" y="-163" type="line" name="dh01"/>
      <point x="942" y="-211"/>
      <point x="942" y="-249" type="qcurve"/>
      <point x="942" y="-284"/>
      <point x="961" y="-337"/>
      <point x="1004" y="-371"/>
      <point x="1075" y="-388"/>
      <point x="1109" y="-388" type="qcurve" name="sv01"/>
      <point x="1091" y="-490" type="line" name="ab01"/>
      <point x="1005" y="-490"/>
      <point x="887" y="-466"/>
      <point x="813" y="-413"/>
      <point x="780" y="-329"/>
      <point x="780" y="-269" type="qcurve"/>
      <point x="780" y="-213"/>
      <point x="794" y="-134" type="qcurve" name="dh02"/>
      <point x="843" y="142" type="line" name="sv03"/>
      <point x="818" y="114"/>
      <point x="753" y="54"/>
      <point x="671" y="3"/>
      <point x="570" y="-30"/>
      <point x="509" y="-30" type="qcurve" name="ab02"/>
      <point x="437" y="-30"/>
      <point x="309" y="23"/>
      <point x="213" y="124"/>
      <point x="157" y="271"/>
      <point x="157" y="366" type="qcurve"/>
      <point x="157" y="440"/>
      <point x="194" y="592"/>
      <point x="263" y="733"/>
      <point x="360" y="858"/>
      <point x="481" y="950"/>
      <point x="623" y="1004"/>
      <point x="701" y="1004" type="qcurve" name="at01"/>
      <point x="744" y="1004"/>
      <point x="823" y="986"/>
      <point x="892" y="957"/>
      <point x="947" y="921"/>
      <point x="967" y="902" type="qcurve"/>
      <point x="977" y="902" type="line" name="sv05"/>
    </contour>
    <contour>
      <point x="956" y="785" type="line"/>
      <point x="941" y="806"/>
      <point x="896" y="848"/>
      <point x="836" y="881"/>
      <point x="760" y="902"/>
      <point x="714" y="902" type="qcurve" name="sv04"/>
      <point x="661" y="902"/>
      <point x="562" y="860"/>
      <point x="476" y="787"/>
      <point x="406" y="685"/>
      <point x="355" y="566"/>
      <point x="327" y="432"/>
      <point x="327" y="363" type="qcurve"/>
      <point x="327" y="285"/>
      <point x="366" y="174"/>
      <point x="430" y="104"/>
      <point x="513" y="72"/>
      <point x="557" y="72" type="qcurve" name="sv02"/>
      <point x="604" y="72"/>
      <point x="691" y="105"/>
      <point x="769" y="158"/>
      <point x="837" y="227"/>
      <point x="864" y="263" type="qcurve"/>
    </contour>
  </outline>
</glyph>
